<svg width="509" height="232" viewBox="0 0 509 232" fill="none" xmlns="http://www.w3.org/2000/svg">
<path d="M0.00098176 164.967C0.00098176 165.89 0.71374 166.602 1.63561 166.602H8.5423C12.6559 166.602 15.3704 164.836 15.3704 161.541V161.488C15.3704 158.983 13.8674 157.744 11.7055 157.006C13.0771 156.295 14.3425 155.108 14.3425 152.894V152.841C14.3425 151.603 13.9204 150.6 13.1036 149.782C12.0491 148.727 10.387 148.149 8.2782 148.149H1.63463C0.711776 148.149 0 148.86 0 149.782V164.967H0.00098176ZM3.19072 155.924V151.021H7.85703C9.94032 151.021 11.0998 151.918 11.0998 153.368V153.421C11.0998 155.107 9.70176 155.924 7.61944 155.924H3.19072ZM3.19072 163.729V158.666H8.3322C10.8887 158.666 12.1277 159.589 12.1277 161.145V161.197C12.1277 162.858 10.7827 163.729 8.56881 163.729H3.18974H3.19072ZM21.1491 166.602H32.0113C32.8016 166.602 33.4613 165.969 33.4613 165.152C33.4613 164.36 32.8016 163.701 32.0113 163.701H22.7572V158.745H30.6928C31.4831 158.745 32.1428 158.113 32.1428 157.321C32.1428 156.504 31.4831 155.845 30.6928 155.845H22.7572V151.047H31.8787C32.67 151.047 33.3288 150.415 33.3288 149.597C33.3288 148.805 32.671 148.147 31.8787 148.147H21.1491C20.2262 148.147 19.5135 148.858 19.5135 149.78V164.965C19.5135 165.888 20.2262 166.6 21.1491 166.6V166.602ZM42.8499 165.125C42.8499 166.022 43.5627 166.734 44.459 166.734C45.3819 166.734 46.0927 166.022 46.0927 165.125V159.352L52.3926 150.731C52.6302 150.416 52.8413 150.02 52.8413 149.572C52.8413 148.701 52.2081 147.99 51.2597 147.99C50.5744 147.99 50.0992 148.384 49.7036 148.965L44.4846 156.399L39.3441 148.992C38.9484 148.412 38.4732 148.016 37.7624 148.016C36.8396 148.016 36.1268 148.701 36.1268 149.572C36.1268 150.02 36.2849 150.389 36.495 150.705L42.8489 159.431V165.125H42.8499ZM64.1571 166.919C69.8248 166.919 73.8323 162.569 73.8323 157.375V157.322C73.8323 152.129 69.8778 147.833 64.2091 147.833C58.5404 147.833 54.5348 152.183 54.5348 157.376V157.428C54.5348 162.622 58.4894 166.92 64.1581 166.92L64.1571 166.919ZM64.2091 163.914C60.5442 163.914 57.9347 160.962 57.9347 157.376V157.323C57.9347 153.738 60.4922 150.811 64.1571 150.811C67.821 150.811 70.4315 153.791 70.4315 157.376V157.428C70.4315 161.014 67.874 163.915 64.2091 163.915V163.914ZM78.2385 165.153C78.2385 166.023 78.9512 166.734 79.8476 166.734C80.7174 166.734 81.4282 166.022 81.4282 165.153V153.447L90.9199 165.733C91.3675 166.313 91.8427 166.708 92.6065 166.708H92.7391C93.6344 166.708 94.3197 165.997 94.3197 165.1V149.598C94.3197 148.727 93.6079 148.016 92.7116 148.016C91.8417 148.016 91.129 148.727 91.129 149.598V160.934L81.9024 148.992C81.4547 148.437 81.006 148.042 80.2157 148.042H79.8731C78.9502 148.042 78.2375 148.78 78.2375 149.676V165.152L78.2385 165.153ZM99.5446 164.967C99.5446 165.89 100.257 166.602 101.18 166.602H106.427C112.226 166.602 116.234 162.569 116.234 157.375V157.322C116.234 152.129 112.226 148.149 106.427 148.149H101.18C100.257 148.149 99.5446 148.86 99.5446 149.782V164.967ZM102.787 163.65V151.101H106.427C110.302 151.101 112.833 153.763 112.833 157.375V157.427C112.833 161.04 110.302 163.65 106.427 163.65H102.787ZM137.117 166.919C140.095 166.919 142.073 165.969 143.813 164.44C144.103 164.176 144.34 163.78 144.34 163.28C144.34 162.463 143.63 161.776 142.812 161.776C142.416 161.776 142.074 161.935 141.836 162.147C140.492 163.28 139.173 163.913 137.223 163.913C133.69 163.913 131.133 160.986 131.133 157.375V157.322C131.133 153.71 133.717 150.81 137.223 150.81C138.989 150.81 140.359 151.443 141.626 152.471C141.836 152.629 142.153 152.788 142.601 152.788C143.497 152.788 144.209 152.103 144.209 151.206C144.209 150.626 143.919 150.178 143.577 149.915C141.968 148.676 140.096 147.833 137.249 147.833C131.661 147.833 127.733 152.13 127.733 157.376V157.428C127.733 162.728 131.74 166.92 137.119 166.92L137.117 166.919ZM148.482 165.125C148.482 166.022 149.195 166.734 150.118 166.734C151.014 166.734 151.726 166.022 151.726 165.125V158.825H160.532V165.125C160.532 166.022 161.244 166.734 162.141 166.734C163.064 166.734 163.774 166.022 163.774 165.125V149.624C163.774 148.728 163.064 148.016 162.141 148.016C161.244 148.016 160.532 148.727 160.532 149.624V155.82H151.726V149.624C151.726 148.728 151.014 148.016 150.118 148.016C149.195 148.016 148.482 148.727 148.482 149.624V165.125ZM167.732 165.231C167.732 166.075 168.392 166.734 169.235 166.734C169.92 166.734 170.474 166.364 170.738 165.705L172.294 162.147H181.258L182.761 165.6C183.05 166.286 183.578 166.734 184.342 166.734C185.212 166.734 185.871 166.048 185.871 165.178C185.871 164.967 185.818 164.731 185.686 164.493L178.832 149.202C178.461 148.384 177.83 147.884 176.907 147.884H176.749C175.826 147.884 175.168 148.384 174.799 149.202L167.944 164.493C167.811 164.757 167.733 164.994 167.733 165.231H167.732ZM173.533 159.272L176.775 151.811L180.018 159.272H173.533ZM189.855 165.152C189.855 166.047 190.541 166.733 191.436 166.733C192.333 166.733 193.045 166.047 193.045 165.152V154.106L197.527 160.828C197.87 161.355 198.291 161.671 198.871 161.671C199.477 161.671 199.899 161.354 200.242 160.828L204.75 154.053V165.125C204.75 165.996 205.488 166.734 206.359 166.734C207.282 166.734 207.993 166.022 207.993 165.125V149.677C207.993 148.781 207.282 148.043 206.359 148.043H206.016C205.358 148.043 204.883 148.333 204.54 148.886L198.924 157.666L193.335 148.913C193.018 148.413 192.544 148.043 191.832 148.043H191.489C190.567 148.043 189.855 148.781 189.855 149.677V165.153V165.152ZM213.216 165.124C213.216 166.021 213.929 166.733 214.851 166.733C215.748 166.733 216.46 166.021 216.46 165.124V160.669H220.124C224.184 160.669 227.505 158.507 227.505 154.368V154.315C227.505 150.598 224.816 148.147 220.493 148.147H214.851C213.929 148.147 213.216 148.858 213.216 149.78V165.123V165.124ZM216.459 157.743V151.1H220.229C222.654 151.1 224.211 152.233 224.211 154.395V154.448C224.211 156.372 222.681 157.742 220.229 157.742H216.459V157.743ZM231.49 165.124C231.49 166.021 232.201 166.733 233.124 166.733C234.02 166.733 234.732 166.021 234.732 165.124V149.623C234.732 148.727 234.021 148.015 233.124 148.015C232.201 148.015 231.49 148.726 231.49 149.623V165.124ZM248.947 166.918C254.615 166.918 258.622 162.568 258.622 157.374V157.321C258.622 152.128 254.668 147.832 248.999 147.832C243.33 147.832 239.324 152.182 239.324 157.375V157.427C239.324 162.621 243.278 166.919 248.947 166.919V166.918ZM248.999 163.913C245.334 163.913 242.725 160.961 242.725 157.375V157.322C242.725 153.737 245.282 150.81 248.947 150.81C252.611 150.81 255.221 153.79 255.221 157.375V157.427C255.221 161.013 252.664 163.914 248.999 163.914V163.913ZM263.028 165.152C263.028 166.022 263.741 166.733 264.637 166.733C265.507 166.733 266.218 166.021 266.218 165.152V153.446L275.71 165.732C276.157 166.312 276.633 166.707 277.396 166.707H277.529C278.424 166.707 279.11 165.996 279.11 165.099V149.597C279.11 148.726 278.399 148.015 277.501 148.015C276.632 148.015 275.92 148.726 275.92 149.597V160.933L266.692 148.991C266.245 148.436 265.796 148.041 265.006 148.041H264.663C263.74 148.041 263.027 148.779 263.027 149.675V165.151L263.028 165.152ZM290.794 166.865C294.67 166.865 297.384 164.809 297.384 161.354V161.302C297.384 158.243 295.38 156.846 291.479 155.897C287.919 155.053 287.076 154.42 287.076 152.997V152.945C287.076 151.731 288.182 150.756 290.081 150.756C291.531 150.756 292.902 151.23 294.326 152.152C294.59 152.31 294.853 152.39 295.169 152.39C296.013 152.39 296.698 151.73 296.698 150.887C296.698 150.255 296.355 149.806 295.986 149.595C294.325 148.488 292.453 147.881 290.134 147.881C286.469 147.881 283.832 150.069 283.832 153.232V153.285C283.832 156.686 286.047 157.846 289.976 158.795C293.403 159.585 294.141 160.298 294.141 161.615V161.668C294.141 163.039 292.875 163.988 290.871 163.988C288.868 163.988 287.233 163.303 285.704 162.09C285.493 161.932 285.203 161.8 284.754 161.8C283.91 161.8 283.225 162.46 283.225 163.303C283.225 163.83 283.489 164.278 283.858 164.541C285.914 166.071 288.287 166.862 290.793 166.862L290.794 166.865Z" fill="white"/>
<path d="M87.5065 186.454C87.5065 187.044 87.963 187.5 88.553 187.5H91.9106C95.6227 187.5 98.188 184.918 98.188 181.593V181.56C98.188 178.236 95.6227 175.688 91.9106 175.688H88.553C87.962 175.688 87.5065 176.143 87.5065 176.734V186.453V186.454ZM89.5829 185.61V177.578H91.9116C94.3916 177.578 96.0124 179.282 96.0124 181.593V181.628C96.0124 183.939 94.3916 185.61 91.9116 185.61H89.5829ZM102.055 187.5H109.006C109.513 187.5 109.935 187.094 109.935 186.571C109.935 186.065 109.513 185.643 109.006 185.643H103.083V182.471H108.163C108.668 182.471 109.09 182.066 109.09 181.56C109.09 181.037 108.668 180.614 108.163 180.614H103.083V177.544H108.922C109.427 177.544 109.849 177.138 109.849 176.615C109.849 176.109 109.427 175.687 108.922 175.687H102.054C101.463 175.687 101.008 176.142 101.008 176.733V186.452C101.008 187.042 101.464 187.498 102.054 187.498L102.055 187.5ZM112.62 186.554C112.62 187.128 113.075 187.583 113.666 187.583C114.24 187.583 114.695 187.128 114.695 186.554V182.691H119.791C120.314 182.691 120.736 182.269 120.736 181.745C120.736 181.222 120.314 180.8 119.791 180.8H114.695V177.577H120.551C121.074 177.577 121.496 177.155 121.496 176.631C121.496 176.109 121.074 175.688 120.551 175.688H113.666C113.075 175.688 112.62 176.143 112.62 176.734V186.554ZM124.112 186.554C124.112 187.128 124.569 187.583 125.159 187.583C125.732 187.583 126.188 187.128 126.188 186.554V176.632C126.188 176.059 125.731 175.604 125.159 175.604C124.568 175.604 124.112 176.06 124.112 176.632V186.554ZM129.649 186.571C129.649 187.128 130.105 187.584 130.678 187.584C131.235 187.584 131.691 187.129 131.691 186.571V179.079L137.765 186.943C138.051 187.314 138.356 187.567 138.845 187.567H138.929C139.503 187.567 139.941 187.113 139.941 186.538V176.617C139.941 176.06 139.487 175.605 138.912 175.605C138.356 175.605 137.9 176.061 137.9 176.617V183.872L131.995 176.229C131.708 175.875 131.421 175.621 130.915 175.621H130.695C130.104 175.621 129.649 176.093 129.649 176.668V186.572V186.571ZM143.403 186.554C143.403 187.128 143.859 187.583 144.45 187.583C145.023 187.583 145.478 187.128 145.478 186.554V176.632C145.478 176.059 145.022 175.604 144.45 175.604C143.859 175.604 143.403 176.06 143.403 176.632V186.554ZM148.939 186.571C148.939 187.128 149.395 187.584 149.969 187.584C150.526 187.584 150.981 187.129 150.981 186.571V179.079L157.054 186.943C157.341 187.314 157.645 187.567 158.134 187.567H158.218C158.792 187.567 159.231 187.113 159.231 186.538V176.617C159.231 176.06 158.776 175.605 158.202 175.605C157.645 175.605 157.19 176.061 157.19 176.617V183.872L151.285 176.229C150.997 175.875 150.71 175.621 150.205 175.621H149.985C149.394 175.621 148.938 176.093 148.938 176.668V186.572L148.939 186.571ZM168.178 187.702C169.95 187.702 171.366 187.094 172.379 186.42C172.868 186.116 173.104 185.694 173.104 185.104V181.949C173.104 181.358 172.65 180.903 172.059 180.903H168.769C168.262 180.903 167.84 181.309 167.84 181.814C167.84 182.32 168.262 182.709 168.769 182.709H171.097V184.92C170.372 185.459 169.36 185.814 168.245 185.814C165.833 185.814 164.23 184.025 164.23 181.595V181.562C164.23 179.301 165.884 177.393 168.061 177.393C169.343 177.393 170.17 177.764 170.93 178.322C171.098 178.44 171.301 178.558 171.571 178.558C172.144 178.558 172.6 178.085 172.6 177.528C172.6 177.124 172.38 176.837 172.177 176.684C171.097 175.909 169.916 175.487 168.144 175.487C164.584 175.487 162.054 178.288 162.054 181.595V181.63C162.054 185.072 164.483 187.704 168.179 187.704L168.178 187.702ZM182.219 187.5H189.171C189.677 187.5 190.099 187.094 190.099 186.571C190.099 186.065 189.677 185.643 189.171 185.643H183.248V182.471H188.327C188.833 182.471 189.255 182.066 189.255 181.56C189.255 181.037 188.833 180.614 188.327 180.614H183.248V177.544H189.086C189.592 177.544 190.014 177.138 190.014 176.615C190.014 176.109 189.592 175.687 189.086 175.687H182.219C181.628 175.687 181.172 176.142 181.172 176.733V186.452C181.172 187.042 181.628 187.498 182.219 187.498V187.5ZM192.176 186.622C192.176 187.213 192.648 187.584 193.121 187.584C193.578 187.584 193.847 187.382 194.134 187.011L197.255 182.944L200.427 187.078C200.679 187.416 200.933 187.584 201.372 187.584C201.963 187.584 202.401 187.146 202.401 186.571C202.401 186.267 202.25 186.014 202.081 185.796L198.605 181.46L201.912 177.342C202.114 177.089 202.232 176.853 202.232 176.55C202.232 175.976 201.743 175.605 201.289 175.605C200.832 175.605 200.545 175.808 200.276 176.179L197.322 180.042L194.336 176.111C194.083 175.773 193.83 175.605 193.392 175.605C192.801 175.605 192.362 176.044 192.362 176.617C192.362 176.903 192.515 177.173 192.683 177.392L195.99 181.493L192.48 185.845C192.295 186.1 192.177 186.336 192.177 186.622H192.176ZM210.065 187.702C211.971 187.702 213.237 187.094 214.351 186.116C214.536 185.947 214.688 185.694 214.688 185.373C214.688 184.851 214.233 184.411 213.71 184.411C213.457 184.411 213.237 184.513 213.085 184.648C212.224 185.373 211.381 185.778 210.132 185.778C207.871 185.778 206.235 183.905 206.235 181.593V181.56C206.235 179.248 207.889 177.391 210.132 177.391C211.262 177.391 212.141 177.797 212.95 178.455C213.085 178.556 213.288 178.657 213.574 178.657C214.148 178.657 214.603 178.219 214.603 177.645C214.603 177.274 214.418 176.987 214.198 176.817C213.169 176.025 211.97 175.484 210.148 175.484C206.571 175.484 204.058 178.235 204.058 181.592V181.627C204.058 185.019 206.623 187.701 210.065 187.701V187.702ZM218.385 187.5H225.336C225.842 187.5 226.265 187.094 226.265 186.571C226.265 186.065 225.842 185.643 225.336 185.643H219.413V182.471H224.492C224.998 182.471 225.42 182.066 225.42 181.56C225.42 181.037 224.998 180.614 224.492 180.614H219.413V177.544H225.251C225.757 177.544 226.179 177.138 226.179 176.615C226.179 176.109 225.757 175.687 225.251 175.687H218.384C217.793 175.687 217.337 176.142 217.337 176.733V186.452C217.337 187.042 217.794 187.498 218.384 187.498L218.385 187.5ZM228.95 186.454C228.95 187.044 229.405 187.5 229.996 187.5H236.374C236.897 187.5 237.319 187.077 237.319 186.554C237.319 186.031 236.897 185.609 236.374 185.609H231.025V176.632C231.025 176.059 230.569 175.604 229.996 175.604C229.405 175.604 228.95 176.06 228.95 176.632V186.454ZM239.701 186.454C239.701 187.044 240.157 187.5 240.747 187.5H247.125C247.648 187.5 248.07 187.077 248.07 186.554C248.07 186.031 247.648 185.609 247.125 185.609H241.777V176.632C241.777 176.059 241.321 175.604 240.748 175.604C240.157 175.604 239.702 176.06 239.702 176.632V186.454H239.701ZM251.499 187.5H258.451C258.957 187.5 259.379 187.094 259.379 186.571C259.379 186.065 258.957 185.643 258.451 185.643H252.528V182.471H257.607C258.113 182.471 258.535 182.066 258.535 181.56C258.535 181.037 258.113 180.614 257.607 180.614H252.528V177.544H258.366C258.872 177.544 259.294 177.138 259.294 176.615C259.294 176.109 258.872 175.687 258.366 175.687H251.499C250.909 175.687 250.452 176.142 250.452 176.733V186.452C250.452 187.042 250.909 187.498 251.499 187.498V187.5ZM262.063 186.571C262.063 187.128 262.519 187.584 263.093 187.584C263.65 187.584 264.106 187.129 264.106 186.571V179.079L270.179 186.943C270.465 187.314 270.77 187.567 271.259 187.567H271.342C271.916 187.567 272.355 187.113 272.355 186.538V176.617C272.355 176.06 271.901 175.605 271.326 175.605C270.77 175.605 270.313 176.061 270.313 176.617V183.872L264.408 176.229C264.121 175.875 263.834 175.621 263.328 175.621H263.108C262.517 175.621 262.062 176.093 262.062 176.668V186.572L262.063 186.571ZM281.183 187.702C283.09 187.702 284.355 187.094 285.47 186.116C285.655 185.947 285.806 185.694 285.806 185.373C285.806 184.851 285.352 184.411 284.828 184.411C284.575 184.411 284.355 184.513 284.204 184.648C283.343 185.373 282.499 185.778 281.251 185.778C278.99 185.778 277.353 183.905 277.353 181.593V181.56C277.353 179.248 279.008 177.391 281.251 177.391C282.381 177.391 283.26 177.797 284.069 178.455C284.204 178.556 284.406 178.657 284.693 178.657C285.266 178.657 285.722 178.219 285.722 177.645C285.722 177.274 285.536 176.987 285.316 176.817C284.288 176.025 283.089 175.484 281.267 175.484C277.69 175.484 275.177 178.235 275.177 181.592V181.627C275.177 185.019 277.742 187.701 281.183 187.701V187.702ZM289.504 187.5H296.456C296.962 187.5 297.384 187.094 297.384 186.571C297.384 186.065 296.962 185.643 296.456 185.643H290.533V182.471H295.612C296.118 182.471 296.54 182.066 296.54 181.56C296.54 181.037 296.118 180.614 295.612 180.614H290.533V177.544H296.371C296.877 177.544 297.299 177.138 297.299 176.615C297.299 176.109 296.877 175.687 296.371 175.687H289.504C288.913 175.687 288.457 176.142 288.457 176.733V186.452C288.457 187.042 288.913 187.498 289.504 187.498V187.5Z" fill="white"/>
<path fill-rule="evenodd" clip-rule="evenodd" d="M293.506 198.025H4.41006C2.27669 198.025 0.532104 199.769 0.532104 201.902V218.917C0.532104 221.05 2.27669 222.795 4.41006 222.795H293.506C295.64 222.795 297.384 221.05 297.384 218.917V201.902C297.384 199.769 295.64 198.025 293.506 198.025ZM9.62124 214.659C9.62124 215.174 10.0218 215.489 10.5647 215.489H16.2422C16.6713 215.489 17.0149 215.145 17.0149 214.717C17.0149 214.288 16.6713 213.944 16.2422 213.944H12.1807L14.2404 212.229C16.0135 210.784 16.8441 209.925 16.8441 208.353V208.324C16.8441 206.536 15.5 205.335 13.5394 205.335C11.9657 205.335 11.036 205.936 10.2201 206.951C10.0915 207.108 10.0208 207.31 10.0208 207.495C10.0208 207.94 10.3782 208.296 10.8219 208.296C11.1076 208.296 11.3069 208.168 11.4365 208.024C12.0521 207.281 12.6097 206.909 13.4108 206.909C14.3258 206.909 15.0268 207.48 15.0268 208.467C15.0268 209.368 14.5251 210.012 13.1526 211.171L10.0778 213.787C9.77832 214.031 9.62124 214.316 9.62124 214.66V214.659ZM23.2491 215.659C25.8802 215.659 27.6248 213.343 27.6248 210.483V210.453C27.6248 207.593 25.8939 205.304 23.2775 205.304C20.6454 205.304 18.8999 207.621 18.8999 210.483V210.511C18.8999 213.371 20.616 215.659 23.2491 215.659ZM23.2775 214.072C21.7175 214.072 20.7171 212.456 20.7171 210.483V210.453C20.7171 208.465 21.7038 206.892 23.2491 206.892C24.7934 206.892 25.8095 208.508 25.8095 210.483V210.511C25.8095 212.47 24.8366 214.072 23.2775 214.072ZM159.681 214.73C159.681 215.202 160.054 215.56 160.525 215.56C160.997 215.56 161.369 215.202 161.369 214.73V213.242H162.141C162.556 213.242 162.871 212.928 162.871 212.528C162.871 212.127 162.557 211.798 162.141 211.798H161.369V206.177C161.369 205.705 160.982 205.333 160.51 205.333C159.995 205.333 159.752 205.534 159.437 205.905L154.731 211.484C154.474 211.784 154.345 212.07 154.345 212.414C154.345 212.901 154.731 213.243 155.204 213.243H159.68V214.731L159.681 214.73ZM156.391 211.797L159.681 207.836V211.797H156.391ZM169.019 215.658C171.65 215.658 173.395 213.342 173.395 210.482V210.452C173.395 207.592 171.664 205.303 169.046 205.303C166.414 205.303 164.669 207.62 164.669 210.482V210.51C164.669 213.37 166.385 215.658 169.018 215.658H169.019ZM169.047 214.071C167.487 214.071 166.487 212.455 166.487 210.482V210.452C166.487 208.464 167.474 206.891 169.019 206.891C170.562 206.891 171.578 208.507 171.578 210.482V210.51C171.578 212.469 170.606 214.071 169.046 214.071H169.047ZM30.626 207.934C30.626 208.177 30.8263 208.37 31.0688 208.37C31.3123 208.37 31.5135 208.177 31.5135 207.934V204.142H32.7358C32.9577 204.142 33.1364 203.957 33.1364 203.735C33.1364 203.514 32.9587 203.328 32.7358 203.328H29.4096C29.1809 203.328 29.0022 203.514 29.0022 203.735C29.0022 203.957 29.1799 204.142 29.4096 204.142H30.626V207.934ZM34.342 207.934C34.342 208.177 34.5344 208.37 34.7847 208.37C35.0282 208.37 35.2216 208.177 35.2216 207.934V206.225H37.6103V207.934C37.6103 208.177 37.8027 208.37 38.0462 208.37C38.2965 208.37 38.4889 208.177 38.4889 207.934V203.728C38.4889 203.485 38.2965 203.292 38.0462 203.292C37.8027 203.292 37.6103 203.485 37.6103 203.728V205.409H35.2216V203.728C35.2216 203.485 35.0282 203.292 34.7847 203.292C34.5344 203.292 34.342 203.485 34.342 203.728V207.934ZM176.396 207.934C176.396 208.177 176.596 208.37 176.84 208.37C177.083 208.37 177.284 208.177 177.284 207.934V204.142H178.507C178.729 204.142 178.907 203.957 178.907 203.735C178.907 203.514 178.729 203.328 178.507 203.328H175.18C174.951 203.328 174.773 203.514 174.773 203.735C174.773 203.957 174.952 204.142 175.18 204.142H176.396V207.934ZM180.112 207.934C180.112 208.177 180.304 208.37 180.555 208.37C180.798 208.37 180.991 208.177 180.991 207.934V206.225H183.381V207.934C183.381 208.177 183.573 208.37 183.817 208.37C184.068 208.37 184.261 208.177 184.261 207.934V203.728C184.261 203.485 184.068 203.292 183.817 203.292C183.573 203.292 183.381 203.485 183.381 203.728V205.409H180.991V203.728C180.991 203.485 180.798 203.292 180.555 203.292C180.304 203.292 180.112 203.485 180.112 203.728V207.934ZM45.1237 214.686C45.1237 215.173 45.5105 215.559 46.0112 215.559C46.4981 215.559 46.884 215.172 46.884 214.686V206.276C46.884 205.789 46.4971 205.404 46.0112 205.404C45.5105 205.404 45.1237 205.789 45.1237 206.276V214.686ZM49.9687 214.686C49.9687 215.173 50.3555 215.559 50.8562 215.559C51.3431 215.559 51.7299 215.172 51.7299 214.686V206.276C51.7299 205.789 51.3431 205.404 50.8562 205.404C50.3555 205.404 49.9687 205.789 49.9687 206.276V214.686ZM54.7145 214.686C54.7145 215.173 55.1013 215.559 55.6 215.559C56.087 215.559 56.4738 215.172 56.4738 214.686V212.612L58.1045 211.039L61.3227 215.143C61.5083 215.386 61.7233 215.559 62.0669 215.559C62.5666 215.559 62.9534 215.187 62.9534 214.7C62.9534 214.428 62.8543 214.257 62.7099 214.071L59.3346 209.88L62.4537 206.877C62.653 206.69 62.7679 206.491 62.7679 206.219C62.7679 205.789 62.438 205.404 61.953 205.404C61.6379 205.404 61.4238 205.517 61.2226 205.733L56.4748 210.51V206.276C56.4748 205.789 56.088 205.404 55.601 205.404C55.1013 205.404 54.7155 205.789 54.7155 206.276V214.686H54.7145ZM69.5145 214.6C69.5145 215.102 69.9013 215.487 70.4001 215.487H74.1475C76.379 215.487 77.8526 214.528 77.8526 212.74V212.711C77.8526 211.352 77.0368 210.68 75.8636 210.28C76.6087 209.894 77.295 209.25 77.295 208.049V208.02C77.295 207.349 77.0652 206.805 76.6225 206.362C76.0511 205.789 75.1488 205.475 74.0041 205.475H70.3991C69.8994 205.475 69.5135 205.861 69.5135 206.362V214.6H69.5145ZM71.2454 209.695V207.035H73.7764C74.9064 207.035 75.5357 207.52 75.5357 208.307V208.335C75.5357 209.251 74.7777 209.695 73.6477 209.695H71.2454ZM71.2454 213.929V211.183H74.0336C75.4218 211.183 76.0943 211.684 76.0943 212.528V212.556C76.0943 213.457 75.3639 213.929 74.1622 213.929H71.2454ZM80.1519 214.686C80.1519 215.173 80.5377 215.559 81.0384 215.559C81.5254 215.559 81.9112 215.172 81.9112 214.686V211.267H86.6894V214.686C86.6894 215.173 87.0743 215.559 87.5612 215.559C88.0629 215.559 88.4488 215.172 88.4488 214.686V206.276C88.4488 205.789 88.0629 205.404 87.5612 205.404C87.0743 205.404 86.6894 205.789 86.6894 206.276V209.637H81.9112V206.276C81.9112 205.789 81.5254 205.404 81.0384 205.404C80.5387 205.404 80.1519 205.789 80.1519 206.276V214.686ZM90.645 214.743C90.645 215.202 91.0033 215.56 91.4618 215.56C91.8329 215.56 92.1333 215.36 92.2766 215.002L93.12 213.071H97.9826L98.7975 214.944C98.9556 215.316 99.2422 215.559 99.6565 215.559C100.128 215.559 100.486 215.187 100.486 214.715C100.486 214.6 100.458 214.471 100.386 214.343L96.6681 206.047C96.4678 205.604 96.1232 205.332 95.6235 205.332H95.5371C95.0364 205.332 94.679 205.604 94.4787 206.047L90.7598 214.343C90.6891 214.486 90.645 214.615 90.645 214.743ZM93.7925 211.51L95.5518 207.463L97.3111 211.51H93.7925ZM102.701 214.686C102.701 215.173 103.088 215.559 103.587 215.559C104.073 215.559 104.46 215.172 104.46 214.686V212.612L106.09 211.039L109.308 215.143C109.494 215.386 109.709 215.559 110.052 215.559C110.552 215.559 110.939 215.187 110.939 214.7C110.939 214.428 110.84 214.257 110.695 214.071L107.32 209.88L110.439 206.877C110.639 206.69 110.753 206.491 110.753 206.219C110.753 205.789 110.424 205.404 109.939 205.404C109.623 205.404 109.409 205.517 109.208 205.733L104.46 210.51V206.276C104.46 205.789 104.073 205.404 103.587 205.404C103.087 205.404 102.701 205.789 102.701 206.276V214.686ZM115.527 214.686C115.527 215.173 115.927 215.559 116.413 215.559C116.899 215.559 117.3 215.172 117.3 214.686V207.105H119.746C120.189 207.105 120.547 206.734 120.547 206.29C120.547 205.848 120.189 205.476 119.746 205.476H113.095C112.636 205.476 112.28 205.849 112.28 206.29C112.28 206.735 112.636 207.105 113.095 207.105H115.527V214.686ZM120.814 214.743C120.814 215.202 121.173 215.56 121.631 215.56C122.002 215.56 122.304 215.36 122.446 215.002L123.289 213.071H128.152L128.967 214.944C129.126 215.316 129.412 215.559 129.826 215.559C130.298 215.559 130.656 215.187 130.656 214.715C130.656 214.6 130.627 214.471 130.555 214.343L126.838 206.047C126.636 205.604 126.293 205.332 125.793 205.332H125.707C125.206 205.332 124.849 205.604 124.648 206.047L120.929 214.343C120.859 214.486 120.814 214.615 120.814 214.743ZM123.962 211.51L125.721 207.463L127.481 211.51H123.962ZM141.838 216.703C141.838 217.09 142.152 217.389 142.524 217.389C142.911 217.389 143.224 217.089 143.224 216.703V204.688C143.224 204.302 142.91 204.002 142.524 204.002C142.152 204.002 141.838 204.302 141.838 204.688V216.703ZM194.297 215.63C196.4 215.63 197.874 214.515 197.874 212.64V212.611C197.874 210.953 196.786 210.194 194.669 209.68C192.737 209.221 192.28 208.878 192.28 208.106V208.077C192.28 207.419 192.88 206.889 193.91 206.889C194.697 206.889 195.441 207.148 196.213 207.646C196.356 207.733 196.499 207.775 196.671 207.775C197.128 207.775 197.501 207.419 197.501 206.96C197.501 206.617 197.314 206.374 197.114 206.26C196.213 205.658 195.198 205.33 193.938 205.33C191.95 205.33 190.519 206.517 190.519 208.233V208.262C190.519 210.108 191.721 210.736 193.853 211.251C195.712 211.681 196.112 212.066 196.112 212.783V212.811C196.112 213.555 195.425 214.07 194.338 214.07C193.252 214.07 192.364 213.699 191.535 213.04C191.42 212.954 191.263 212.883 191.019 212.883C190.562 212.883 190.19 213.239 190.19 213.698C190.19 213.985 190.333 214.227 190.533 214.37C191.648 215.2 192.937 215.628 194.295 215.628L194.297 215.63ZM200.258 214.7C200.258 215.187 200.629 215.559 201.116 215.559C201.602 215.559 201.988 215.187 201.988 214.7V208.708L204.42 212.356C204.606 212.641 204.835 212.812 205.149 212.812C205.479 212.812 205.706 212.641 205.893 212.356L208.338 208.679V214.686C208.338 215.16 208.739 215.559 209.211 215.559C209.711 215.559 210.098 215.172 210.098 214.686V206.304C210.098 205.819 209.711 205.419 209.211 205.419H209.025C208.668 205.419 208.41 205.576 208.224 205.876L205.177 210.64L202.145 205.89C201.974 205.618 201.716 205.419 201.331 205.419H201.144C200.644 205.419 200.258 205.819 200.258 206.304V214.701V214.7ZM212.984 214.686C212.984 215.173 213.371 215.559 213.871 215.559C214.357 215.559 214.743 215.172 214.743 214.686V212.612L216.374 211.039L219.592 215.143C219.778 215.386 219.993 215.559 220.337 215.559C220.836 215.559 221.223 215.187 221.223 214.7C221.223 214.428 221.124 214.257 220.98 214.071L217.604 209.88L220.723 206.877C220.924 206.69 221.037 206.491 221.037 206.219C221.037 205.789 220.708 205.404 220.223 205.404C219.907 205.404 219.693 205.517 219.492 205.733L214.744 210.51V206.276C214.744 205.789 214.358 205.404 213.872 205.404C213.372 205.404 212.985 205.789 212.985 206.276V214.686H212.984ZM227.784 214.6C227.784 215.102 228.171 215.487 228.67 215.487H232.418C234.65 215.487 236.123 214.528 236.123 212.74V212.711C236.123 211.352 235.308 210.68 234.135 210.28C234.879 209.894 235.566 209.25 235.566 208.049V208.02C235.566 207.349 235.336 206.805 234.894 206.362C234.322 205.789 233.42 205.475 232.276 205.475H228.671C228.171 205.475 227.785 205.861 227.785 206.362V214.6H227.784ZM229.515 209.695V207.035H232.047C233.176 207.035 233.806 207.52 233.806 208.307V208.335C233.806 209.251 233.047 209.695 231.918 209.695H229.515ZM229.515 213.929V211.183H232.303C233.691 211.183 234.364 211.684 234.364 212.528V212.556C234.364 213.457 233.633 213.929 232.432 213.929H229.515ZM238.422 214.686C238.422 215.173 238.808 215.559 239.307 215.559C239.794 215.559 240.181 215.172 240.181 214.686V211.267H244.958V214.686C244.958 215.173 245.343 215.559 245.83 215.559C246.331 215.559 246.716 215.172 246.716 214.686V206.276C246.716 205.789 246.33 205.404 245.83 205.404C245.343 205.404 244.958 205.789 244.958 206.276V209.637H240.181V206.276C240.181 205.789 239.794 205.404 239.307 205.404C238.807 205.404 238.422 205.789 238.422 206.276V214.686ZM248.915 214.743C248.915 215.202 249.272 215.56 249.731 215.56C250.102 215.56 250.403 215.36 250.546 215.002L251.39 213.071H256.252L257.067 214.944C257.225 215.316 257.512 215.559 257.926 215.559C258.397 215.559 258.756 215.187 258.756 214.715C258.756 214.6 258.727 214.471 258.656 214.343L254.938 206.047C254.736 205.604 254.393 205.332 253.893 205.332H253.807C253.305 205.332 252.949 205.604 252.748 206.047L249.029 214.343C248.959 214.486 248.915 214.615 248.915 214.743ZM252.061 211.51L253.82 207.463L255.58 211.51H252.061ZM260.97 214.686C260.97 215.173 261.356 215.559 261.856 215.559C262.342 215.559 262.729 215.172 262.729 214.686V212.612L264.36 211.039L267.578 215.143C267.763 215.386 267.978 215.559 268.322 215.559C268.822 215.559 269.209 215.187 269.209 214.7C269.209 214.428 269.109 214.257 268.965 214.071L265.59 209.88L268.709 206.877C268.909 206.69 269.023 206.491 269.023 206.219C269.023 205.789 268.693 205.404 268.208 205.404C267.893 205.404 267.678 205.517 267.478 205.733L262.73 210.51V206.276C262.73 205.789 262.343 205.404 261.857 205.404C261.357 205.404 260.971 205.789 260.971 206.276V214.686H260.97ZM273.795 214.686C273.795 215.173 274.197 215.559 274.683 215.559C275.168 215.559 275.569 215.172 275.569 214.686V207.105H278.016C278.459 207.105 278.817 206.734 278.817 206.29C278.817 205.848 278.459 205.476 278.016 205.476H271.365C270.906 205.476 270.55 205.849 270.55 206.29C270.55 206.735 270.906 207.105 271.365 207.105H273.795V214.686ZM279.084 214.743C279.084 215.202 279.441 215.56 279.9 215.56C280.271 215.56 280.572 215.36 280.715 215.002L281.558 213.071H286.421L287.237 214.944C287.395 215.316 287.681 215.559 288.096 215.559C288.567 215.559 288.925 215.187 288.925 214.715C288.925 214.6 288.897 214.471 288.825 214.343L285.107 206.047C284.907 205.604 284.562 205.332 284.063 205.332H283.976C283.475 205.332 283.118 205.604 282.918 206.047L279.198 214.343C279.127 214.486 279.084 214.615 279.084 214.743ZM282.231 211.51L283.99 207.463L285.749 211.51H282.231Z" fill="white"/>
<path fill-rule="evenodd" clip-rule="evenodd" d="M0.427124 67.7749C0.427124 77.7221 6.58767 84.0525 14.3308 84.0525C18.9657 84.0525 22.2998 81.9613 24.0522 79.0779V83.5999H33.7167V41.7759H31.1759H28.6714C25.786 41.7955 24.1278 43.6874 24.0522 46.6552V56.4149C22.1309 53.5325 18.5141 51.6112 14.3308 51.6112C6.58865 51.6112 0.427124 57.8277 0.427124 67.7759V67.7749ZM24.0522 67.8318C24.0522 72.8614 20.8301 75.6309 17.1573 75.6309C13.5395 75.6309 10.2614 72.8054 10.2614 67.7759C10.2614 62.7453 13.5395 60.0327 17.1573 60.0327C20.8301 60.0327 24.0522 62.8013 24.0522 67.8328V67.8318ZM36.0464 83.5999H45.7108V52.0628H40.6498C37.7164 52.0893 36.0572 54.0587 36.0464 57.1257V83.5999ZM40.9071 48.7847C44.2981 48.7847 46.615 46.4668 46.615 43.5853C46.615 40.6459 44.2981 38.3289 40.9071 38.3289C37.4591 38.3289 35.1422 40.6469 35.1422 43.5853C35.1422 46.4668 37.4601 48.7847 40.9071 48.7847ZM63.7909 59.3533C67.014 59.3533 69.7266 61.3316 69.7266 64.7795H57.6314C58.1968 61.2756 60.6267 59.3533 63.7909 59.3533ZM78.8816 73.1441H68.5947C67.8044 74.8396 66.2787 76.1964 63.5651 76.1964C60.4559 76.1964 57.9131 74.2751 57.5744 70.1498H79.4471C79.56 69.1876 79.6169 68.2275 79.6169 67.3233C79.6169 57.7148 73.1176 51.6112 63.9048 51.6112C54.5221 51.6112 47.9659 57.8277 47.9659 67.8318C47.9659 77.835 54.635 84.0525 63.9048 84.0525C71.7599 84.0525 77.3559 79.3047 78.8816 73.1441ZM108.705 74.444C108.594 62.6894 91.4667 66.2492 91.4667 61.2177C91.4667 59.693 92.7106 58.7888 94.9716 58.7888C97.6842 58.7888 99.3228 60.2016 99.6065 62.3497H108.537C107.914 56.1322 103.392 51.6112 95.2544 51.6112C87.0027 51.6112 82.4247 56.0193 82.4247 61.3885C82.4247 72.9743 99.6075 69.2996 99.6075 74.388C99.6075 75.8018 98.3067 76.9308 95.8199 76.9308C93.1642 76.9308 91.185 75.4611 90.9592 73.257H81.4076C81.8602 79.3616 87.5122 84.0525 95.9328 84.0525C103.846 84.0525 108.758 79.9222 108.706 74.444H108.705ZM142.779 83.5999H152.388V65.1742C152.388 56.6977 147.527 51.7241 140.237 51.7241C135.998 51.7241 132.607 53.5884 130.685 56.2451V52.0628H125.606C122.721 52.0962 121.073 54.0116 121.02 57.005V83.5999H130.684V66.475C130.684 62.1798 133.058 59.8059 136.733 59.8059C140.406 59.8059 142.779 62.1847 142.779 66.475V83.5999ZM154.36 67.7749C154.36 77.7221 160.52 84.0525 168.207 84.0525C172.898 84.0525 176.233 81.9044 177.984 79.1358V83.5999H187.649V52.0628H182.556C179.844 52.0883 178.222 53.772 177.984 56.4513V56.5278C176.289 53.7573 172.955 51.6112 168.263 51.6112C160.52 51.6112 154.359 57.8277 154.359 67.7759L154.36 67.7749ZM177.984 67.8318C177.984 72.8614 174.763 75.6309 171.089 75.6309C167.472 75.6309 164.194 72.8054 164.194 67.7759C164.194 62.7453 167.472 60.0327 171.089 60.0327C174.763 60.0327 177.984 62.8013 177.984 67.8328V67.8318ZM193.352 72.6346C193.352 80.8176 197.929 83.5999 204.486 83.5999H209.404V75.4051H205.955C203.814 75.4051 203.016 74.6138 203.016 72.7495V60.0887H209.346V52.0628H203.016V44.3766H197.935C195.077 44.409 193.432 46.292 193.352 49.2383V52.0628H189.508V60.0887H193.352V72.6356V72.6346ZM210.634 67.7749C210.634 77.7221 216.794 84.0525 224.481 84.0525C229.171 84.0525 232.506 81.9044 234.258 79.1358V83.5999H243.922V52.0628H238.828C236.125 52.0883 234.504 53.7622 234.258 56.4247V56.5278C232.562 53.7573 229.228 51.6112 224.537 51.6112C216.794 51.6112 210.633 57.8277 210.633 67.7759L210.634 67.7749ZM234.258 67.8318C234.258 72.8614 231.037 75.6309 227.363 75.6309C223.745 75.6309 220.467 72.8054 220.467 67.7759C220.467 62.7453 223.745 60.0327 227.363 60.0327C231.036 60.0327 234.258 62.8013 234.258 67.8328V67.8318ZM246.252 83.5999H255.917V41.7759H250.819C247.951 41.8171 246.311 43.7247 246.251 46.7024V83.5999H246.252ZM258.246 83.5999H267.911V52.0628H262.667C260.039 52.1492 258.471 53.8319 258.246 56.4748V83.6009V83.5999ZM263.107 48.7847C266.498 48.7847 268.815 46.4668 268.815 43.5853C268.815 40.6459 266.497 38.3289 263.107 38.3289C259.66 38.3289 257.342 40.6469 257.342 43.5853C257.342 46.4668 259.66 48.7847 263.107 48.7847ZM297.383 74.445C297.283 62.6953 280.144 66.2502 280.144 61.2187C280.144 59.694 281.388 58.7898 283.648 58.7898C286.362 58.7898 288.001 60.2026 288.283 62.3507H297.213C296.591 56.1332 292.07 51.6122 283.932 51.6122C275.68 51.6122 271.102 56.0203 271.102 61.3895C271.102 72.9753 288.284 69.3005 288.284 74.389C288.284 75.8027 286.984 76.9318 284.497 76.9318C281.841 76.9318 279.863 75.4621 279.637 73.258H270.085C270.537 79.3626 276.189 84.0534 284.61 84.0534C292.521 84.0534 297.431 79.9124 297.384 74.445H297.383ZM12.0139 107.018V92.2669H6.78991C3.98601 92.3631 2.39163 94.2765 2.35137 97.2385V134.092H12.0148V129.683C13.7683 132.453 17.1023 134.543 21.7362 134.543C29.4794 134.543 35.6409 128.213 35.6409 118.266C35.6409 108.319 29.5363 102.101 21.7362 102.101C17.2152 102.101 13.7683 104.193 12.0148 107.019L12.0139 107.018ZM25.8046 118.265C25.8046 123.294 22.5266 126.121 18.8538 126.121C15.236 126.121 11.9579 123.35 11.9579 118.321C11.9579 113.291 15.236 110.521 18.8538 110.521C22.5266 110.521 25.8046 113.234 25.8046 118.264V118.265ZM37.5868 134.091H47.2512V116.966C47.2512 112.67 49.6251 110.296 53.2988 110.296C56.9716 110.296 59.3455 112.672 59.3455 116.966V134.091H68.954V115.665C68.954 107.187 64.1502 102.213 56.9716 102.213C52.6204 102.213 49.1715 104.078 47.2502 106.791V92.2659H42.0243C39.2214 92.3621 37.626 94.2755 37.5858 97.2375V134.091H37.5868ZM70.9264 118.265C70.9264 128.211 77.0869 134.542 84.7731 134.542C89.464 134.542 92.799 132.395 94.5514 129.626V134.091H104.215V102.554H99.0538C96.3736 102.608 94.7743 104.3 94.5514 106.978V107.019C92.855 104.25 89.5199 102.101 84.8291 102.101C77.0869 102.101 70.9254 108.319 70.9254 118.266L70.9264 118.265ZM94.5524 118.321C94.5524 123.351 91.3303 126.121 87.6565 126.121C84.0397 126.121 80.7606 123.294 80.7606 118.265C80.7606 113.234 84.0397 110.522 87.6565 110.522C91.3303 110.522 94.5524 113.292 94.5524 118.322V118.321ZM106.547 134.09H116.21V120.864L125.819 134.09H137.801L124.576 118.377L137.688 102.552H125.763L116.211 115.381V92.2649H110.982C108.237 92.3582 106.65 94.197 106.548 97.0539V134.09H106.547ZM143.252 123.125C143.252 131.309 147.83 134.09 154.386 134.09H159.303V125.893H155.855C153.712 125.893 152.916 125.103 152.916 123.237V110.578H159.247V102.552H152.916V94.8646H147.816C144.976 94.9058 143.34 96.7751 143.251 99.7037V102.552H139.407V110.578H143.251V123.125H143.252ZM160.534 118.264C160.534 128.21 166.694 134.541 174.38 134.541C179.071 134.541 182.406 132.394 184.159 129.625V134.09H193.822V102.553H188.66C185.983 102.607 184.384 104.297 184.159 106.969V107.017C182.462 104.248 179.128 102.099 174.436 102.099C166.694 102.099 160.533 108.317 160.533 118.264H160.534ZM184.159 118.32C184.159 123.35 180.938 126.12 177.263 126.12C173.646 126.12 170.367 123.293 170.367 118.264C170.367 113.233 173.646 110.521 177.263 110.521C180.938 110.521 184.159 113.291 184.159 118.321V118.32Z" fill="white"/>
<path fill-rule="evenodd" clip-rule="evenodd" d="M468.461 24.6668C471.759 20.9577 475.209 24.7698 475.312 25.6966C475.416 26.6234 479.021 16.0646 492.105 16.9914C506.426 18.0055 506.298 35.2953 492.929 37.7497C492.929 37.7497 498.287 38.3172 497.565 43.0561C496.845 47.7951 493.702 48.7209 489.685 48.3606C485.667 48.0003 469.338 44.7546 460.322 55.2643C460.322 55.2643 465.422 46.3008 465.938 41.0975C466.452 35.8961 465.163 28.3749 468.461 24.6668ZM435.516 61.1735L413.806 85.1344C413.806 85.1344 422.279 68.7115 422.884 55.7493C423.489 42.7871 415.564 38.8247 415.564 38.8247C415.564 38.8247 406.706 31.7374 399.012 47.6832C391.319 63.6299 397.082 88.9524 397.082 88.9524C397.082 88.9524 381.43 70.7624 376.213 65.2272C370.997 59.692 366.342 51.0555 370.22 43.8297C374.097 36.602 381.758 43.4989 381.758 43.4989C381.691 25.1459 408.254 -6.83499 423.835 1.29987C438.509 8.96153 431.7 37.9853 431.7 37.9853C431.7 37.9853 438.912 31.6481 443.29 31.6481C447.667 31.6481 449.721 36.3546 448.381 42.6811C447.041 49.0056 435.517 61.1735 435.517 61.1735H435.516ZM466.698 69.9956C476.538 72.2252 477.623 79.5835 474.724 83.2298C474.724 83.2298 486.135 83.7197 499.584 96.3235C505.863 102.207 508.486 110.965 508.274 118.614C507.617 142.331 487.584 135.084 473.468 126.171C477.544 137.171 464.741 139.869 459.696 136.523C454.702 133.207 452.649 120.993 430.964 113.559C455.578 114.55 465.213 120.306 465.213 120.306C465.213 120.306 475.679 124.343 481.907 118.512C488.135 112.682 480.611 103.453 480.611 103.453C480.611 103.453 471.021 86.2654 427.781 96.7005C436.807 87.5377 452.425 66.7627 466.698 69.9966V69.9956ZM340.904 81.9299C352.177 76.918 364.873 84.9095 364.873 84.9095L388.69 101.033C388.69 101.033 380.651 98.9409 370.527 99.8372C360.404 100.733 354.136 106.807 354.409 112.101C354.683 117.397 361.495 121.056 372.008 119.771C382.521 118.486 389.154 114.422 389.154 114.422C386.298 125.644 382.756 133.591 375.698 140.467C370.651 145.385 353.758 158.79 348.744 147.192C347.381 144.036 349.984 138.981 353.934 134.093C339.7 141.315 330.514 142.161 324.591 140.393C314.123 137.266 312.65 127.604 315.202 118.643C321.598 96.188 348.757 95.7178 345.138 95.2004C341.109 94.6241 329.631 86.9389 340.905 81.9289L340.904 81.9299ZM468.111 151.927C472.683 152.339 477.373 153.057 480.959 151.661C483.443 150.693 486.532 148.917 487.827 147.434C489.602 145.399 493.409 144.269 493.495 148.733C493.581 153.196 489.474 154.648 489.474 154.648C497.635 153.001 501.714 162.724 493.001 167.697C487.75 170.694 482.88 166.929 482.88 166.929C484.57 168.693 486.228 171.076 485.589 173.616C484.813 176.699 481.119 178.33 476.84 170.272C475.023 166.844 475.133 163.885 473.764 160.694C471.931 156.41 468.112 151.926 468.112 151.926L468.111 151.927ZM446.803 150.388C454.857 155.279 463.635 156.39 462.147 164.314C460.991 170.479 452.699 169.828 445.856 166.632C439.793 163.801 436.248 159.351 434.191 154.102C431.525 147.302 431.351 139.158 431.416 131.452C433.699 138.465 440.427 146.515 446.803 150.388ZM408.025 129.82C427.263 127.688 425.076 157.424 420.434 169.25C407.175 203.023 359.132 220.682 328.656 231.449C328.777 230.994 350.865 226.515 377.185 191.42C390.128 174.162 393.194 160.327 395.23 150.06C397.335 139.449 398.001 130.931 408.024 129.82H408.025ZM409.445 94.3904C416.806 94.3904 422.771 100.357 422.771 107.716C422.771 115.074 416.805 121.04 409.445 121.04C402.086 121.04 396.12 115.074 396.12 107.716C396.12 100.356 402.086 94.3904 409.445 94.3904ZM385.975 143.46C384.404 158.302 382.036 165.357 376.268 171.691C370.5 178.028 354.121 184.772 353.453 175.45C352.783 166.13 363.033 164.636 372.559 158.302C382.087 151.968 385.975 143.46 385.975 143.46ZM353.045 48.3164C353.98 54.6595 359.312 65.5188 359.312 65.5188C353.942 63.0271 346.04 61.899 340.28 62.5225C334.518 63.1459 326.462 62.171 327.785 57.1895C329.109 52.2081 335.648 53.882 335.648 53.882C327.98 51.7791 323.543 35.9766 333.04 31.3849C342.537 26.7923 345.767 39.4805 345.767 39.4805C345.767 39.4805 346.973 34.9271 350.282 36.4057C353.59 37.8842 352.112 41.9713 353.045 48.3164Z" fill="white"/>
<path d="M224.148 114.022C224.148 115.195 223.925 116.305 223.477 117.343C223.024 118.386 222.414 119.286 221.641 120.066C220.863 120.839 219.961 121.449 218.931 121.902C217.895 122.35 216.789 122.574 215.618 122.574H212.759C212.359 122.574 211.987 122.648 211.648 122.797C211.303 122.94 210.998 123.142 210.741 123.4C210.483 123.658 210.28 123.955 210.137 124.301C209.988 124.647 209.921 125.019 209.921 125.412V128.251H223.376V133.949H204.223V125.412C204.223 124.233 204.446 123.129 204.892 122.085C205.347 121.049 205.957 120.14 206.729 119.367C207.508 118.595 208.409 117.985 209.44 117.545C210.476 117.098 211.581 116.874 212.76 116.874H215.619C216.013 116.874 216.385 116.805 216.729 116.657C217.069 116.515 217.373 116.312 217.631 116.054C217.888 115.797 218.091 115.491 218.234 115.14C218.384 114.786 218.45 114.414 218.45 114.021C218.45 113.621 218.383 113.249 218.234 112.903C218.091 112.564 217.888 112.259 217.631 112.002C217.372 111.744 217.068 111.542 216.729 111.399C216.385 111.25 216.013 111.182 215.619 111.182H205.456V105.484H215.619C216.791 105.484 217.896 105.709 218.932 106.156C219.961 106.609 220.864 107.219 221.642 107.992C222.415 108.771 223.024 109.672 223.478 110.702C223.926 111.739 224.149 112.843 224.149 114.022H224.148ZM244.698 119.714C244.698 116.556 244.17 114.205 243.119 112.667C242.062 111.135 240.598 110.37 238.722 110.37C236.852 110.37 235.407 111.129 234.372 112.646C233.342 114.172 232.826 116.528 232.826 119.714C232.826 122.878 233.342 125.229 234.372 126.76C235.407 128.297 236.852 129.063 238.722 129.063C239.656 129.063 240.503 128.873 241.242 128.501C241.98 128.122 242.612 127.552 243.119 126.779C243.627 126.013 244.02 125.045 244.291 123.873C244.562 122.7 244.698 121.318 244.698 119.713V119.714ZM250.111 119.714C250.111 122.417 249.821 124.701 249.225 126.564C248.628 128.434 247.815 129.938 246.779 131.09C245.749 132.241 244.543 133.075 243.16 133.582C241.772 134.09 240.294 134.348 238.723 134.348C237.144 134.348 235.667 134.085 234.284 133.563C232.903 133.041 231.696 132.201 230.673 131.042C229.644 129.884 228.837 128.372 228.241 126.517C227.645 124.653 227.346 122.389 227.346 119.714C227.346 117.017 227.644 114.74 228.241 112.877C228.837 111.02 229.644 109.517 230.673 108.365C231.696 107.213 232.903 106.379 234.284 105.857C235.667 105.342 237.144 105.085 238.723 105.085C240.294 105.085 241.772 105.349 243.16 105.87C244.543 106.392 245.748 107.24 246.779 108.397C247.815 109.564 248.628 111.074 249.225 112.923C249.821 114.781 250.111 117.043 250.111 119.713V119.714ZM273.46 114.022C273.46 115.195 273.238 116.305 272.79 117.343C272.336 118.386 271.727 119.286 270.954 120.066C270.176 120.839 269.274 121.449 268.243 121.902C267.208 122.35 266.102 122.574 264.931 122.574H262.072C261.671 122.574 261.299 122.648 260.961 122.797C260.615 122.94 260.311 123.142 260.054 123.4C259.796 123.658 259.593 123.955 259.45 124.301C259.302 124.647 259.234 125.019 259.234 125.412V128.251H272.69V133.949H253.537V125.412C253.537 124.233 253.759 123.129 254.206 122.085C254.661 121.049 255.27 120.14 256.043 119.367C256.822 118.595 257.723 117.985 258.754 117.545C259.789 117.098 260.895 116.874 262.074 116.874H264.933C265.327 116.874 265.699 116.805 266.043 116.657C266.382 116.515 266.687 116.312 266.945 116.054C267.202 115.797 267.405 115.491 267.548 115.14C267.698 114.786 267.764 114.414 267.764 114.021C267.764 113.621 267.697 113.249 267.548 112.903C267.405 112.564 267.203 112.259 266.945 112.002C266.686 111.744 266.382 111.542 266.043 111.399C265.699 111.25 265.327 111.182 264.933 111.182H254.77V105.484H264.933C266.105 105.484 267.21 105.709 268.245 106.156C269.275 106.609 270.176 107.219 270.956 107.992C271.729 108.771 272.338 109.672 272.792 110.702C273.24 111.739 273.462 112.843 273.462 114.022H273.46ZM297.385 124.999C297.385 126.388 297.142 127.635 296.647 128.746C296.159 129.857 295.502 130.798 294.682 131.564C293.862 132.336 292.914 132.925 291.836 133.332C290.759 133.745 289.628 133.948 288.449 133.948H276.977V128.25H288.449C288.836 128.25 289.221 128.188 289.614 128.075C290.001 127.953 290.353 127.762 290.665 127.497C290.977 127.234 291.227 126.896 291.418 126.481C291.614 126.075 291.708 125.58 291.708 124.998C291.708 124.47 291.614 124.001 291.418 123.595C291.227 123.195 290.977 122.857 290.665 122.585C290.354 122.314 290.001 122.104 289.614 121.969C289.221 121.826 288.836 121.759 288.449 121.759H276.977L278.644 105.483H296.214V111.181H283.767L283.252 116.061H288.449C289.628 116.061 290.758 116.27 291.836 116.676C292.914 117.09 293.862 117.68 294.682 118.451C295.502 119.232 296.159 120.166 296.647 121.271C297.142 122.375 297.385 123.622 297.385 124.998V124.999Z" fill="white"/>
</svg>
