<svg width="215" height="63" viewBox="0 0 215 63" fill="none" xmlns="http://www.w3.org/2000/svg">
<path d="M1.24198 10.002V7.8776H10.8676V10.002H7.37078V21H4.73878V10.002H1.24198ZM17.2624 12.5776C16.0028 12.5776 15.0064 13.386 14.7996 14.8148H19.744C19.7064 13.4424 18.616 12.5776 17.2624 12.5776ZM22.2068 17.7288C21.6428 19.6464 19.9132 21.1692 17.3376 21.1692C14.3108 21.1692 12.1112 19.0636 12.1112 15.7924C12.1112 12.5024 14.2544 10.4156 17.3376 10.4156C20.3456 10.4156 22.47 12.4648 22.47 15.5668C22.47 15.9052 22.4512 16.2436 22.3948 16.582H14.7808C14.9124 18.1236 15.9652 18.9884 17.2812 18.9884C18.4092 18.9884 19.0296 18.4244 19.368 17.7288H22.2068ZM27.0231 15.8112V21H24.3911V10.5848H27.0231V12.2016C27.6811 11.13 28.7715 10.4344 30.2191 10.4344V13.198H29.5235C27.9631 13.198 27.0231 13.7996 27.0231 15.8112ZM34.6239 12.1076C35.2631 11.1488 36.4851 10.4156 38.0643 10.4156C40.7339 10.4156 42.8207 12.5024 42.8207 15.7548C42.8207 19.0072 40.7339 21.1692 38.0643 21.1692C36.4287 21.1692 35.2631 20.4172 34.6239 19.5148V21H31.9919V7.088H34.6239V12.1076ZM40.1323 15.7548C40.1323 13.7808 38.7975 12.728 37.3687 12.728C35.9587 12.728 34.6239 13.8184 34.6239 15.7924C34.6239 17.7664 35.9587 18.8568 37.3687 18.8568C38.7975 18.8568 40.1323 17.7288 40.1323 15.7548ZM54.5657 10.5848V21H51.9149V19.684C51.2569 20.5676 50.1101 21.1316 48.8129 21.1316C46.3877 21.1316 44.6393 19.5524 44.6393 16.6948V10.5848H47.2713V16.3188C47.2713 17.992 48.1925 18.8944 49.5837 18.8944C51.0125 18.8944 51.9149 17.992 51.9149 16.3188V10.5848H54.5657ZM57.1626 21V7.088H59.7946V15.0028L63.2914 10.5848H66.713L62.1258 15.8112L66.7506 21H63.329L59.7946 16.5632V21H57.1626ZM67.4647 15.7548C67.4647 12.5024 69.5703 10.4156 72.2211 10.4156C73.8943 10.4156 75.0411 11.2052 75.6615 12.07V10.5848H78.3123V21H75.6615V19.4772C75.0411 20.3796 73.8567 21.1692 72.2023 21.1692C69.5703 21.1692 67.4647 19.0072 67.4647 15.7548ZM75.6615 15.7924C75.6615 13.8184 74.3455 12.728 72.8979 12.728C71.4879 12.728 70.1531 13.7808 70.1531 15.7548C70.1531 17.7288 71.4879 18.8568 72.8979 18.8568C74.3455 18.8568 75.6615 17.7664 75.6615 15.7924ZM85.325 15.9804V7.8776H87.957V15.9992C87.957 17.804 88.9346 18.744 90.6078 18.744C92.2998 18.744 93.2774 17.804 93.2774 15.9992V7.8776H95.9282V15.9804C95.9282 19.4396 93.4466 21.1316 90.5702 21.1316C87.6938 21.1316 85.325 19.4396 85.325 15.9804ZM105.766 21V15.2472C105.766 13.574 104.844 12.6716 103.453 12.6716C102.024 12.6716 101.103 13.574 101.103 15.2472V21H98.4712V10.5848H101.103V11.882C101.78 10.9984 102.908 10.4344 104.243 10.4344C106.668 10.4344 108.398 12.0136 108.398 14.89V21H105.766ZM111.314 17.7664V12.7468H110.073V10.5848H111.314V8.0092H113.965V10.5848H116.296V12.7468H113.965V17.7852C113.965 18.4808 114.247 18.7816 115.074 18.7816H116.296V21H114.642C112.649 21 111.314 20.154 111.314 17.7664ZM128.022 10.5848V21H125.371V19.684C124.713 20.5676 123.566 21.1316 122.269 21.1316C119.844 21.1316 118.095 19.5524 118.095 16.6948V10.5848H120.727V16.3188C120.727 17.992 121.648 18.8944 123.04 18.8944C124.468 18.8944 125.371 17.992 125.371 16.3188V10.5848H128.022ZM130.618 21V7.088H133.25V15.0028L136.747 10.5848H140.169L135.582 15.8112L140.206 21H136.785L133.25 16.5632V21H130.618ZM146.039 15.9804V7.8776H148.671V15.9992C148.671 17.804 149.649 18.744 151.322 18.744C153.014 18.744 153.992 17.804 153.992 15.9992V7.8776H156.643V15.9804C156.643 19.4396 154.161 21.1316 151.285 21.1316C148.408 21.1316 146.039 19.4396 146.039 15.9804ZM173.756 21V15.2472C173.756 13.5928 172.834 12.728 171.443 12.728C170.033 12.728 169.112 13.5928 169.112 15.2472V21H166.48V15.2472C166.48 13.5928 165.559 12.728 164.168 12.728C162.739 12.728 161.818 13.5928 161.818 15.2472V21H159.186V10.5848H161.818V11.8444C162.476 10.9796 163.585 10.4344 164.882 10.4344C166.499 10.4344 167.834 11.13 168.548 12.4272C169.225 11.2428 170.597 10.4344 172.12 10.4344C174.62 10.4344 176.388 12.0136 176.388 14.89V21H173.756ZM188.718 10.5848V21H186.067V19.684C185.409 20.5676 184.262 21.1316 182.965 21.1316C180.54 21.1316 178.791 19.5524 178.791 16.6948V10.5848H181.423V16.3188C181.423 17.992 182.344 18.8944 183.736 18.8944C185.164 18.8944 186.067 17.992 186.067 16.3188V10.5848H188.718ZM205.885 21V15.2472C205.885 13.5928 204.963 12.728 203.572 12.728C202.162 12.728 201.241 13.5928 201.241 15.2472V21H198.609V15.2472C198.609 13.5928 197.688 12.728 196.297 12.728C194.868 12.728 193.947 13.5928 193.947 15.2472V21H191.315V10.5848H193.947V11.8444C194.605 10.9796 195.714 10.4344 197.011 10.4344C198.628 10.4344 199.963 11.13 200.677 12.4272C201.354 11.2428 202.726 10.4344 204.249 10.4344C206.749 10.4344 208.517 12.0136 208.517 14.89V21H205.885ZM209.943 23.7072L211.202 18.1048H213.985L211.653 23.7072H209.943Z" fill="white"/>
<path d="M6.65746 38.3394C9.10086 37.2639 12.2439 36.5774 16.0866 36.2798C16.544 38.2345 16.9481 40.0765 17.2989 41.806C15.4828 41.9498 13.529 42.4264 11.4376 43.2356C8.85652 44.2409 7.49976 45.7732 7.36729 47.8326C7.66618 48.8738 8.33976 49.9259 9.38803 50.9891C10.4363 52.0522 11.4792 52.799 12.5166 53.2295C12.8083 53.3115 12.9829 53.3512 13.0403 53.3485C13.4232 53.3303 13.6393 53.0322 13.6886 52.4542C13.7251 52.0112 13.7257 51.4163 13.6902 50.6697C13.6866 50.5931 13.3766 50.531 12.7603 50.4836C12.1441 50.4361 11.8346 50.3836 11.8318 50.3262C11.7955 49.5604 11.7837 49.11 11.7965 48.9751C11.8348 48.5703 11.9976 48.3611 12.2847 48.3475C12.7442 48.3256 13.7471 48.23 15.2933 48.0607L17.6126 47.8066C18.1085 47.7447 18.3983 48.5944 18.482 50.3558C18.5074 50.8918 18.5027 52.005 18.4679 53.6952C18.4449 54.8284 18.4598 55.9502 18.5125 57.0606C18.5444 57.7307 18.5958 58.208 18.6669 58.4924C18.6669 58.4924 18.2074 58.5142 17.2884 58.5579C15.0876 58.6816 12.9968 58.493 11.0158 57.9922C8.12226 57.2662 5.81365 55.9271 4.08995 53.975C2.26689 51.9508 1.28536 49.4646 1.14535 46.5163C1.04899 44.4869 1.46812 42.8072 2.40276 41.4772C3.26626 40.2657 4.6845 39.2198 6.65746 38.3394ZM35.03 58.0032C34.4931 58.0095 33.7601 58.1307 32.8311 58.3667C31.902 58.6027 31.1945 58.8569 30.7086 59.1295C30.1516 58.7146 29.6353 57.7413 29.1596 56.2096L27.9772 52.5241C27.4404 51.3215 26.7508 50.7402 25.9084 50.7802C25.2575 50.8112 24.8098 51.4848 24.5653 52.8012C24.4284 53.5561 24.3845 54.4504 24.4336 55.4842C24.4709 56.2692 24.5547 56.8217 24.685 57.1417C24.1408 56.9948 23.3321 56.9373 22.2591 56.9691C21.1286 57.0035 20.3396 56.9547 19.892 56.8224L18.8788 35.4852C19.073 35.5336 19.485 35.5236 20.115 35.4553C20.8216 35.3834 21.529 35.3306 22.2374 35.2969C23.0415 35.2588 24.1309 35.3701 25.5057 35.6311C30.5589 36.5808 33.1523 38.4628 33.286 41.2771L33.0202 44.7724L30.7454 49.6007L35.03 58.0032ZM28.4407 42.8888C28.0324 41.9679 27.4554 41.3333 26.7097 40.985C26.2776 40.7752 25.4539 40.6033 24.2387 40.4691L24.5305 46.6147C24.7475 46.7387 25.1828 46.814 25.8365 46.8405C26.4901 46.867 26.8593 46.9646 26.9441 47.1333L28.4407 42.8888ZM50.4438 56.5229C49.3069 56.4234 48.4418 56.3878 47.8483 56.4159C47.0825 56.4523 46.4935 56.5762 46.0814 56.7877C45.5244 56.3728 45.1006 55.5294 44.81 54.2576C44.3489 52.2264 44.0883 51.1834 44.0282 51.1287C43.9808 50.939 43.8591 50.5994 43.6632 50.1098C43.4864 49.6193 43.2831 49.3796 43.0534 49.3905C42.9002 49.3977 42.6541 49.467 42.3149 49.5982C41.9949 49.7285 41.7583 49.7973 41.6052 49.8046C41.2797 49.8201 41.0755 49.9641 40.9925 50.2367L40.5711 51.667C40.2737 52.6789 40.156 53.8358 40.2178 55.1377C40.2414 55.6354 40.2952 55.9591 40.379 56.1086C40.0098 56.011 39.538 55.9759 38.9637 56.0031C38.8871 56.0068 38.5717 56.0313 38.0174 56.0769C37.4631 56.1224 37.1476 56.1469 37.0711 56.1506C36.535 56.176 36.0445 56.1513 35.5996 56.0765C35.0151 43.7662 34.8915 37.3249 35.2289 36.7524C35.8161 35.7843 36.4822 35.2633 37.227 35.1896C39.1953 35.0194 41.0998 35.1208 42.9404 35.4939C46.1958 36.1644 47.9342 37.617 48.1554 39.8515L48.0921 43.3659L48.7137 47.9704L50.4438 56.5229ZM44.1034 41.1952C43.5164 40.1485 42.6417 39.7103 41.4793 39.8807C40.1182 39.9069 39.4985 41.2028 39.6204 43.7682C39.6367 44.1128 39.705 44.7428 39.8252 45.6581C40.3877 45.7849 40.937 45.8356 41.473 45.8101L44.6033 45.6615L44.1034 41.1952ZM66.4093 39.3876L62.7909 39.5595C62.4526 39.7098 61.9776 40.0106 61.3658 40.4618L62.1964 47.0423L62.6479 55.339C62.0718 55.328 61.2408 55.4058 60.155 55.5725C59.0117 55.7419 58.1812 55.8293 57.6633 55.8347C56.9924 55.8474 56.5691 54.0062 56.3937 50.3112C56.3264 48.8945 56.2961 47.4472 56.3026 45.9694C56.3092 44.4916 56.2789 43.0443 56.2116 41.6276C56.188 41.1298 55.7609 40.8239 54.9304 40.7098C54.8729 40.7126 54.5652 40.6984 54.0073 40.6673L52.5085 40.6234C51.5668 40.5913 51.0321 40.444 50.9045 40.1815L49.5882 35.4949L53.193 35.6403C54.7683 35.6806 56.025 35.6785 56.9631 35.634C57.4609 35.6103 57.7663 35.5766 57.8794 35.5329L66.1761 34.4769C65.9955 35.5217 65.9288 36.5418 65.9761 37.5374C66.0161 38.3797 66.1605 38.9965 66.4093 39.3876ZM74.6998 39.0515C74.7225 39.5302 74.6778 39.8009 74.5656 39.8638C74.3395 39.9513 74.2092 40.0342 74.1745 40.1126C74.2273 40.4171 74.2697 40.9044 74.3015 41.5745C74.376 43.1444 74.275 45.4614 73.9984 48.5255L73.3382 55.8387C70.4255 55.5165 68.5101 55.3868 67.5921 55.4496C67.4848 53.1905 67.6124 49.8169 67.975 45.3288C68.3557 40.8207 68.4925 37.4371 68.3852 35.1779L68.1761 34.4107C68.4468 34.4554 69.2951 34.5399 70.7209 34.6641C71.2606 34.7152 71.9553 34.7973 72.805 34.9105L74.7755 35.1911C74.7381 35.2121 74.6524 35.2257 74.5184 35.2321L74.6998 39.0515ZM91.5659 40.2366C91.0107 40.263 90.1833 40.2159 89.0839 40.0954C88.0027 39.9549 87.194 39.8974 86.658 39.9228C86.7738 39.5335 86.8231 39.157 86.8058 38.7933C86.7712 38.0658 86.5015 37.4358 85.9965 36.9033C85.5106 36.3699 84.904 36.1205 84.1764 36.155C83.2575 36.1987 82.539 36.8276 82.021 38.0419C82.1686 39.1286 83.3864 40.3276 85.6745 41.6389L90.5862 44.4566C91.1384 45.9846 91.4273 47.0167 91.4527 47.5527C91.5173 48.912 90.8402 50.4121 89.4214 52.0529C88.0209 53.6736 86.641 54.5163 85.2817 54.5808C83.4246 54.669 81.5877 54.171 79.7708 53.0868C77.7571 51.8968 76.7085 50.4211 76.6248 48.6598L76.5239 46.5347L77.4073 46.3488C77.4073 46.3488 77.556 46.2458 77.8532 46.0398C78.0228 45.9742 78.2129 45.9364 78.4234 45.9264C78.6915 45.9137 78.8861 45.9716 79.0073 46.1001L79.0101 46.1576C79.1705 46.3035 79.4522 46.3764 79.8552 46.3765C79.8552 46.3765 80.1711 46.3615 80.8028 46.3315C81.1309 47.1794 81.4453 47.9416 81.7461 48.6181C82.1316 49.4632 82.5582 50.1625 83.0258 50.716L84.2607 50.6573C85.1087 49.1204 85.5168 48.0169 85.485 47.3468C84.6692 46.7331 83.4727 45.984 81.8956 45.0995C80.1809 44.1448 78.9822 43.3478 78.2994 42.7087C77.2347 41.7039 76.6715 40.5505 76.6097 39.2487C76.5469 37.9276 77.0504 36.4071 78.12 34.6869C79.1896 32.9667 80.3289 31.9052 81.5378 31.5024C82.0101 31.3457 83.3853 31.2132 85.6636 31.1051C86.506 31.065 87.6614 31.7585 89.1299 33.1855C90.5984 34.6124 91.3513 35.7184 91.3886 36.5033L91.5659 40.2366Z" fill="white"/>
</svg>
