<svg width="611" height="323" viewBox="0 0 611 323" fill="none" xmlns="http://www.w3.org/2000/svg">
<path d="M376.114 245.165C376.773 244.017 378.146 243.076 379.972 243.076C382.757 243.076 384.865 245.146 384.865 248.364C384.865 251.563 382.738 253.727 379.972 253.727C378.09 253.727 376.754 252.786 376.114 251.657V253.558H374.401V239.632H376.114V245.165ZM383.115 248.364C383.115 245.936 381.515 244.563 379.614 244.563C377.751 244.563 376.114 245.993 376.114 248.383C376.114 250.81 377.751 252.222 379.614 252.222C381.515 252.222 383.115 250.792 383.115 248.364ZM386.479 248.364C386.479 245.146 388.606 243.076 391.372 243.076C393.291 243.076 394.609 244.054 395.211 245.127V243.245H396.942V253.558H395.211V251.638C394.59 252.749 393.254 253.727 391.353 253.727C388.606 253.727 386.479 251.563 386.479 248.364ZM395.211 248.383C395.211 245.993 393.592 244.563 391.711 244.563C389.829 244.563 388.229 245.936 388.229 248.364C388.229 250.792 389.829 252.222 391.711 252.222C393.592 252.222 395.211 250.81 395.211 248.383ZM400.213 250.735V244.657H398.876V243.245H400.213V240.648H401.925V243.245H404.616V244.657H401.925V250.735C401.925 251.751 402.301 252.109 403.355 252.109H404.616V253.558H403.073C401.248 253.558 400.213 252.805 400.213 250.735ZM406.051 248.364C406.051 245.146 408.178 243.076 410.944 243.076C412.864 243.076 414.181 244.054 414.783 245.127V243.245H416.515V253.558H414.783V251.638C414.162 252.749 412.826 253.727 410.925 253.727C408.178 253.727 406.051 251.563 406.051 248.364ZM414.783 248.383C414.783 245.993 413.165 244.563 411.283 244.563C409.401 244.563 407.801 245.936 407.801 248.364C407.801 250.792 409.401 252.222 411.283 252.222C413.165 252.222 414.783 250.81 414.783 248.383ZM426.823 250.754C426.823 252.448 425.336 253.727 423.059 253.727C420.651 253.727 418.957 252.41 418.844 250.528H420.613C420.707 251.525 421.591 252.278 423.041 252.278C424.395 252.278 425.148 251.601 425.148 250.754C425.148 248.458 419.051 249.794 419.051 245.955C419.051 244.374 420.538 243.076 422.834 243.076C425.111 243.076 426.616 244.299 426.729 246.313H425.016C424.941 245.278 424.151 244.525 422.777 244.525C421.516 244.525 420.763 245.127 420.763 245.955C420.763 248.402 426.748 247.065 426.823 250.754ZM435.97 245.146C436.591 244.054 437.946 243.076 439.828 243.076C442.594 243.076 444.721 245.146 444.721 248.364C444.721 251.563 442.594 253.727 439.828 253.727C437.946 253.727 436.61 252.711 435.97 251.657V258.451H434.258V243.245H435.97V245.146ZM442.971 248.364C442.971 245.936 441.371 244.563 439.471 244.563C437.607 244.563 435.97 245.993 435.97 248.383C435.97 250.81 437.607 252.222 439.471 252.222C441.371 252.222 442.971 250.792 442.971 248.364ZM451.36 244.525C449.685 244.525 448.292 245.635 448.104 247.649H454.616C454.634 245.635 453.129 244.525 451.36 244.525ZM456.177 250.378C455.651 252.259 453.994 253.727 451.435 253.727C448.499 253.727 446.335 251.657 446.335 248.383C446.335 245.127 448.424 243.076 451.435 243.076C454.427 243.076 456.384 245.184 456.384 248.006C456.384 248.383 456.366 248.684 456.328 249.041H448.085C448.217 251.13 449.685 252.278 451.435 252.278C452.978 252.278 453.957 251.488 454.333 250.378H456.177ZM466.191 253.558V247.724C466.191 245.616 465.043 244.544 463.312 244.544C461.562 244.544 460.357 245.635 460.357 247.856V253.558H458.645V243.245H460.357V244.713C461.035 243.64 462.277 243.057 463.67 243.057C466.06 243.057 467.885 244.525 467.885 247.479V253.558H466.191ZM470.043 248.364C470.043 245.146 472.169 243.076 474.954 243.076C476.573 243.076 478.059 243.904 478.774 245.089V239.632H480.506V253.558H478.774V251.62C478.153 252.768 476.817 253.727 474.935 253.727C472.169 253.727 470.043 251.563 470.043 248.364ZM478.774 248.383C478.774 245.993 477.156 244.563 475.274 244.563C473.392 244.563 471.793 245.936 471.793 248.364C471.793 250.792 473.392 252.222 475.274 252.222C477.156 252.222 478.774 250.81 478.774 248.383ZM482.76 248.364C482.76 245.146 484.886 243.076 487.653 243.076C489.572 243.076 490.89 244.054 491.492 245.127V243.245H493.223V253.558H491.492V251.638C490.871 252.749 489.535 253.727 487.634 253.727C484.886 253.727 482.76 251.563 482.76 248.364ZM491.492 248.383C491.492 245.993 489.873 244.563 487.992 244.563C486.11 244.563 484.51 245.936 484.51 248.364C484.51 250.792 486.11 252.222 487.992 252.222C489.873 252.222 491.492 250.81 491.492 248.383ZM496.437 253.558V244.657H495.101V243.245H496.437V242.511C496.437 240.215 497.566 239.18 500.201 239.18V240.611C498.658 240.611 498.15 241.175 498.15 242.511V243.245H500.314V244.657H498.15V253.558H496.437ZM502.687 250.735V244.657H501.351V243.245H502.687V240.648H504.399V243.245H507.09V244.657H504.399V250.735C504.399 251.751 504.776 252.109 505.83 252.109H507.09V253.558H505.547C503.722 253.558 502.687 252.805 502.687 250.735ZM508.525 248.364C508.525 245.146 510.652 243.076 513.418 243.076C515.338 243.076 516.655 244.054 517.257 245.127V243.245H518.989V253.558H517.257V251.638C516.636 252.749 515.3 253.727 513.4 253.727C510.652 253.727 508.525 251.563 508.525 248.364ZM517.257 248.383C517.257 245.993 515.639 244.563 513.757 244.563C511.875 244.563 510.276 245.936 510.276 248.364C510.276 250.792 511.875 252.222 513.757 252.222C515.639 252.222 517.257 250.81 517.257 248.383ZM523.595 247.95V253.558H521.883V243.245H523.595V244.92C524.179 243.772 525.289 243.057 526.926 243.057V244.826H526.475C524.837 244.826 523.595 245.56 523.595 247.95ZM528.263 248.364C528.263 245.146 530.39 243.076 533.156 243.076C535.076 243.076 536.393 244.054 536.995 245.127V243.245H538.726V253.558H536.995V251.638C536.374 252.749 535.038 253.727 533.137 253.727C530.39 253.727 528.263 251.563 528.263 248.364ZM536.995 248.383C536.995 245.993 535.377 244.563 533.495 244.563C531.613 244.563 530.013 245.936 530.013 248.364C530.013 250.792 531.613 252.222 533.495 252.222C535.377 252.222 536.995 250.81 536.995 248.383ZM549.167 253.558V247.724C549.167 245.616 548.019 244.544 546.287 244.544C544.537 244.544 543.333 245.635 543.333 247.856V253.558H541.62V243.245H543.333V244.713C544.01 243.64 545.252 243.057 546.645 243.057C549.035 243.057 550.86 244.525 550.86 247.479V253.558H549.167ZM555.333 252.504C555.333 253.163 554.825 253.671 554.204 253.671C553.545 253.671 553.037 253.163 553.037 252.504C553.037 251.845 553.545 251.337 554.204 251.337C554.825 251.337 555.333 251.845 555.333 252.504ZM555.333 244.45C555.333 245.108 554.825 245.616 554.204 245.616C553.545 245.616 553.037 245.108 553.037 244.45C553.037 243.791 553.545 243.283 554.204 243.283C554.825 243.283 555.333 243.791 555.333 244.45Z" fill="white"/>
<path d="M382.638 314.988C377.875 314.988 375.546 316.47 375.546 306.202C375.493 304.984 375.387 303.767 375.387 302.55C375.387 302.126 375.493 301.703 375.493 301.279C375.493 300.591 375.44 299.903 375.44 299.215C375.44 293.129 376.022 286.301 384.702 285.56C386.978 284.978 390.472 284.025 390.472 281.855C390.313 277.885 390.207 273.757 389.307 269.999C388.831 268.094 388.09 267.935 385.549 267.935C382.056 267.935 381.685 269.152 381.685 271.799C381.685 273.016 381.95 274.18 381.95 275.451C381.95 276.827 380.204 276.774 378.933 276.774C375.546 276.774 374.487 276.35 374.487 270.052C374.487 264.759 375.81 260.313 386.026 260.313C393.7 260.313 397.934 263.436 397.934 271.852C397.934 272.91 397.828 273.863 397.828 274.921C397.828 275.398 397.828 275.927 397.828 276.403C397.564 282.596 398.04 290.747 392.747 291.647C388.196 292.546 381.95 292.441 381.95 298.792C381.95 301.332 383.009 308.001 384.438 308.001C386.29 308.001 388.09 307.207 389.889 307.207C390.207 307.207 390.577 307.207 390.842 307.207C392.694 307.207 394.441 306.731 396.294 306.731C397.776 306.731 397.987 312.394 397.987 312.818C397.987 314.776 390.472 314.776 388.672 314.776C388.513 314.776 388.301 314.776 388.143 314.776C387.296 314.776 386.449 314.988 385.602 314.988C384.967 314.988 384.332 314.935 383.75 314.935C383.379 314.935 383.009 314.935 382.638 314.988Z" fill="white"/>
<path d="M417.86 266.68H420.495V279.835H417.86L411.895 270.82V279.835H409.26V266.68H411.895L417.86 275.713V266.68ZM433.167 274.622C433.167 277.896 430.758 280.004 427.728 280.004C424.717 280.004 422.44 277.896 422.44 274.622C422.44 271.328 424.792 269.24 427.803 269.24C430.814 269.24 433.167 271.328 433.167 274.622ZM425.112 274.622C425.112 276.692 426.317 277.708 427.728 277.708C429.121 277.708 430.457 276.692 430.457 274.622C430.457 272.533 429.158 271.536 427.766 271.536C426.373 271.536 425.112 272.533 425.112 274.622ZM433.989 269.409H436.812L439.446 277.407L442.081 269.409H444.885L441.027 279.835H437.828L433.989 269.409ZM450.844 271.404C449.583 271.404 448.585 272.213 448.378 273.643H453.328C453.29 272.269 452.199 271.404 450.844 271.404ZM455.793 276.56C455.228 278.48 453.497 280.004 450.919 280.004C447.889 280.004 445.687 277.896 445.687 274.622C445.687 271.328 447.833 269.24 450.919 269.24C453.93 269.24 456.056 271.291 456.056 274.396C456.056 274.735 456.038 275.073 455.981 275.412H448.36C448.491 276.955 449.545 277.821 450.862 277.821C451.992 277.821 452.613 277.256 452.951 276.56H455.793ZM472.564 279.835V274.076C472.564 272.42 471.642 271.554 470.249 271.554C468.838 271.554 467.916 272.42 467.916 274.076V279.835H465.281V274.076C465.281 272.42 464.359 271.554 462.967 271.554C461.536 271.554 460.614 272.42 460.614 274.076V279.835H457.98V269.409H460.614V270.67C461.273 269.804 462.383 269.258 463.682 269.258C465.3 269.258 466.636 269.955 467.351 271.253C468.029 270.068 469.403 269.258 470.927 269.258C473.43 269.258 475.199 270.839 475.199 273.718V279.835H472.564ZM480.333 270.933C480.973 269.974 482.197 269.24 483.777 269.24C486.45 269.24 488.538 271.328 488.538 274.584C488.538 277.84 486.45 280.004 483.777 280.004C482.14 280.004 480.973 279.251 480.333 278.348V279.835H477.699V265.909H480.333V270.933ZM485.847 274.584C485.847 272.608 484.511 271.554 483.081 271.554C481.67 271.554 480.333 272.646 480.333 274.622C480.333 276.598 481.67 277.689 483.081 277.689C484.511 277.689 485.847 276.56 485.847 274.584ZM494.932 271.404C493.671 271.404 492.674 272.213 492.467 273.643H497.416C497.378 272.269 496.287 271.404 494.932 271.404ZM499.881 276.56C499.317 278.48 497.585 280.004 495.007 280.004C491.977 280.004 489.775 277.896 489.775 274.622C489.775 271.328 491.921 269.24 495.007 269.24C498.018 269.24 500.145 271.291 500.145 274.396C500.145 274.735 500.126 275.073 500.069 275.412H492.448C492.579 276.955 493.633 277.821 494.951 277.821C496.08 277.821 496.701 277.256 497.04 276.56H499.881ZM504.702 274.641V279.835H502.068V269.409H504.702V271.027C505.361 269.955 506.452 269.258 507.902 269.258V272.025H507.205C505.643 272.025 504.702 272.627 504.702 274.641ZM408.809 303.646V301.689C411.914 299.055 415.169 296.627 415.169 294.105C415.169 292.882 414.624 292.054 413.325 292.054C412.064 292.054 411.368 292.957 411.349 294.406H408.79C408.884 291.264 410.897 289.815 413.363 289.815C416.317 289.815 417.804 291.565 417.804 293.955C417.804 297.135 414.736 299.619 412.553 301.463H418.105V303.646H408.809ZM419.765 296.796C419.765 292.826 420.97 289.852 424.846 289.852C428.723 289.852 429.927 292.826 429.927 296.796C429.927 300.805 428.723 303.797 424.846 303.797C420.97 303.797 419.765 300.805 419.765 296.796ZM427.33 296.796C427.33 294.444 427.067 292.299 424.846 292.299C422.626 292.299 422.362 294.444 422.362 296.796C422.362 299.243 422.626 301.351 424.846 301.351C427.067 301.351 427.33 299.243 427.33 296.796ZM431.781 303.646V301.689C434.886 299.055 438.141 296.627 438.141 294.105C438.141 292.882 437.596 292.054 436.297 292.054C435.036 292.054 434.34 292.957 434.321 294.406H431.762C431.856 291.264 433.87 289.815 436.335 289.815C439.289 289.815 440.776 291.565 440.776 293.955C440.776 297.135 437.709 299.619 435.526 301.463H441.077V303.646H431.781ZM443.452 290.078H451.959V292.393H445.861V295.611C446.369 294.99 447.404 294.5 448.552 294.5C451.752 294.5 452.843 296.909 452.843 299.036C452.843 301.84 451.225 303.835 448.101 303.835C445.146 303.835 443.452 302.197 443.227 299.958H445.786C446.012 300.918 446.783 301.614 448.063 301.614C449.606 301.614 450.302 300.522 450.302 299.073C450.302 297.53 449.531 296.683 448.044 296.683C446.953 296.683 446.256 297.286 445.974 298.133H443.452V290.078Z" fill="white"/>
<path fill-rule="evenodd" clip-rule="evenodd" d="M332.091 315.624L131.594 318.358L85.0548 319.51L88.2478 299.893L89.7218 276.535L84.857 263.053L89.5373 245.922C148.266 246.292 62.4728 249.099 121.607 247.459L306.144 241.986L337.333 249.777L326.836 254.735C326.836 254.735 330.986 263.712 330.855 267.488C330.722 271.265 324.291 273.156 325.764 280.711C327.236 288.267 328.845 306.922 328.845 306.922L332.092 315.626L332.091 315.624Z" fill="#BED73F"/>
<path d="M219.422 257.261H222.057V270.415H219.422L213.457 261.401V270.415H210.822V257.261H213.457L219.422 266.294V257.261ZM234.729 265.202C234.729 268.477 232.32 270.584 229.29 270.584C226.279 270.584 224.002 268.477 224.002 265.202C224.002 261.909 226.354 259.82 229.365 259.82C232.376 259.82 234.729 261.909 234.729 265.202ZM226.674 265.202C226.674 267.272 227.879 268.288 229.29 268.288C230.683 268.288 232.019 267.272 232.019 265.202C232.019 263.113 230.72 262.116 229.328 262.116C227.935 262.116 226.674 263.113 226.674 265.202ZM235.551 259.989H238.374L241.008 267.987L243.643 259.989H246.447L242.589 270.415H239.39L235.551 259.989ZM252.406 261.984C251.145 261.984 250.147 262.793 249.94 264.224H254.89C254.852 262.85 253.761 261.984 252.406 261.984ZM257.355 267.141C256.79 269.06 255.059 270.584 252.481 270.584C249.451 270.584 247.249 268.477 247.249 265.202C247.249 261.909 249.395 259.82 252.481 259.82C255.492 259.82 257.618 261.871 257.618 264.976C257.618 265.315 257.6 265.654 257.543 265.993H249.922C250.053 267.536 251.107 268.401 252.425 268.401C253.554 268.401 254.175 267.837 254.513 267.141H257.355ZM274.126 270.415V264.656C274.126 263 273.204 262.135 271.811 262.135C270.4 262.135 269.478 263 269.478 264.656V270.415H266.843V264.656C266.843 263 265.921 262.135 264.529 262.135C263.098 262.135 262.176 263 262.176 264.656V270.415H259.542V259.989H262.176V261.25C262.835 260.385 263.945 259.839 265.244 259.839C266.862 259.839 268.198 260.535 268.913 261.834C269.591 260.648 270.965 259.839 272.489 259.839C274.992 259.839 276.761 261.42 276.761 264.299V270.415H274.126ZM281.895 261.514C282.535 260.554 283.759 259.82 285.339 259.82C288.012 259.82 290.1 261.909 290.1 265.165C290.1 268.42 288.012 270.584 285.339 270.584C283.702 270.584 282.535 269.832 281.895 268.928V270.415H279.261V256.489H281.895V261.514ZM287.409 265.165C287.409 263.189 286.073 262.135 284.643 262.135C283.232 262.135 281.895 263.226 281.895 265.202C281.895 267.178 283.232 268.27 284.643 268.27C286.073 268.27 287.409 267.141 287.409 265.165ZM296.494 261.984C295.233 261.984 294.236 262.793 294.029 264.224H298.978C298.94 262.85 297.849 261.984 296.494 261.984ZM301.443 267.141C300.879 269.06 299.147 270.584 296.569 270.584C293.539 270.584 291.338 268.477 291.338 265.202C291.338 261.909 293.483 259.82 296.569 259.82C299.58 259.82 301.707 261.871 301.707 264.976C301.707 265.315 301.688 265.654 301.631 265.993H294.01C294.142 267.536 295.195 268.401 296.513 268.401C297.642 268.401 298.263 267.837 298.602 267.141H301.443ZM306.264 265.221V270.415H303.63V259.989H306.264V261.608C306.923 260.535 308.014 259.839 309.464 259.839V262.605H308.767C307.205 262.605 306.264 263.207 306.264 265.221ZM210.371 294.227V292.27C213.476 289.635 216.731 287.207 216.731 284.686C216.731 283.462 216.186 282.634 214.887 282.634C213.626 282.634 212.93 283.538 212.911 284.987H210.352C210.446 281.844 212.459 280.395 214.925 280.395C217.879 280.395 219.366 282.145 219.366 284.535C219.366 287.716 216.298 290.2 214.115 292.044H219.667V294.227H210.371ZM221.327 287.377C221.327 283.406 222.532 280.433 226.408 280.433C230.285 280.433 231.489 283.406 231.489 287.377C231.489 291.385 230.285 294.377 226.408 294.377C222.532 294.377 221.327 291.385 221.327 287.377ZM228.892 287.377C228.892 285.024 228.629 282.879 226.408 282.879C224.188 282.879 223.924 285.024 223.924 287.377C223.924 289.823 224.188 291.931 226.408 291.931C228.629 291.931 228.892 289.823 228.892 287.377ZM233.343 294.227V292.27C236.448 289.635 239.703 287.207 239.703 284.686C239.703 283.462 239.158 282.634 237.859 282.634C236.598 282.634 235.902 283.538 235.883 284.987H233.324C233.418 281.844 235.432 280.395 237.897 280.395C240.851 280.395 242.338 282.145 242.338 284.535C242.338 287.716 239.271 290.2 237.088 292.044H242.639V294.227H233.343ZM245.014 280.658H253.521V282.973H247.423V286.191C247.931 285.57 248.966 285.081 250.114 285.081C253.314 285.081 254.405 287.49 254.405 289.616C254.405 292.42 252.787 294.415 249.663 294.415C246.708 294.415 245.014 292.778 244.789 290.538H247.348C247.574 291.498 248.345 292.194 249.625 292.194C251.168 292.194 251.865 291.103 251.865 289.654C251.865 288.111 251.093 287.264 249.606 287.264C248.515 287.264 247.818 287.866 247.536 288.713H245.014V280.658Z" fill="black"/>
<path d="M129.945 275.933C129.945 276.092 129.945 276.25 129.945 276.409C129.945 278.05 129.786 280.22 128.727 281.279C128.516 281.596 128.357 281.808 128.357 281.967C128.357 282.178 130.897 283.502 131.427 285.301C131.956 288.583 132.274 291.758 132.274 295.04C132.274 302.556 131.533 310.23 119.835 310.23C113.378 310.23 108.085 308.113 107.715 301.709C107.609 300.121 107.292 298.427 107.344 296.787C107.397 295.146 107.556 293.505 107.556 291.811C107.556 291.547 107.556 291.229 107.556 290.964C107.556 288.106 107.662 284.613 109.779 282.602C109.938 282.443 110.044 282.231 110.044 281.967C110.044 280.961 108.774 278.209 108.721 276.145C108.562 271.963 108.191 268.047 108.191 264.712C108.191 259.419 110.044 255.556 118.142 255.556C125.128 255.556 128.939 257.567 129.521 269.529C129.627 271.646 129.786 273.816 129.945 275.933ZM125.499 296.892C125.234 292.552 125.393 284.772 120.841 284.772C116.66 284.931 115.654 286.624 115.654 291.123C115.76 294.246 116.078 297.051 116.501 300.597C116.713 302.397 118.406 303.191 119.994 303.191C123.805 303.191 125.234 300.703 125.499 296.892ZM122.323 272.334C122.111 268.894 122.852 262.807 119.306 262.807C114.913 262.807 115.76 267.941 115.76 271.275C115.76 274.504 116.025 280.22 118.724 280.22C122.429 280.22 122.323 276.25 122.323 272.334ZM141.397 282.231C143.567 282.231 145.631 281.967 148.013 281.967C149.653 281.967 151.453 282.284 153.094 282.231C153.517 282.231 153.94 282.178 154.364 282.178C155.422 282.178 156.11 282.443 156.11 283.66C156.11 284.931 155.793 286.307 155.687 287.577C155.687 288.053 155.74 288.477 155.74 288.953C155.74 290.912 150.235 290.435 148.595 290.435C148.118 290.382 147.642 290.382 147.166 290.382C146.16 290.382 145.207 290.488 144.202 290.488C143.461 290.488 142.667 290.329 141.979 290.329C141.608 290.329 141.185 290.382 140.814 290.382C137.692 290.382 135.363 290.912 135.363 287.842C135.469 286.413 135.627 284.984 135.627 283.555C135.627 283.502 135.627 283.396 135.627 283.343C135.627 281.649 139.862 282.231 141.397 282.231ZM158.494 259.155C158.494 258.573 158.441 257.937 158.441 257.355C158.441 255.503 158.547 255.026 161.299 255.026C164.051 255.026 170.244 255.026 170.509 257.461C171.038 262.383 171.567 267.729 171.567 273.022C171.567 273.657 171.567 274.239 171.567 274.874C171.567 278.526 172.361 282.443 172.361 286.148C172.308 286.624 172.308 287.101 172.308 287.577C172.308 288.583 172.361 289.641 172.361 290.7C172.361 294.722 172.255 298.692 172.255 302.714C172.255 304.302 172.361 305.89 172.361 307.478C172.361 310.071 171.62 310.759 169.397 310.759C168.921 310.759 168.497 310.707 168.021 310.707C167.174 310.707 166.327 310.759 165.48 310.759C163.681 310.759 164.157 304.302 164.157 302.344C164.157 301.709 164.157 301.074 164.157 300.439C164.157 298.268 164.051 295.993 164.051 293.823C164.157 292.764 164.21 291.705 164.21 290.647C164.21 289.324 164.157 288.053 164.157 286.73C164.263 282.602 164.369 278.473 164.369 274.398C164.369 273.075 164.263 271.805 164.263 270.481C164.263 269.793 164.316 268.999 164.316 268.258C164.316 266.512 164.475 262.489 163.204 262.489C161.881 262.489 160.399 262.754 159.182 262.754C158.176 262.754 158.494 260.69 158.494 259.155ZM179.597 294.669C181.079 294.669 183.196 294.246 183.355 295.569C183.355 296.204 183.249 296.998 183.249 297.739C183.249 301.656 183.884 304.514 186.107 304.514C190.129 304.514 192.247 301.55 192.247 296.575C192.247 291.07 191.77 286.148 186.001 286.148C182.931 286.148 179.756 286.624 177.056 287.154C175.786 287.154 175.892 286.466 175.892 285.566C176.315 280.802 176.686 275.827 176.686 270.958C176.686 270.375 176.633 269.793 176.633 269.211C176.633 268.629 176.686 268.1 176.686 267.517C176.686 266.141 176.58 264.924 176.58 263.601C176.58 262.966 176.633 262.33 176.633 261.642C176.633 261.113 176.58 260.531 176.58 260.002C176.58 256.455 179.861 256.985 182.296 256.985C185.366 256.985 188.595 257.461 191.506 257.461C192.935 257.832 192.988 261.06 192.988 262.595C192.829 263.601 192.405 263.707 191.294 263.707C190.235 263.548 189.23 263.495 188.171 263.495C186.372 263.495 183.725 263.124 183.725 264.712C183.99 266.882 183.99 269.052 183.99 271.169C183.99 272.546 183.725 273.763 183.725 275.086C183.725 276.621 183.566 279.373 184.784 279.373C185.578 279.373 186.424 279.162 187.271 279.162C193.94 279.162 198.915 281.596 198.915 288.847C198.915 299.009 198.492 310.071 190.659 310.759C188.965 310.918 187.165 311.13 185.419 311.13C178.327 311.13 175.468 305.202 175.468 298.11C175.468 296.575 175.415 294.616 177.056 294.616C177.903 294.616 178.75 294.669 179.597 294.669Z" fill="black"/>
<g style="mix-blend-mode:multiply">
<path d="M90.9064 58.9055L90.6425 74.9397C89.6251 75.4606 88.7673 75.7243 88.0707 75.7311C87.5596 75.736 87.0702 75.6248 86.6039 75.3969L83.6096 75.7737L79.2805 75.0492L79.0903 55.2548C78.145 53.545 76.372 50.3787 73.7711 45.7567C72.2114 42.9838 71.147 40.9956 70.5769 39.7931C69.4864 37.4803 68.6755 35.3504 68.1456 33.4035C68.0988 33.3578 68.1322 33.1945 68.2453 32.9147C68.3596 32.6352 68.4155 32.4716 68.4155 32.4255C68.4124 32.1465 68.2593 31.8808 67.9547 31.628C67.6501 31.3757 67.4976 31.2255 67.497 31.1794L64.3831 26.2601L63.8949 26.265C63.7558 26.2662 64.3107 26.0286 65.561 25.5519C66.9548 25.4918 69.0202 25.24 71.7573 24.7952L76.8315 23.2829L76.8424 24.4677C77.1785 25.5794 77.7055 27.2012 78.4223 29.3316C79.379 32.157 80.5448 34.9809 81.9198 37.8019L85.2623 44.6705C86.0409 43.5472 87.0481 41.9346 88.2821 39.8321C89.1051 38.3837 89.877 36.4938 90.598 34.1639C90.7761 33.372 91.2453 31.4621 92.0064 28.4344L92.9449 24.5916C94.1526 24.4871 95.8491 24.5636 98.0357 24.8213C98.9669 24.9976 99.5953 25.0846 99.9206 25.0815C100.014 25.0808 100.257 25.0554 100.652 25.0055C101.046 24.9544 101.382 24.9052 101.661 24.8559C102.125 24.7581 103.079 24.9119 104.523 25.3161C104.664 25.3612 104.78 25.4298 104.874 25.5222C104.782 25.6159 104.596 25.5946 104.315 25.4578L102.966 30.1407C102.877 30.5139 102.671 30.8408 102.349 31.1229C102.026 31.4043 101.843 31.662 101.799 31.8948L101.806 32.6613C101.32 35.2684 99.5248 39.4679 96.4205 45.26C95.4613 47.0356 93.5449 50.6084 90.6685 55.98L90.9061 58.9055H90.9064ZM141.833 56.1848L139.934 68.8888C139.586 71.3553 138.719 73.0597 137.334 74.0025C136.273 74.7556 133.794 75.5239 129.898 76.3044C128.461 76.5967 127.115 76.75 125.86 76.7615C121.678 76.8022 118.23 75.778 115.514 73.6895C112.799 71.6016 111.189 68.4688 110.683 64.2916L109.596 59.911C109.017 57.6395 108.266 54.486 107.345 50.453C107.246 49.8494 107.193 49.2459 107.187 48.6415C107.18 47.9443 107.218 46.9682 107.299 45.7129C107.381 44.5507 107.348 43.5752 107.201 42.7862L105.209 31.374C105.204 30.8629 105.271 30.5139 105.408 30.3267C105.679 29.4411 106.673 29.0368 108.394 29.1128C109.184 29.1516 109.742 29.1693 110.067 29.1662C110.624 29.1608 110.937 29.0999 111.006 28.9833C111.076 28.8666 111.721 28.3839 112.945 27.5354C114.167 26.6874 114.756 26.2401 114.709 26.194C116.212 27.8996 117.693 32.1132 119.152 38.8376C119.638 41.0167 119.964 43.546 120.131 46.426C120.244 48.4696 120.453 50.9768 120.761 53.9474C121.301 56.9167 122.025 59.6982 122.933 62.2918C123.265 63.0777 123.611 63.8533 123.966 64.6169C124.322 65.3798 124.941 65.7572 125.824 65.7486C126.707 65.7401 127.448 65.5006 128.048 65.0301C128.324 64.7493 128.804 64.0242 129.49 62.8559L127.94 46.6296L126.778 27.3324C128.36 27.4102 130.424 27.1812 132.975 26.6456C135.943 26.0135 137.915 25.7156 138.892 25.7521C140.518 25.7832 141.35 27.6802 141.386 31.4439C141.397 32.6055 141.238 35.3493 140.908 39.6735C140.577 43.9989 140.442 46.7646 140.499 47.9724C140.616 50.4342 141.061 53.1719 141.833 56.185L141.833 56.1848ZM161.082 35.5066C162.28 34.5188 163.571 33.5074 164.956 32.4716L177.78 25.0992L182.766 36.2038L165.798 47.5893C165.385 48.1509 164.627 48.9946 163.522 50.1209L168.436 53.6975C169.045 54.1571 169.245 54.4458 169.037 54.5637C168.829 54.6816 169.287 55.1301 170.409 55.9095C171.766 56.8723 172.823 58.0704 173.58 59.5036C174.952 62 175.732 63.3635 175.92 63.5938C177.71 66.086 179.592 68.4607 181.566 70.7188C182.175 71.3631 183.209 72.5849 184.667 74.3829C183.229 74.6297 180.628 74.7239 176.863 74.6674C173.424 74.654 171.195 74.7913 170.176 75.0807C169.33 74.1592 167.66 72.0371 165.165 68.7154L159.163 60.6883C159.165 60.7808 158.932 65.6854 158.469 75.4023C151.446 74.7725 146.773 74.5622 144.452 74.7702C144.399 74.0275 144.363 72.796 144.347 71.077C144.302 66.4306 144.549 59.4691 145.087 50.1941C145.625 40.9184 145.871 33.9567 145.826 29.3105C145.806 27.2195 145.769 25.779 145.716 24.99L145.21 23.1823C148.791 23.4729 154.117 24.0028 161.188 24.7711C161.142 24.8179 160.956 24.8435 160.631 24.8465L161.082 35.5068L161.082 35.5066ZM234.279 36.4043C234.29 37.5665 234.157 38.2187 233.879 38.3604C233.324 38.5519 233 38.7409 232.909 38.9274C233.009 39.6701 233.067 40.8542 233.082 42.4808C233.119 46.2909 232.662 51.8944 231.711 59.2925L229.441 76.9491C222.414 75.9012 217.786 75.4118 215.556 75.48C215.504 69.9966 216.133 61.8243 217.446 50.9608C218.759 40.0976 219.389 31.9244 219.336 26.4411L218.899 24.5635C219.552 24.6972 221.598 24.9793 225.042 25.4109C226.344 25.5841 228.02 25.8473 230.068 26.1986L234.816 27.0594C234.723 27.1068 234.514 27.1318 234.19 27.1347L234.278 36.4043H234.279ZM255.66 34.596C256.859 33.6088 258.15 32.5968 259.535 31.561L272.359 24.1892L277.345 35.2932L260.377 46.6787C259.964 47.2409 259.206 48.0846 258.101 49.2103L263.015 52.7875C263.623 53.2465 263.824 53.5352 263.616 53.6531C263.408 53.7716 263.865 54.2195 264.988 54.9995C266.345 55.9617 267.402 57.1604 268.159 58.5936C269.531 61.0894 270.311 62.4529 270.499 62.6832C272.289 65.1754 274.171 67.5501 276.144 69.8082C276.754 70.4525 277.788 71.6743 279.246 73.4722C277.808 73.719 275.206 73.8133 271.442 73.7568C268.003 73.7434 265.774 73.8813 264.755 74.1701C263.909 73.2486 262.239 71.1265 259.744 67.8053L253.742 59.7776C253.743 59.87 253.511 64.7747 253.048 74.4916C246.024 73.8618 241.352 73.6515 239.031 73.8594C238.977 73.1167 238.942 71.8852 238.925 70.1662C238.881 65.5198 239.127 58.5584 239.665 49.2833C240.203 40.0076 240.45 33.0466 240.405 28.3997C240.385 26.3088 240.348 24.8688 240.295 24.0792L239.789 22.2715C243.37 22.5621 248.696 23.092 255.766 23.8604C255.72 23.9071 255.535 23.9328 255.209 23.9357L255.66 34.596H255.66ZM317.888 54.4901L315.989 67.194C315.64 69.6605 314.774 71.3643 313.389 72.3071C312.328 73.0608 309.849 73.8292 305.953 74.6096C304.515 74.9019 303.17 75.0552 301.915 75.0667C297.733 75.1074 294.285 74.0833 291.569 71.9947C288.854 69.9069 287.243 66.774 286.738 62.5968L285.651 58.2162C285.072 55.9447 284.321 52.7912 283.399 48.7582C283.3 48.1546 283.248 47.5511 283.242 46.9468C283.235 46.2495 283.272 45.2734 283.354 44.0181C283.435 42.8559 283.402 41.8804 283.255 41.0914L281.263 29.6792C281.259 29.1681 281.325 28.8191 281.463 28.6319C281.733 27.7463 282.728 27.3421 284.449 27.418C285.239 27.4568 285.797 27.4745 286.122 27.4714C286.679 27.466 286.992 27.4051 287.061 27.2885C287.13 27.1718 287.776 26.6891 288.999 25.8406C290.222 24.9926 290.81 24.5453 290.764 24.4992C292.267 26.2042 293.748 30.4184 295.207 37.1429C295.693 39.3219 296.018 41.8512 296.186 44.7312C296.299 46.7748 296.508 49.2821 296.816 52.2526C297.356 55.2219 298.08 58.0034 298.987 60.597C299.32 61.3829 299.665 62.1585 300.02 62.9214C300.376 63.685 300.995 64.0624 301.879 64.0538C302.761 64.0453 303.503 63.8058 304.102 63.3354C304.379 63.0539 304.859 62.3294 305.545 61.1611L303.995 44.9348L302.833 25.6376C304.414 25.7155 306.479 25.4864 309.03 24.9508C311.998 24.3187 313.97 24.0208 314.946 24.0573C316.573 24.0884 317.405 25.9854 317.44 29.7491C317.452 30.9107 317.292 33.6545 316.963 37.9788C316.632 42.3041 316.496 45.0698 316.554 46.2777C316.671 48.7394 317.115 51.4771 317.888 54.4902V54.4901ZM357.712 35.0775L348.929 35.162C348.096 35.4951 346.918 36.1807 345.394 37.2171L346.803 53.2356L347.137 73.377C345.741 73.2974 343.722 73.4098 341.075 73.7138C338.291 74.0196 336.27 74.155 335.015 74.121C333.389 74.0899 332.532 69.5908 332.445 60.6233C332.413 57.1848 332.472 53.6756 332.623 50.0961C332.774 46.5172 332.833 43.0074 332.801 39.5695C332.789 38.3611 331.782 37.5813 329.781 37.2281C329.642 37.2294 328.898 37.1668 327.548 37.041L323.921 36.7967C321.643 36.6331 320.361 36.2271 320.076 35.5791L317.317 24.105L326.036 24.7876C329.849 25.0296 332.893 25.1395 335.17 25.1176C336.379 25.1062 337.122 25.0526 337.4 24.9572L357.597 23.1598C357.063 25.6738 356.808 28.1391 356.831 30.5554C356.851 32.5996 357.144 34.1075 357.712 35.0776L357.712 35.0775ZM377.855 35.0228C377.867 36.185 377.733 36.8366 377.456 36.9782C376.9 37.1697 376.577 37.3587 376.486 37.5459C376.586 38.2881 376.644 39.4721 376.659 41.0987C376.696 44.9087 376.239 50.5129 375.288 57.9104L373.018 75.567C365.991 74.5197 361.363 74.0297 359.133 74.0979C359.08 68.6151 359.71 60.4422 361.023 49.5787C362.336 38.7154 362.965 30.5423 362.912 25.0596L362.476 23.1813C363.128 23.3151 365.175 23.5977 368.618 24.0287C369.921 24.2025 371.597 24.4652 373.644 24.8171L378.392 25.6779C378.3 25.7246 378.091 25.7496 377.766 25.7526L377.855 35.0228H377.855ZM386.212 70.4217C385.786 69.5896 385.568 68.662 385.558 67.6396C385.541 65.9206 386.259 64.4502 387.711 63.2279C389.163 62.0056 390.748 61.3868 392.468 61.3697C394.094 61.3545 395.529 61.9326 396.772 63.1056C398.014 64.2787 398.644 65.748 398.661 67.5138C398.672 68.6291 398.425 69.654 397.923 70.5882C397.816 73.8882 396.166 76.274 392.974 77.7456C390.984 78.647 387.599 79.377 382.818 79.9344L381.832 71.5796L383.291 71.0768C384.033 70.9771 385.007 70.7583 386.212 70.4216V70.4217ZM90.771 109.995C89.8209 107.867 88.2266 106.396 85.9879 105.58C85.1954 105.309 82.9377 104.866 79.2142 104.251L79.2002 117.286C79.7145 117.606 80.5758 117.761 81.7842 117.749C81.7842 117.749 81.8528 117.725 81.9926 117.677L84.8495 117.65C86.0578 117.638 86.8493 117.793 87.2244 118.115L90.7711 109.995H90.771ZM91.343 133.271C90.3923 131.049 88.821 129.554 86.6298 128.785C86.0232 128.558 83.7663 128.139 79.8567 127.526L79.912 140.56C80.2871 140.882 81.1254 141.036 82.4261 141.024C82.3794 141.024 82.4492 141 82.6345 140.952L85.5619 140.924C86.7696 140.912 87.5148 141.092 87.7975 141.46L91.343 133.271ZM101.477 143.281C101.253 144.119 100.82 145.052 100.179 146.081C99.3094 147.39 98.3641 148.166 97.3442 148.408C97.3467 148.687 96.7667 148.833 95.6051 148.843C94.6757 148.853 93.2813 148.796 91.4214 148.674C89.5614 148.553 88.167 148.497 87.2377 148.506C85.937 148.518 85.1023 148.665 84.7328 148.948L68.1911 146.667L66.7871 94.8909C67.2994 95.0258 68.2751 95.0167 69.7138 94.8629C70.8286 94.759 72.5694 94.6495 74.9387 94.5341C76.3319 94.474 78.8447 94.8216 82.4766 95.5766C94.862 98.1526 101.157 102.856 101.363 109.684L100.677 118.124L95.1549 123.754C100.83 124.304 103.697 127.668 103.756 133.849C103.784 136.776 103.025 139.92 101.477 143.281L101.477 143.281ZM137.04 101.324C136.162 101.752 134.003 102.051 130.566 102.224C127.78 102.39 125.625 102.945 124.1 103.889L124.198 114.065L125.042 114.823C125.503 114.447 126.314 114.254 127.476 114.243C127.801 114.239 129.196 114.365 131.662 114.62C133.616 114.834 135.034 114.959 135.917 114.997C135.93 116.298 135.715 118.206 135.275 120.719C134.835 123.233 134.621 125.117 134.632 126.371L125.362 126.461C124.955 127.534 124.597 128.977 124.29 130.792C123.849 133.353 123.448 135.168 123.087 136.241C125.464 137.054 128.256 137.446 131.463 137.414C132.903 137.401 134.017 137.344 134.807 137.243L135.47 148.25L109.687 148.986L109.137 91.8343C117.552 92.3108 124.014 92.5278 128.521 92.4847C132.749 92.444 135.557 92.1376 136.946 91.5668L137.04 101.324V101.324ZM176.892 150.082C175.59 150.049 173.804 150.275 171.531 150.761C169.259 151.248 167.522 151.799 166.32 152.415C165.008 151.358 163.846 148.953 162.835 145.199L160.307 136.161C159.117 133.199 157.5 131.728 155.456 131.747C153.876 131.762 152.729 133.353 152.017 136.521C151.616 138.336 151.428 140.499 151.452 143.008C151.47 144.913 151.623 146.259 151.909 147.047C150.604 146.641 148.65 146.427 146.048 146.406C143.306 146.386 141.399 146.196 140.326 145.834L139.827 93.979C140.292 94.0671 141.292 94.0574 142.824 93.9498C144.543 93.9333 146.262 93.917 147.982 93.9C149.933 93.8818 152.562 94.2513 155.869 95.0098C168.024 97.773 174.134 102.571 174.2 109.4L173.236 117.844L167.282 129.333L176.892 150.082L176.892 150.082ZM162.315 112.862C161.41 110.593 160.07 109.002 158.296 108.09C157.268 107.542 155.288 107.051 152.356 106.614L152.5 121.529C153.014 121.85 154.062 122.072 155.643 122.196C157.224 122.32 158.109 122.591 158.299 123.007L162.315 112.862ZM203.123 108.913C202.173 106.785 200.578 105.314 198.34 104.499C197.548 104.227 195.29 103.784 191.566 103.17L191.553 116.204C192.067 116.524 192.928 116.679 194.136 116.667C194.136 116.667 194.205 116.644 194.344 116.596L197.202 116.568C198.41 116.557 199.201 116.712 199.576 117.033L203.123 108.913H203.123ZM203.695 132.189C202.745 129.967 201.173 128.473 198.982 127.703C198.375 127.477 196.118 127.058 192.208 126.445L192.264 139.479C192.639 139.8 193.477 139.955 194.778 139.942C194.732 139.943 194.802 139.919 194.987 139.871L197.914 139.842C199.121 139.831 199.867 140.009 200.149 140.379L203.695 132.189ZM213.829 142.198C213.604 143.037 213.172 143.971 212.531 144.999C211.661 146.309 210.716 147.084 209.696 147.327C209.698 147.605 209.119 147.751 207.957 147.762C207.028 147.771 205.634 147.715 203.774 147.593C201.914 147.471 200.519 147.415 199.59 147.424C198.289 147.437 197.454 147.584 197.085 147.867L180.543 145.586L179.139 93.8094C179.651 93.9444 180.627 93.9346 182.066 93.7814C183.18 93.6775 184.922 93.5674 187.291 93.4526C188.684 93.3925 191.197 93.7401 194.828 94.4951C207.214 97.0712 213.51 101.773 213.715 108.602L213.03 117.043L207.507 122.673C213.182 123.222 216.049 126.587 216.108 132.767C216.136 135.694 215.376 138.838 213.829 142.199L213.829 142.198ZM255.284 147.515C252.54 147.17 250.446 147.004 249.006 147.018C247.147 147.036 245.709 147.236 244.69 147.617C243.379 146.573 242.43 144.503 241.842 141.418C240.912 136.49 240.377 133.962 240.236 133.824C240.138 133.36 239.886 132.538 239.48 131.345C239.073 130.153 238.591 129.553 238.034 129.558C237.662 129.562 237.071 129.707 236.261 129.994C235.45 130.28 234.858 130.425 234.487 130.429C233.697 130.437 233.189 130.767 232.963 131.42L231.812 134.846C230.998 137.27 230.607 140.062 230.638 143.221C230.649 144.43 230.75 145.219 230.939 145.589C230.054 145.318 228.914 145.19 227.52 145.204C227.334 145.206 226.567 145.236 225.221 145.295C223.874 145.355 223.107 145.385 222.921 145.387C221.62 145.399 220.435 145.295 219.363 145.073C219.076 115.196 219.367 99.5792 220.237 98.2237C221.748 95.9322 223.409 94.731 225.221 94.6205C230.005 94.3895 234.609 94.8095 239.035 95.8824C246.86 97.805 250.938 101.484 251.269 106.917L250.793 115.425L251.877 126.637L255.284 147.516L255.284 147.515ZM241.329 109.777C240.003 107.199 237.924 106.069 235.092 106.375C231.792 106.314 230.172 109.385 230.232 115.577C230.24 116.413 230.347 117.934 230.555 120.151C231.906 120.509 233.232 120.682 234.533 120.67L242.13 120.597L241.329 109.777V109.777ZM272.097 98.2818C278.115 95.9002 285.792 94.5254 295.129 94.1564C296.057 98.934 296.868 103.434 297.559 107.656C293.146 107.838 288.37 108.813 283.228 110.582C276.883 112.781 273.456 116.368 272.946 121.346C273.575 123.896 275.11 126.506 277.552 129.178C279.994 131.85 282.453 133.754 284.926 134.892C285.625 135.118 286.044 135.23 286.183 135.229C287.113 135.22 287.664 134.518 287.836 133.122C287.966 132.051 288.021 130.611 288.004 128.798C288.002 128.612 287.257 128.434 285.768 128.262C284.28 128.091 283.535 127.935 283.533 127.795C283.516 125.937 283.529 124.845 283.571 124.52C283.702 123.542 284.115 123.05 284.812 123.044C285.927 123.033 288.365 122.893 292.127 122.624L297.769 122.222C298.976 122.117 299.6 124.202 299.641 128.477C299.654 129.778 299.541 132.474 299.301 136.566C299.141 139.309 299.075 142.028 299.101 144.723C299.116 146.35 299.197 147.511 299.343 148.206C299.343 148.206 298.228 148.216 295.998 148.238C290.655 148.336 285.607 147.687 280.853 146.292C273.91 144.268 268.44 140.813 264.443 135.925C260.212 130.854 258.062 124.741 257.993 117.586C257.946 112.66 259.115 108.63 261.501 105.493C263.704 102.638 267.237 100.233 272.097 98.2812L272.097 98.2818ZM338.642 146.713C335.897 146.368 333.804 146.202 332.364 146.216C330.506 146.233 329.067 146.433 328.048 146.815C326.737 145.771 325.787 143.701 325.2 140.616C324.27 135.687 323.734 133.159 323.594 133.022C323.497 132.558 323.244 131.736 322.838 130.542C322.432 129.35 321.949 128.751 321.392 128.756C321.02 128.76 320.429 128.904 319.619 129.191C318.808 129.477 318.217 129.623 317.846 129.626C317.055 129.634 316.547 129.964 316.321 130.617L315.17 134.044C314.357 136.468 313.965 139.259 313.996 142.419C314.007 143.627 314.108 144.416 314.297 144.787C313.411 144.516 312.272 144.388 310.878 144.401C310.692 144.403 309.925 144.433 308.579 144.493C307.231 144.552 306.465 144.583 306.279 144.585C304.978 144.597 303.792 144.492 302.721 144.271C302.434 114.394 302.725 98.7768 303.595 97.4208C305.107 95.1299 306.768 93.9287 308.579 93.8181C313.363 93.5872 317.967 94.0071 322.392 95.08C330.218 97.0027 334.296 100.681 334.627 106.115L334.152 114.623L335.235 125.835L338.643 146.713L338.642 146.713ZM324.686 108.974C323.36 106.397 321.282 105.267 318.45 105.573C315.15 105.512 313.53 108.582 313.589 114.774C313.598 115.61 313.706 117.132 313.913 119.348C315.264 119.706 316.59 119.88 317.891 119.867L325.488 119.794L324.686 108.974V108.974ZM360.077 106.984C360.088 108.147 359.955 108.798 359.678 108.94C359.122 109.131 358.798 109.32 358.707 109.507C358.807 110.25 358.865 111.434 358.881 113.06C358.917 116.87 358.46 122.475 357.509 129.872L355.239 147.529C348.212 146.481 343.584 145.991 341.354 146.059C341.302 140.577 341.932 132.404 343.244 121.54C344.557 110.677 345.187 102.504 345.135 97.0211L344.697 95.1429C345.35 95.2767 347.397 95.5593 350.84 95.9903C352.143 96.1641 353.818 96.4268 355.867 96.7787L360.614 97.6395C360.521 97.6862 360.313 97.7112 359.988 97.7142L360.077 106.984H360.077ZM420.205 133.242C419.657 134.222 419.392 135.666 419.41 137.571C419.427 139.383 419.825 142.051 420.602 145.575L397.655 143.984C397.281 143.755 396.768 143.645 396.118 143.651C396.072 143.651 395.167 143.822 393.405 144.164C392.848 144.263 392.36 144.314 391.942 144.318L391.892 124.662C392.663 122.656 393.031 119.818 392.996 116.147C392.974 113.871 392.833 111.316 392.573 108.484C392.366 106.209 392.248 103.631 392.22 100.75C392.183 96.8943 392.884 94.9121 394.323 94.8057C395.624 94.7461 397.67 94.8429 400.46 95.0945C403.53 95.3905 405.529 95.5102 406.459 95.455L406.512 115.529L405.412 131.641C406.438 132.05 407.63 132.713 408.987 133.629L420.205 133.242ZM467.976 114.102C468.036 120.235 466.584 126.313 463.622 132.336C459.702 140.32 454.118 144.347 446.87 144.417C442.455 144.459 438.358 143.546 434.575 141.677C431.494 140.126 428.907 137.015 426.818 132.342C424.965 128.131 424.02 124.074 423.982 120.171C423.938 115.524 425.239 110.749 427.887 105.844C430.352 101.22 433.521 97.3557 437.395 94.2508C441.638 90.8645 445.896 89.1504 450.171 89.1097C457.419 89.0399 462.443 92.0123 465.243 98.0262C466.999 101.82 467.91 107.178 467.976 114.102V114.102ZM454.669 114.717C454.637 111.419 453.207 107.668 450.379 103.467C449.408 103.987 447.211 105.031 443.787 106.597C439.306 114.215 437.078 119.254 437.102 121.717C437.126 124.273 437.66 126.569 438.702 128.602C440.027 131.146 441.851 132.406 444.174 132.384C447.102 132.356 449.66 130.124 451.847 125.688C453.762 121.812 454.702 118.156 454.669 114.717L454.669 114.717ZM532.945 143.588C532.913 145.029 531.693 146.156 529.284 146.969C527.478 147.591 525.622 147.864 523.715 147.789C522.507 147.755 520.935 143.797 519.001 135.915L514.213 116.444C513.036 119.709 512.1 123.877 511.406 128.948C510.494 135.648 509.904 139.511 509.635 140.536C507.962 140.459 506.707 140.425 505.87 140.433C502.618 140.464 499.321 140.751 495.98 141.295L493.136 128.148C492.019 123.187 490.7 118.947 489.179 115.43C488.068 120.692 487.309 126.299 486.902 132.251L485.867 147.875L485.038 148.58C484.76 148.815 484.367 148.935 483.856 148.94C483.854 148.754 483.806 148.615 483.712 148.523C482.187 149.374 480.89 149.781 479.821 149.746C474.569 149.61 471.249 149.851 469.86 150.469L470.015 144.891C470.052 143.775 470.206 143.007 470.481 142.586C470.573 142.446 471.148 141.859 472.207 140.827C473.109 128.225 474.695 116.802 476.966 106.557C477.054 106.137 477.096 105.557 477.088 104.813C477.083 104.209 477.027 103.292 476.923 102.061C476.818 100.831 476.762 99.9129 476.756 99.31C476.74 97.6367 476.982 96.2172 477.483 95.0508C485.988 95.201 491.569 95.7516 494.227 96.7017C494.621 98.975 494.915 100.645 495.111 101.711C497.112 111.59 498.684 118.011 499.828 120.975C501.491 115.196 502.697 110.096 503.445 105.674L505.751 91.851L519.35 92.4869C522.169 100.591 525.172 110.809 528.357 123.139C531.494 135.191 533.023 142.008 532.945 143.588ZM558.439 105.493C557.489 103.365 555.895 101.894 553.657 101.079C552.864 100.807 550.606 100.364 546.883 99.7494L546.869 112.784C547.383 113.104 548.244 113.259 549.453 113.247C549.453 113.247 549.522 113.223 549.661 113.175L552.518 113.148C553.727 113.137 554.518 113.292 554.893 113.613L558.44 105.493H558.439ZM559.012 128.769C558.061 126.547 556.49 125.053 554.298 124.284C553.692 124.057 551.435 123.637 547.525 123.025L547.58 136.059C547.955 136.38 548.794 136.535 550.095 136.522C550.048 136.523 550.118 136.499 550.304 136.451L553.23 136.422C554.438 136.411 555.183 136.589 555.466 136.958L559.012 128.769ZM569.145 138.778C568.921 139.617 568.489 140.551 567.847 141.579C566.978 142.889 566.032 143.664 565.013 143.907C565.015 144.185 564.436 144.331 563.274 144.342C562.345 144.351 560.95 144.294 559.09 144.173C557.23 144.051 555.836 143.995 554.907 144.004C553.606 144.017 552.771 144.164 552.401 144.446L535.859 142.166L534.455 90.3892C534.968 90.5242 535.943 90.515 537.383 90.3613C538.497 90.2574 540.238 90.1479 542.607 90.0325C544 89.9724 546.513 90.32 550.145 91.0749C562.531 93.651 568.826 98.3533 569.031 105.182L568.346 113.623L562.823 119.253C568.498 119.802 571.365 123.167 571.425 129.347C571.453 132.274 570.693 135.418 569.146 138.778L569.145 138.778ZM610.601 144.095C607.856 143.75 605.763 143.584 604.323 143.598C602.464 143.615 601.025 143.815 600.007 144.197C598.696 143.153 597.747 141.083 597.159 137.998C596.229 133.069 595.693 130.542 595.552 130.404C595.455 129.94 595.203 129.118 594.797 127.925C594.39 126.733 593.908 126.133 593.351 126.138C592.979 126.142 592.388 126.287 591.577 126.573C590.767 126.86 590.175 127.006 589.804 127.009C589.014 127.017 588.506 127.347 588.28 127.999L587.128 131.426C586.315 133.85 585.923 136.642 585.954 139.801C585.966 141.01 586.066 141.799 586.255 142.169C585.37 141.898 584.231 141.77 582.837 141.783C582.651 141.785 581.884 141.816 580.537 141.875C579.19 141.935 578.423 141.965 578.237 141.967C576.937 141.979 575.751 141.875 574.68 141.653C574.392 111.776 574.684 96.1596 575.553 94.8036C577.065 92.5127 578.726 91.3109 580.537 91.2003C585.321 90.9693 589.926 91.3893 594.351 92.4622C602.176 94.3848 606.254 98.0635 606.585 103.497L606.11 112.005L607.193 123.217L610.601 144.095L610.601 144.095ZM596.645 106.357C595.319 103.779 593.241 102.649 590.409 102.955C587.109 102.894 585.489 105.964 585.549 112.157C585.556 112.993 585.664 114.514 585.871 116.731C587.222 117.089 588.549 117.262 589.85 117.25L597.446 117.177L596.645 106.357V106.357ZM111.654 179.563C112.853 178.576 114.144 177.565 115.529 176.529L128.353 169.156L133.339 180.261L116.371 191.646C115.958 192.208 115.2 193.052 114.095 194.178L119.009 197.755C119.618 198.214 119.817 198.502 119.61 198.621C119.402 198.739 119.859 199.187 120.982 199.967C122.339 200.929 123.396 202.128 124.153 203.561C125.525 206.057 126.304 207.42 126.493 207.65C128.282 210.143 130.164 212.518 132.138 214.776C132.747 215.42 133.782 216.642 135.24 218.44C133.801 218.687 131.2 218.781 127.436 218.724C123.997 218.711 121.768 218.849 120.748 219.137C119.903 218.216 118.233 216.094 115.738 212.772L109.736 204.745C109.737 204.838 109.505 209.742 109.042 219.459C102.018 218.83 97.3456 218.619 95.0243 218.827C94.9715 218.084 94.9356 216.853 94.9191 215.134C94.8741 210.487 95.1209 203.526 95.6589 194.251C96.1969 184.975 96.4435 178.014 96.3993 173.367C96.3792 171.277 96.3421 169.836 96.2881 169.047L95.783 167.239C99.3631 167.53 104.69 168.06 111.76 168.828C111.714 168.874 111.529 168.9 111.203 168.904L111.654 179.563H111.654ZM168.258 172.814C167.379 173.242 165.221 173.541 161.784 173.714C158.998 173.88 156.842 174.435 155.318 175.379L155.416 185.555L156.259 186.313C156.721 185.937 157.532 185.744 158.694 185.733C159.019 185.729 160.414 185.855 162.88 186.111C164.834 186.324 166.252 186.449 167.135 186.487C167.148 187.788 166.934 189.696 166.493 192.209C166.053 194.723 165.838 196.607 165.85 197.861L156.581 197.951C156.173 199.024 155.815 200.468 155.507 202.283C155.067 204.843 154.666 206.659 154.305 207.731C156.682 208.544 159.475 208.936 162.681 208.905C164.121 208.891 165.236 208.834 166.025 208.733L166.688 219.741L140.905 220.476L140.355 163.325C148.77 163.801 155.232 164.018 159.739 163.975C163.967 163.934 166.776 163.628 168.165 163.057L168.258 172.814V172.814ZM186.711 170.895C192.729 168.513 200.406 167.138 209.743 166.769C210.672 171.547 211.482 176.047 212.174 180.269C207.761 180.45 202.984 181.426 197.843 183.195C191.497 185.393 188.07 188.981 187.561 193.958C188.189 196.509 189.725 199.119 192.167 201.791C194.609 204.463 197.067 206.367 199.54 207.505C200.24 207.731 200.659 207.843 200.799 207.842C201.727 207.833 202.279 207.13 202.451 205.734C202.58 204.664 202.636 203.223 202.618 201.411C202.616 201.225 201.871 201.047 200.383 200.875C198.894 200.703 198.149 200.548 198.148 200.408C198.13 198.55 198.143 197.458 198.186 197.132C198.316 196.155 198.73 195.664 199.427 195.657C200.542 195.646 202.98 195.506 206.742 195.238L212.384 194.835C213.591 194.73 214.215 196.815 214.256 201.09C214.268 202.391 214.155 205.087 213.916 209.179C213.756 211.922 213.689 214.641 213.715 217.336C213.731 218.963 213.812 220.124 213.958 220.819C213.958 220.819 212.843 220.829 210.612 220.851C205.269 220.949 200.222 220.301 195.468 218.906C188.525 216.881 183.055 213.426 179.058 208.538C174.826 203.468 172.676 197.354 172.608 190.199C172.56 185.273 173.73 181.242 176.116 178.106C178.32 175.25 181.851 172.846 186.711 170.894L186.711 170.895ZM236.846 179.961C236.857 181.124 236.724 181.775 236.447 181.917C235.891 182.108 235.568 182.297 235.476 182.485C235.576 183.227 235.634 184.411 235.65 186.037C235.686 189.847 235.229 195.452 234.278 202.849L232.008 220.506C224.981 219.458 220.353 218.968 218.123 219.036C218.07 213.554 218.701 205.381 220.013 194.517C221.326 183.654 221.956 175.481 221.903 169.998L221.466 168.12C222.118 168.254 224.166 168.536 227.608 168.967C228.912 169.141 230.587 169.404 232.635 169.756L237.383 170.616C237.291 170.663 237.082 170.688 236.756 170.691L236.846 179.961H236.846ZM276.396 219.103C273.651 218.758 271.558 218.592 270.118 218.606C268.259 218.623 266.82 218.823 265.802 219.205C264.491 218.161 263.542 216.09 262.954 213.006C262.024 208.077 261.488 205.55 261.348 205.412C261.25 204.947 260.998 204.126 260.592 202.933C260.185 201.74 259.703 201.141 259.146 201.146C258.774 201.15 258.183 201.295 257.373 201.581C256.562 201.867 255.97 202.013 255.599 202.016C254.809 202.024 254.301 202.354 254.075 203.007L252.923 206.433C252.11 208.858 251.719 211.65 251.75 214.809C251.761 216.017 251.861 216.806 252.05 217.177C251.165 216.906 250.026 216.778 248.632 216.791C248.446 216.793 247.679 216.823 246.332 216.883C244.985 216.943 244.218 216.973 244.032 216.975C242.732 216.987 241.546 216.882 240.475 216.661C240.187 186.783 240.479 171.167 241.348 169.811C242.86 167.52 244.521 166.319 246.333 166.209C251.116 165.977 255.721 166.397 260.146 167.47C267.972 169.393 272.049 173.071 272.38 178.505L271.905 187.013L272.989 198.225L276.396 219.103L276.396 219.103ZM262.44 181.365C261.114 178.786 259.036 177.657 256.204 177.963C252.904 177.902 251.284 180.972 251.344 187.164C251.351 188.001 251.459 189.521 251.666 191.738C253.018 192.097 254.344 192.27 255.645 192.257L263.241 192.184L262.44 181.365V181.365ZM316.648 179.054L307.865 179.138C307.032 179.472 305.854 180.157 304.33 181.194L305.739 197.212L306.073 217.353C304.678 217.274 302.657 217.386 300.012 217.69C297.227 217.996 295.207 218.132 293.951 218.097C292.325 218.066 291.468 213.567 291.382 204.6C291.349 201.161 291.408 197.652 291.559 194.072C291.711 190.494 291.77 186.984 291.737 183.546C291.726 182.338 290.719 181.558 288.717 181.205C288.577 181.206 287.834 181.143 286.485 181.017L282.858 180.773C280.579 180.61 279.297 180.204 279.012 179.556L276.253 168.081L284.973 168.764C288.785 169.006 291.83 169.116 294.107 169.094C295.315 169.083 296.058 169.029 296.336 168.934L316.533 167.136C315.999 169.651 315.745 172.116 315.768 174.532C315.787 176.576 316.08 178.084 316.648 179.054L316.648 179.054ZM353.202 218.364C350.457 218.018 348.364 217.853 346.924 217.866C345.066 217.884 343.627 218.084 342.608 218.466C341.297 217.422 340.348 215.351 339.76 212.266C338.83 207.338 338.294 204.81 338.154 204.672C338.056 204.208 337.804 203.387 337.398 202.193C336.992 201.001 336.509 200.401 335.952 200.407C335.58 200.41 334.989 200.555 334.179 200.842C333.368 201.128 332.777 201.274 332.406 201.277C331.616 201.285 331.107 201.615 330.881 202.267L329.73 205.694C328.917 208.118 328.525 210.91 328.556 214.07C328.567 215.278 328.668 216.067 328.857 216.437C327.972 216.167 326.832 216.039 325.438 216.052C325.252 216.054 324.486 216.084 323.139 216.144C321.792 216.203 321.025 216.234 320.839 216.235C319.539 216.248 318.353 216.143 317.281 215.921C316.994 186.044 317.285 170.428 318.155 169.072C319.666 166.781 321.327 165.579 323.139 165.469C327.923 165.237 332.528 165.658 336.953 166.731C344.778 168.653 348.856 172.331 349.187 177.766L348.711 186.274L349.795 197.486L353.203 218.364L353.202 218.364ZM339.246 180.625C337.921 178.047 335.842 176.917 333.011 177.224C329.711 177.162 328.09 180.233 328.15 186.425C328.158 187.261 328.265 188.782 328.473 190.999C329.824 191.357 331.15 191.531 332.451 191.518L340.048 191.445L339.246 180.625ZM390.937 163.004L404.528 162.943L401.08 188.558C400.991 188.93 400.877 189.187 400.74 189.327C399.933 192.448 399.324 196.823 398.914 202.449C398.463 208.681 398.04 213.099 397.647 215.705C393.047 215.749 388.545 216.257 384.14 217.229C380.529 204.253 377.307 192.945 374.473 183.307C373.388 191.264 372.774 202.283 372.63 216.364C372.219 217.111 371.573 217.513 370.691 217.568C370.643 217.476 370.549 217.429 370.41 217.431C370.224 217.433 369.621 217.625 368.603 218.006C367.77 218.385 367.145 218.624 366.728 218.721L361.919 218.767C360.108 218.889 358.601 219.299 357.4 219.996C357.399 219.856 357.345 219.09 357.238 217.697C357.186 217.001 357.155 216.257 357.147 215.467C357.122 212.772 357.799 210.768 359.181 209.454C359.236 205.596 359.878 199.92 361.108 192.428C362.336 184.934 362.933 179.212 362.894 175.263C362.88 173.776 362.822 172.615 362.721 171.78C362.317 168.391 362.339 165.858 362.788 164.181C371.475 163.958 377.124 164.275 379.735 165.133C381.432 177.339 383.735 187.283 386.644 194.97C387.799 189.521 388.655 184.216 389.209 179.053L390.937 163.004H390.937ZM473.235 182.496C471.888 182.509 469.9 182.307 467.269 181.891C464.64 181.475 462.675 181.273 461.374 181.285C461.69 180.353 461.844 179.445 461.836 178.563C461.819 176.797 461.234 175.246 460.083 173.909C458.932 172.573 457.473 171.913 455.707 171.93C453.477 171.952 451.679 173.409 450.313 176.303C450.57 178.949 453.411 181.967 458.834 185.353L470.475 192.629C471.673 196.382 472.278 198.909 472.29 200.21C472.322 203.509 470.556 207.069 466.991 210.891C463.426 214.712 459.995 216.639 456.696 216.67C452.188 216.714 447.784 215.338 443.482 212.545C438.713 209.478 436.307 205.807 436.267 201.532L436.217 196.374L438.374 196.005C438.374 196.005 438.743 195.77 439.482 195.297C439.899 195.154 440.363 195.08 440.875 195.075C441.525 195.069 441.991 195.227 442.273 195.55L442.274 195.689C442.649 196.057 443.325 196.26 444.302 196.297C444.302 196.297 445.068 196.289 446.602 196.274C447.318 198.359 448.011 200.234 448.677 201.901C449.533 203.984 450.503 205.716 451.585 207.1L454.582 207.072C456.777 203.426 457.867 200.79 457.851 199.164C455.931 197.602 453.101 195.677 449.362 193.391C445.295 190.92 442.464 188.879 440.869 187.268C438.382 184.737 437.123 181.89 437.092 178.731C437.061 175.525 438.42 171.888 441.169 167.818C443.919 163.748 446.776 161.282 449.742 160.417C450.9 160.08 454.243 159.886 459.773 159.832C461.818 159.813 464.553 161.599 467.981 165.19C471.407 168.782 473.13 171.53 473.148 173.435L473.236 182.496H473.235ZM505.732 169.566C504.853 169.993 502.695 170.292 499.258 170.466C496.472 170.632 494.316 171.187 492.791 172.13L492.889 182.306L493.734 183.065C494.195 182.689 495.006 182.495 496.168 182.484C496.493 182.481 497.888 182.607 500.354 182.862C502.307 183.075 503.725 183.201 504.609 183.239C504.622 184.54 504.407 186.447 503.967 188.96C503.526 191.475 503.312 193.359 503.324 194.613L494.054 194.703C493.646 195.775 493.289 197.219 492.981 199.034C492.541 201.594 492.14 203.41 491.779 204.483C494.156 205.296 496.948 205.688 500.155 205.656C501.595 205.642 502.71 205.586 503.499 205.485L504.162 216.492L478.379 217.228L477.829 160.076C486.244 160.553 492.705 160.77 497.213 160.726C501.441 160.685 504.249 160.38 505.638 159.809L505.732 169.566V169.566ZM545.584 218.324C544.282 218.29 542.496 218.517 540.223 219.003C537.951 219.49 536.213 220.041 535.012 220.656C533.7 219.6 532.538 217.195 531.526 213.441L528.999 204.403C527.809 201.441 526.192 199.969 524.148 199.989C522.568 200.004 521.421 201.595 520.708 204.762C520.308 206.578 520.119 208.741 520.144 211.25C520.162 213.155 520.314 214.501 520.601 215.288C519.295 214.883 517.342 214.669 514.739 214.648C511.997 214.628 510.091 214.437 509.018 214.075L508.519 162.22C508.984 162.309 509.984 162.299 511.515 162.192C513.235 162.175 514.954 162.158 516.673 162.142C518.625 162.123 521.254 162.493 524.561 163.251C536.716 166.015 542.826 170.812 542.891 177.642L541.927 186.086L535.974 197.575L545.583 218.324L545.584 218.324ZM531.006 181.103C530.101 178.835 528.762 177.244 526.987 176.332C525.96 175.784 523.98 175.293 521.048 174.856L521.192 189.771C521.706 190.091 522.754 190.313 524.335 190.438C525.916 190.562 526.801 190.832 526.991 191.249L531.006 181.103ZM582.795 195.521L580.896 208.225C580.548 210.691 579.682 212.396 578.296 213.338C577.235 214.092 574.756 214.86 570.86 215.641C569.423 215.933 568.076 216.086 566.822 216.098C562.64 216.138 559.191 215.115 556.476 213.026C553.76 210.938 552.151 207.805 551.646 203.628L550.558 199.247C549.978 196.975 549.228 193.823 548.306 189.789C548.208 189.186 548.155 188.582 548.149 187.978C548.142 187.281 548.18 186.305 548.261 185.05C548.343 183.887 548.309 182.912 548.163 182.123L546.171 170.711C546.166 170.199 546.232 169.85 546.37 169.663C546.64 168.778 547.635 168.373 549.355 168.449C550.146 168.488 550.704 168.506 551.029 168.503C551.586 168.497 551.899 168.436 551.968 168.32C552.037 168.203 552.683 167.72 553.907 166.872C555.129 166.024 555.717 165.577 555.671 165.531C557.174 167.236 558.656 171.45 560.114 178.174C560.6 180.353 560.926 182.883 561.093 185.763C561.206 187.806 561.415 190.313 561.723 193.284C562.263 196.253 562.987 199.035 563.894 201.628C564.227 202.414 564.572 203.19 564.928 203.953C565.283 204.716 565.903 205.094 566.786 205.085C567.669 205.077 568.409 204.837 569.009 204.367C569.285 204.085 569.766 203.361 570.452 202.192L568.902 185.966L567.74 166.669C569.321 166.747 571.386 166.518 573.937 165.982C576.904 165.35 578.877 165.052 579.853 165.089C581.48 165.12 582.311 167.017 582.348 170.78C582.359 171.942 582.199 174.686 581.869 179.01C581.539 183.335 581.403 186.101 581.461 187.309C581.578 189.771 582.023 192.508 582.795 195.522V195.521ZM603.758 164.649C603.479 164.699 603.293 164.724 603.2 164.724L603.266 171.485C603.274 172.322 603.139 172.787 602.861 172.883C602.305 173.028 602.004 173.193 601.96 173.379C602.063 174.401 602.117 175.26 602.124 175.957C602.151 178.699 601.702 182.815 600.779 188.307L598.604 201.294C592.137 200.52 587.742 200.144 585.419 200.166C585.38 196.124 585.997 190.135 587.268 182.199C588.539 174.264 589.155 168.275 589.116 164.233L588.754 162.843C589.405 162.93 591.359 163.12 594.615 163.413C595.591 163.497 597.173 163.691 599.361 163.995C601.966 164.341 603.432 164.56 603.758 164.649V164.649ZM592.888 215.777C591.076 215.795 589.525 215.171 588.235 213.906C586.945 212.639 586.291 211.101 586.274 209.289C586.257 207.57 586.975 206.099 588.427 204.877C589.879 203.654 591.464 203.036 593.184 203.019C594.81 203.003 596.244 203.581 597.487 204.755C598.73 205.927 599.36 207.397 599.377 209.163C599.394 210.975 598.77 212.526 597.504 213.816C596.239 215.106 594.7 215.76 592.888 215.777H592.888Z" fill="#8452A9" fill-opacity="0.65098"/>
</g>
<path fill-rule="evenodd" clip-rule="evenodd" d="M4.75013 202.872L42.1086 202.875L84.2825 203.555L81.3904 191.966L80.0538 178.168L84.4625 170.204L80.221 160.084C27.0003 160.303 104.747 161.961 51.1583 160.992L28.2635 159.373L0 163.975L9.51331 166.903C9.51331 166.903 5.75082 172.206 5.87165 174.437C5.99202 176.668 11.8188 177.785 10.4845 182.248C9.15034 186.711 7.69209 197.731 7.69209 197.731L4.75013 202.872Z" fill="url(#paint0_linear_107_37)"/>
<path d="M77.8708 56.6289L78.2134 72.6618C77.2166 73.2209 76.37 73.5169 75.6738 73.55C75.1632 73.5742 74.6704 73.4813 74.1952 73.2713L71.218 73.7616L66.865 73.2007L65.9261 53.428C64.9163 51.7548 63.0248 48.658 60.2516 44.1378C58.5876 41.4256 57.4485 39.4794 56.8342 38.299C55.6565 36.029 54.7661 33.9314 54.1629 32.0062C54.1143 31.962 54.1298 31.7985 54.2094 31.5156C54.3354 31.2305 54.3973 31.0647 54.3951 31.0183C54.3819 30.7398 54.2073 30.4922 53.8714 30.2756C53.5797 30.0103 53.4327 29.8545 53.4305 29.8081L50.1324 25.0104L49.6451 25.0335C49.5058 25.0401 50.0518 24.7816 51.283 24.2579C52.6732 24.1454 54.7276 23.8153 57.4463 23.2675L62.4592 21.5641L62.5154 22.7477C62.8932 23.8462 63.4809 25.4465 64.2786 27.5485C65.3413 30.3357 66.6129 33.113 68.0934 35.8804L71.6929 42.6176C72.4291 41.4661 73.3741 39.8163 74.5282 37.6682C75.2953 36.1897 75.9951 34.2724 76.6275 31.9164C76.7757 31.1185 77.1727 29.1924 77.8185 26.1379L78.6114 22.2625C79.8137 22.1123 81.5123 22.1247 83.707 22.2996C84.6441 22.4412 85.2751 22.5043 85.6 22.4888C85.6928 22.4844 85.9238 22.4502 86.2929 22.3861C86.7085 22.3199 87.0544 22.2569 87.3307 22.1973C87.7904 22.0824 88.7496 22.1997 90.2083 22.5491C90.3497 22.5889 90.4691 22.653 90.5663 22.7415C90.4779 22.8387 90.2911 22.8243 90.006 22.6983L88.8351 27.4291C88.7599 27.8048 88.5665 28.1396 88.2548 28.4335C87.9431 28.7275 87.7696 28.9916 87.7342 29.2258L87.7705 29.9917C87.3834 32.6151 85.7484 36.8795 82.8655 42.7848C81.9745 44.5949 80.1937 48.2382 77.5231 53.7147L77.8708 56.6289ZM128.656 51.9844L127.239 64.7515C126.984 67.2291 126.183 68.9651 124.834 69.9595C123.802 70.7529 121.354 71.6134 117.491 72.5412C116.065 72.888 114.726 73.0912 113.472 73.1507C109.295 73.349 105.811 72.4678 103.02 70.507C100.226 68.4997 98.4981 65.4185 97.8356 61.2632L96.583 56.9266C95.918 54.6787 95.0487 51.5567 93.9751 47.5605C93.8536 46.9615 93.7785 46.3603 93.7499 45.7569C93.7168 45.0607 93.7169 44.0838 93.7503 42.8262C93.788 41.6614 93.7185 40.6878 93.5418 39.9054L91.1198 28.5766C91.0956 28.066 91.1486 27.7146 91.2791 27.5224C91.5157 26.6273 92.4949 26.1853 94.2166 26.1966C95.0079 26.2056 95.566 26.2023 95.8909 26.1869C96.4478 26.1605 96.7473 26.0997 96.7893 26.0047C96.8755 25.861 97.5022 25.3428 98.6693 24.45C99.8828 23.5551 100.465 23.0855 100.417 23.0413C101.983 24.6881 103.623 28.8435 105.335 35.5075C105.903 37.667 106.324 40.1822 106.6 43.0533C106.79 45.0912 107.095 47.5888 107.514 50.5461C108.166 53.4924 108.994 56.2442 110 58.8015C110.362 59.5752 110.725 60.3488 111.087 61.1224C111.493 61.8474 112.138 62.189 113.02 62.1471C113.901 62.1052 114.633 61.8379 115.214 61.3451C115.48 61.0534 115.933 60.3108 116.574 59.1174L114.411 42.9615L112.521 23.7225C114.103 23.7404 116.159 23.4335 118.687 22.8017C121.629 22.0572 123.589 21.6851 124.566 21.6852C126.192 21.6545 127.095 23.5189 127.273 27.2785C127.329 28.4389 127.273 31.1862 127.107 35.5204C126.94 39.8546 126.909 42.6239 127.013 43.8285C127.222 46.2841 127.77 49.0027 128.656 51.9844ZM147.123 30.5925C148.283 29.5605 149.535 28.5008 150.879 27.4136L163.416 19.5613L168.818 30.4694L152.293 42.4885C151.902 43.0653 151.176 43.9372 150.115 45.104L155.16 48.4929C155.785 48.9284 155.985 49.2213 155.76 49.3716C155.579 49.4732 156.064 49.8921 157.215 50.6283C158.607 51.5391 159.709 52.6963 160.52 54.0998C161.985 56.5423 162.816 57.8752 163.013 58.0985C164.895 60.5211 166.866 62.8233 168.923 65.005C169.557 65.6262 170.637 66.8077 172.162 68.5495C170.734 68.8499 168.138 69.043 164.374 69.1287C160.937 69.2454 158.714 69.4672 157.707 69.7942C156.827 68.9056 155.078 66.8487 152.459 63.6237L146.158 55.8285C146.162 55.9214 146.116 60.8313 146.02 70.5585C138.978 70.195 134.302 70.1613 131.99 70.4571C131.908 69.7167 131.826 68.4878 131.745 66.7705C131.524 62.129 131.497 55.1757 131.661 45.9105C131.87 36.5967 131.865 29.6191 131.644 24.9776C131.545 22.8889 131.454 21.4512 131.37 20.6643L130.796 18.8773C134.386 19.0325 139.728 19.3603 146.822 19.8608C146.778 19.9094 146.594 19.9414 146.269 19.9568L147.123 30.5925ZM220.261 28.7244C220.316 29.8848 220.208 30.5412 219.936 30.6936C219.388 30.9057 219.072 31.1068 218.988 31.2969C219.116 32.0351 219.218 33.2165 219.296 34.841C219.476 38.647 219.231 44.2642 218.561 51.6927L216.96 69.4228C209.899 68.6416 205.255 68.3271 203.029 68.4793C202.769 63.0024 203.079 54.8236 203.958 43.9428C204.881 33.0135 205.212 24.8103 204.952 19.3334L204.445 17.4734C205.102 17.5818 207.158 17.7865 210.615 18.0876C211.923 18.2115 213.608 18.4107 215.667 18.685L220.445 19.3653C220.354 19.4161 220.146 19.4492 219.821 19.4647L220.261 28.7244ZM241.561 26.108C242.722 25.076 243.974 24.0164 245.318 22.9291L257.854 15.0768L263.257 25.9849L246.732 38.0041C246.34 38.5809 245.614 39.4527 244.553 40.6196L249.598 44.0085C250.224 44.444 250.424 44.7369 250.198 44.8871C250.017 44.9888 250.502 45.4077 251.654 46.1438C253.046 47.0546 254.148 48.2118 254.959 49.6154C256.424 52.0579 257.254 53.3907 257.451 53.614C259.334 56.0366 261.304 58.3388 263.361 60.5206C263.996 61.1417 265.075 62.3232 266.6 64.0651C265.172 64.3655 262.576 64.5585 258.812 64.6442C255.375 64.7609 253.153 64.9827 252.145 65.3097C251.266 64.4211 249.516 62.3643 246.898 59.1392L240.596 51.3441C240.601 51.4369 240.555 56.3469 240.459 66.074C233.417 65.7106 228.74 65.6768 226.428 65.9727C226.346 65.2322 226.265 64.0034 226.183 62.286C225.963 57.6445 225.935 50.6912 226.1 41.426C226.309 32.1122 226.303 25.1346 226.083 20.4931C225.984 18.4045 225.892 16.9667 225.808 16.1799L225.235 14.3928C228.824 14.548 234.166 14.8759 241.261 15.3763C241.217 15.4249 241.032 15.457 240.707 15.4724L241.561 26.108ZM304.479 43.6354L303.062 56.4025C302.807 58.8801 302.006 60.6161 300.657 61.6105C299.625 62.4038 297.177 63.2644 293.313 64.1922C291.888 64.539 290.548 64.7421 289.295 64.8017C285.118 65 281.634 64.1188 278.842 62.158C276.049 60.1507 274.321 57.0694 273.658 52.9142L272.406 48.5776C271.741 46.3297 270.872 43.2077 269.798 39.2115C269.676 38.6125 269.601 38.0113 269.573 37.4079C269.54 36.7117 269.54 35.7348 269.573 34.4772C269.611 33.3124 269.541 32.3388 269.365 31.5563L266.943 20.2276C266.918 19.717 266.972 19.3656 267.102 19.1733C267.339 18.2782 268.318 17.8363 270.039 17.8476C270.831 17.8565 271.389 17.8533 271.714 17.8379C272.271 17.8114 272.57 17.7507 272.612 17.6557C272.698 17.512 273.325 16.9938 274.492 16.101C275.706 15.206 276.288 14.7365 276.24 14.6922C277.806 16.3391 279.446 20.4945 281.158 27.1585C281.726 29.3179 282.147 31.8332 282.423 34.7043C282.613 36.7421 282.918 39.2397 283.337 42.197C283.989 45.1433 284.817 47.8952 285.823 50.4525C286.185 51.2261 286.547 51.9997 286.91 52.7734C287.316 53.4984 287.961 53.8399 288.842 53.7981C289.724 53.7562 290.456 53.4888 291.037 52.996C291.303 52.7043 291.756 51.9618 292.397 50.7683L290.234 34.6125L288.344 15.3735C289.926 15.3914 291.982 15.0844 294.51 14.4527C297.452 13.7082 299.412 13.3361 300.388 13.3362C302.015 13.3055 302.918 15.1699 303.096 18.9295C303.151 20.0898 303.096 22.8371 302.929 27.1713C302.763 31.5055 302.732 34.2749 302.836 35.4795C303.045 37.9351 303.593 40.6537 304.479 43.6354ZM343.553 22.7302L334.781 23.1468C333.961 23.5114 332.809 24.2406 331.326 25.3344L333.34 41.288L334.435 61.4022C333.038 61.3755 331.023 61.5642 328.391 61.9683C325.619 62.379 323.605 62.5909 322.35 62.604C320.723 62.6347 319.697 58.1711 319.272 49.213C319.109 45.7784 319.035 42.2696 319.051 38.6869C319.067 35.1041 318.994 31.5954 318.83 28.1607C318.773 26.954 317.738 26.2123 315.724 25.9357C315.585 25.9424 314.839 25.908 313.486 25.8327L309.853 25.7261C307.57 25.6484 306.274 25.2913 305.964 24.6547L302.773 13.2927L311.512 13.6453C315.331 13.7431 318.378 13.738 320.653 13.63C321.859 13.5727 322.6 13.491 322.874 13.3849L342.988 10.8249C342.55 13.3577 342.389 15.8309 342.503 18.2445C342.6 20.2867 342.95 21.782 343.553 22.7302ZM363.653 21.9154C363.708 23.0757 363.599 23.7322 363.327 23.8846C362.779 24.0967 362.463 24.2978 362.379 24.4879C362.507 25.2261 362.61 26.4075 362.687 28.032C362.868 31.838 362.623 37.4552 361.952 44.8837L360.352 62.6137C353.29 61.8326 348.647 61.5181 346.421 61.6703C346.161 56.1934 346.47 48.0146 347.349 37.1338C348.272 26.2044 348.604 18.0013 348.344 12.5244L347.837 10.6644C348.493 10.7728 350.55 10.9775 354.006 11.2786C355.315 11.4025 356.999 11.6017 359.059 11.876L363.836 12.5563C363.746 12.6071 363.538 12.6402 363.213 12.6556L363.653 21.9154ZM373.344 56.9727C372.887 56.1571 372.634 55.2387 372.585 54.2176C372.504 52.5002 373.154 51.004 374.535 49.7289C375.963 48.4516 377.536 47.7722 379.253 47.6906C380.878 47.6135 382.322 48.1496 383.586 49.2991C384.894 50.4 385.59 51.8323 385.674 53.596C385.727 54.71 385.52 55.7432 385.054 56.6958C385.071 59.9978 383.513 62.4443 380.378 64.0353C378.424 65.0119 375.069 65.869 370.313 66.6066L369.011 58.2949L370.45 57.7382C371.188 57.6101 372.153 57.3549 373.344 56.9727Z" fill="white"/>
<path d="M79.6673 107.687C78.6376 105.596 76.989 104.186 74.7214 103.456C73.9192 103.215 71.646 102.858 67.902 102.384L68.381 115.41C68.907 115.711 69.7733 115.833 70.9801 115.775C70.9337 115.778 70.9105 115.779 70.9105 115.779C70.9105 115.779 70.9337 115.778 70.9801 115.775C70.9801 115.775 71.0486 115.749 71.1857 115.696L74.0402 115.56C75.247 115.503 76.0437 115.628 76.4305 115.935L79.6673 107.687ZM81.1196 130.924C80.0856 128.741 78.459 127.306 76.2401 126.621C75.6257 126.417 73.3536 126.083 69.4239 125.618L69.9725 138.641C70.3593 138.948 71.2025 139.071 72.5021 139.009C72.4557 139.012 72.5242 138.985 72.7076 138.93L75.6318 138.791C76.8385 138.734 77.59 138.884 77.8861 139.242L81.1196 130.924ZM91.6246 140.544C91.4322 141.39 91.0353 142.339 90.434 143.391C89.6139 144.733 88.6987 145.544 87.6886 145.824C87.7018 146.103 87.1283 146.27 85.9679 146.325C85.0396 146.369 83.6439 146.365 81.7807 146.314C79.9175 146.263 78.5217 146.26 77.5934 146.304C76.2938 146.365 75.4639 146.521 75.1036 146.771L58.4874 145.118L55.1293 93.501C55.6464 93.616 56.6211 93.5697 58.0534 93.3622C59.1629 93.2164 60.8991 93.041 63.2618 92.8357C64.652 92.7232 67.1761 92.9755 70.8339 93.5926C83.308 95.6984 89.7767 100.159 90.24 106.976L89.8741 115.436L84.5689 121.271C90.2601 121.605 93.2523 124.859 93.5454 131.032C93.6843 133.956 93.044 137.127 91.6246 140.544ZM125.64 97.2703C124.777 97.7299 122.632 98.1109 119.204 98.4132C116.426 98.6847 114.293 99.3209 112.806 100.322L113.288 110.487L114.16 111.213C114.607 110.82 115.41 110.595 116.57 110.54C116.895 110.525 118.294 110.598 120.768 110.76C122.728 110.899 124.15 110.971 125.034 110.976C125.096 112.275 124.954 114.189 124.609 116.718C124.264 119.246 124.121 121.137 124.181 122.39L114.921 122.83C114.554 123.917 114.251 125.374 114.012 127.199C113.669 129.774 113.337 131.604 113.017 132.689C115.424 133.412 118.228 133.698 121.431 133.546C122.87 133.478 123.981 133.378 124.766 133.248L125.845 144.222L100.108 145.932L97.4041 88.9815C105.827 89.0468 112.29 88.9725 116.792 88.7587C121.016 88.5581 123.811 88.1463 125.177 87.5232L125.64 97.2703ZM167.266 144.488C165.965 144.503 164.188 144.797 161.935 145.369C159.683 145.941 157.968 146.558 156.79 147.218C155.439 146.212 154.188 143.853 153.034 140.14L150.168 131.204C148.866 128.289 147.195 126.88 145.152 126.977C143.574 127.052 142.489 128.685 141.896 131.876C141.564 133.706 141.458 135.875 141.577 138.381C141.667 140.284 141.87 141.623 142.186 142.399C140.867 142.043 138.907 141.904 136.305 141.981C133.564 142.064 131.651 141.946 130.566 141.625L128.11 89.8959C128.581 90.0131 129.58 89.989 131.107 89.8234C132.82 89.649 134.535 89.5211 136.252 89.4395C138.202 89.3469 140.843 89.6169 144.176 90.2495C156.427 92.552 162.714 97.1147 163.038 103.938L162.394 112.412L156.879 124.117L167.266 144.488ZM151.292 107.845C150.302 105.612 148.903 104.074 147.095 103.229C146.047 102.721 144.051 102.304 141.104 101.979L141.812 116.878C142.338 117.178 143.393 117.361 144.978 117.425C146.563 117.49 147.458 117.726 147.663 118.135L151.292 107.845ZM191.919 102.357C190.89 100.266 189.241 98.8555 186.973 98.1259C186.171 97.8849 183.898 97.5276 180.154 97.0541L180.633 110.08C181.159 110.381 182.025 110.502 183.232 110.445C183.186 110.447 183.162 110.448 183.162 110.448C183.162 110.448 183.186 110.447 183.232 110.445C183.232 110.445 183.301 110.419 183.438 110.366L186.292 110.23C187.499 110.173 188.296 110.298 188.682 110.605L191.919 102.357ZM193.372 125.594C192.338 123.41 190.711 121.976 188.492 121.29C187.878 121.087 185.606 120.753 181.676 120.288L182.224 133.311C182.611 133.618 183.454 133.741 184.754 133.679C184.708 133.681 184.776 133.655 184.96 133.599L187.884 133.461C189.09 133.403 189.842 133.554 190.138 133.912L193.372 125.594ZM203.877 135.213C203.684 136.06 203.287 137.009 202.686 138.061C201.866 139.402 200.951 140.213 199.941 140.494C199.954 140.772 199.38 140.939 198.22 140.994C197.292 141.038 195.896 141.035 194.033 140.984C192.169 140.933 190.774 140.929 189.845 140.973C188.546 141.035 187.716 141.191 187.356 141.441L170.739 139.787L167.381 88.1707C167.898 88.2857 168.873 88.2394 170.305 88.0318C171.415 87.8861 173.151 87.7106 175.514 87.5054C176.904 87.3929 179.428 87.6452 183.086 88.2623C195.56 90.3681 202.029 94.8291 202.492 101.645L202.126 110.106L196.821 115.94C202.512 116.275 205.504 119.529 205.797 125.702C205.936 128.626 205.296 131.796 203.877 135.213ZM245.497 138.959C242.741 138.717 240.644 138.631 239.205 138.699C237.348 138.787 235.92 139.088 234.921 139.601C233.571 138.595 232.543 136.55 231.839 133.467C230.721 128.542 230.089 126.014 229.943 125.881C229.829 125.421 229.534 124.598 229.059 123.411C228.63 122.222 228.137 121.641 227.58 121.667C227.209 121.685 226.612 121.853 225.79 122.171C225.014 122.487 224.44 122.653 224.069 122.671C223.28 122.709 222.785 123.058 222.584 123.719L221.562 127.186C220.841 129.639 220.556 132.444 220.706 135.6C220.763 136.807 220.893 137.592 221.097 137.954C220.201 137.718 219.058 137.632 217.665 137.699C217.48 137.707 216.715 137.767 215.371 137.877C214.027 137.988 213.262 138.047 213.077 138.056C211.777 138.118 210.588 138.058 209.51 137.876C208.092 108.032 207.793 92.4155 208.611 91.0276C210.034 88.6806 211.649 87.4177 213.455 87.2389C218.227 86.8262 222.844 87.0722 227.306 87.9767C235.199 89.6023 239.413 93.1237 239.949 98.541L239.796 107.061L241.303 118.224L245.497 138.959ZM230.126 101.799C228.703 99.2611 226.582 98.1989 223.764 98.6118C220.464 98.6754 218.962 101.817 219.257 108.037C219.297 108.872 219.462 110.399 219.754 112.618C221.118 112.926 222.449 113.049 223.749 112.987L231.338 112.627L230.126 101.799ZM260.434 89.125C266.358 86.5178 273.977 84.8534 283.294 84.1319C284.402 88.8707 285.382 93.3366 286.232 97.5295C281.83 97.8781 277.093 99.0334 272.023 100.995C265.765 103.432 262.476 107.147 262.155 112.14C262.879 114.664 264.512 117.215 267.054 119.793C269.595 122.37 272.123 124.181 274.638 125.224C275.346 125.423 275.769 125.519 275.908 125.513C276.836 125.469 277.36 124.746 277.48 123.345C277.568 122.271 277.57 120.828 277.484 119.018C277.475 118.833 276.724 118.682 275.229 118.567C273.735 118.452 272.985 118.325 272.978 118.185C272.89 116.329 272.862 115.237 272.893 114.91C272.986 113.929 273.38 113.421 274.076 113.388C275.19 113.335 277.622 113.104 281.37 112.693L286.993 112.077C288.195 111.927 288.898 113.987 289.101 118.257C289.162 119.557 289.151 122.255 289.067 126.353C289.011 129.1 289.047 131.82 289.175 134.512C289.252 136.137 289.377 137.294 289.549 137.983C289.549 137.983 288.435 138.036 286.207 138.142C280.872 138.442 275.803 137.985 271 136.771C263.985 135.011 258.388 131.764 254.209 127.032C249.789 122.124 247.41 116.097 247.07 108.949C246.837 104.029 247.853 99.9567 250.119 96.7323C252.212 93.7952 255.651 91.2595 260.434 89.125ZM328.785 135.004C326.029 134.762 323.932 134.676 322.493 134.744C320.636 134.832 319.208 135.133 318.209 135.646C316.859 134.64 315.832 132.595 315.127 129.512C314.009 124.587 313.377 122.059 313.232 121.926C313.117 121.466 312.822 120.643 312.347 119.456C311.918 118.267 311.425 117.686 310.868 117.712C310.497 117.73 309.9 117.898 309.078 118.216C308.302 118.532 307.729 118.698 307.357 118.716C306.568 118.754 306.073 119.103 305.872 119.764L304.85 123.231C304.129 125.684 303.844 128.489 303.994 131.645C304.051 132.852 304.181 133.637 304.385 133.999C303.49 133.763 302.346 133.677 300.953 133.744C300.768 133.752 300.003 133.812 298.659 133.922C297.315 134.033 296.551 134.092 296.365 134.101C295.065 134.163 293.876 134.103 292.798 133.921C291.38 104.077 291.081 88.4606 291.899 87.0727C293.323 84.7256 294.937 83.4627 296.743 83.2839C301.515 82.8712 306.132 83.1172 310.594 84.0218C318.487 85.6473 322.701 89.1687 323.237 94.586L323.084 103.106L324.591 114.269L328.785 135.004ZM313.414 97.8437C311.991 95.3062 309.87 94.2439 307.052 94.6568C303.752 94.7205 302.25 97.8621 302.545 104.082C302.585 104.917 302.751 106.444 303.042 108.663C304.406 108.971 305.737 109.094 307.037 109.032L314.626 108.672L313.414 97.8437ZM348.7 94.4934C348.755 95.6537 348.647 96.3102 348.375 96.4626C347.827 96.6747 347.511 96.8758 347.427 97.0659C347.555 97.8041 347.658 98.9855 347.735 100.61C347.915 104.416 347.67 110.033 347 117.462L345.399 135.192C338.338 134.411 333.694 134.096 331.469 134.248C331.209 128.771 331.518 120.593 332.397 109.712C333.32 98.7825 333.651 90.5793 333.391 85.1024L332.884 83.2424C333.541 83.3508 335.597 83.5555 339.054 83.8566C340.363 83.9805 342.047 84.1797 344.107 84.454L348.884 85.1343C348.793 85.1851 348.585 85.2182 348.261 85.2337L348.7 94.4934ZM409.758 118.459C409.247 119.46 409.037 120.912 409.127 122.815C409.213 124.625 409.711 127.277 410.621 130.769L387.63 130.046C387.247 129.832 386.731 129.74 386.082 129.771C386.035 129.773 385.138 129.979 383.389 130.387C382.837 130.507 382.352 130.576 381.934 130.596L381.141 110.956C381.835 108.923 382.095 106.073 381.921 102.406C381.813 100.132 381.576 97.5842 381.209 94.7639C380.916 92.4984 380.701 89.9268 380.564 87.0491C380.381 83.1967 381.007 81.1899 382.441 81.0287C383.739 80.9206 385.786 80.9397 388.585 81.0859C391.663 81.2654 393.666 81.3098 394.592 81.2193L395.405 101.277L394.915 117.419C395.956 117.789 397.172 118.405 398.562 119.27L409.758 118.459ZM456.753 97.5266C457.044 103.653 455.823 109.782 453.09 115.913C449.475 124.039 444.048 128.274 436.807 128.618C432.398 128.828 428.268 128.07 424.418 126.346C421.28 124.913 418.578 121.901 416.313 117.31C414.302 113.173 413.204 109.154 413.019 105.255C412.799 100.614 413.919 95.7925 416.38 90.7911C418.668 86.0771 421.689 82.0958 425.442 78.8473C429.553 75.3026 433.744 73.4289 438.014 73.2262C445.255 72.8823 450.388 75.6624 453.413 81.5662C455.311 85.2907 456.424 90.6108 456.753 97.5266ZM443.478 98.6454C443.322 95.35 441.751 91.6565 438.765 87.565C437.815 88.1219 435.658 89.2477 432.296 90.9425C428.107 98.724 426.071 103.845 426.188 106.305C426.309 108.858 426.928 111.131 428.047 113.125C429.467 115.616 431.338 116.806 433.659 116.696C436.583 116.557 439.054 114.23 441.073 109.715C442.839 105.77 443.641 102.08 443.478 98.6454ZM522.772 124.536C522.794 125.977 521.616 127.15 519.24 128.053C517.459 128.743 515.614 129.086 513.707 129.084C512.498 129.095 510.778 125.199 508.547 117.396L503.026 98.1205C501.973 101.427 501.196 105.627 500.694 110.722C500.036 117.452 499.593 121.334 499.363 122.368C497.687 122.355 496.432 122.368 495.596 122.407C492.347 122.562 489.064 122.974 485.746 123.643L482.406 110.613C481.103 105.697 479.625 101.511 477.972 98.0541C477.061 103.354 476.514 108.986 476.332 114.949L475.889 130.6L475.087 131.336C474.819 131.581 474.43 131.716 473.92 131.741C473.911 131.555 473.858 131.418 473.76 131.329C472.268 132.238 470.988 132.694 469.918 132.698C464.664 132.762 461.355 133.128 459.992 133.797L459.936 128.218C459.93 127.102 460.056 126.328 460.314 125.897C460.4 125.753 460.953 125.146 461.972 124.074C462.396 111.447 463.549 99.9718 465.431 89.6481C465.504 89.226 465.523 88.6436 465.488 87.901C465.459 87.2976 465.37 86.3947 465.22 85.1923C465.067 83.9435 464.977 83.0175 464.948 82.4141C464.869 80.7431 465.057 79.3154 465.512 78.1308C474.017 77.9595 479.616 78.2984 482.308 79.1475C482.787 81.4042 483.145 83.0619 483.381 84.1206C485.754 93.9166 487.567 100.273 488.822 103.191C490.266 97.354 491.278 92.2121 491.858 87.7653L493.64 73.8644L507.253 73.9855C510.377 81.9781 513.764 92.0748 517.414 104.276C521.004 116.2 522.79 122.954 522.772 124.536ZM546.829 85.5038C545.799 83.4128 544.15 82.0025 541.883 81.2728C541.08 81.0318 538.807 80.6746 535.063 80.2011L535.542 93.227C536.068 93.5277 536.935 93.6494 538.141 93.5921C538.095 93.5943 538.072 93.5954 538.072 93.5954C538.072 93.5954 538.095 93.5943 538.141 93.5921C538.141 93.5921 538.21 93.5655 538.347 93.5125L541.201 93.377C542.408 93.3197 543.205 93.4446 543.592 93.7519L546.829 85.5038ZM548.281 108.741C547.247 106.557 545.62 105.123 543.401 104.437C542.787 104.234 540.515 103.9 536.585 103.435L537.134 116.458C537.521 116.765 538.364 116.888 539.663 116.826C539.617 116.828 539.685 116.802 539.869 116.746L542.793 116.608C544 116.55 544.751 116.701 545.047 117.059L548.281 108.741ZM558.786 118.36C558.593 119.207 558.197 120.156 557.595 121.208C556.775 122.549 555.86 123.36 554.85 123.641C554.863 123.919 554.289 124.086 553.129 124.141C552.201 124.185 550.805 124.182 548.942 124.131C547.079 124.08 545.683 124.076 544.755 124.12C543.455 124.182 542.625 124.338 542.265 124.587L525.649 122.934L522.29 71.3177C522.808 71.4327 523.782 71.3864 525.215 71.1788C526.324 71.0331 528.06 70.8576 530.423 70.6524C531.813 70.5398 534.337 70.7921 537.995 71.4093C550.469 73.515 556.938 77.9761 557.401 84.7925L557.035 93.2531L551.73 99.0873C557.421 99.4218 560.414 102.676 560.707 108.849C560.846 111.773 560.205 114.943 558.786 118.36ZM600.406 122.106C597.65 121.864 595.553 121.778 594.114 121.846C592.257 121.934 590.83 122.235 589.831 122.747C588.48 121.742 587.453 119.697 586.748 116.614C585.63 111.689 584.999 109.161 584.853 109.028C584.738 108.568 584.443 107.745 583.968 106.558C583.539 105.369 583.046 104.788 582.489 104.814C582.118 104.832 581.521 104.999 580.699 105.318C579.923 105.634 579.35 105.8 578.978 105.818C578.189 105.855 577.694 106.205 577.493 106.865L576.471 110.333C575.751 112.786 575.465 115.591 575.615 118.747C575.672 119.954 575.803 120.739 576.006 121.101C575.111 120.865 573.967 120.779 572.575 120.845C572.389 120.854 571.624 120.914 570.28 121.024C568.936 121.135 568.172 121.194 567.986 121.203C566.686 121.265 565.497 121.205 564.419 121.023C563.002 91.1788 562.702 75.5625 563.52 74.1746C564.944 71.8276 566.558 70.5646 568.364 70.3858C573.136 69.9732 577.753 70.2191 582.215 71.1237C590.108 72.7492 594.322 76.2707 594.859 81.688L594.705 90.2083L596.212 101.371L600.406 122.106ZM585.035 84.9456C583.612 82.4081 581.491 81.3458 578.673 81.7588C575.373 81.8224 573.871 84.964 574.167 91.1836C574.206 92.0191 574.372 93.5463 574.663 95.7654C576.027 96.0728 577.359 96.1957 578.658 96.134L586.247 95.7736L585.035 84.9456Z" fill="white"/>
<path d="M103.144 176.417C104.305 175.385 105.557 174.325 106.901 173.238L119.437 165.386L124.839 176.294L108.314 188.313C107.923 188.89 107.197 189.762 106.136 190.929L111.181 194.317C111.807 194.753 112.007 195.046 111.781 195.196C111.6 195.298 112.085 195.717 113.236 196.453C114.629 197.364 115.73 198.521 116.541 199.924C118.006 202.367 118.837 203.7 119.034 203.923C120.917 206.346 122.887 208.648 124.944 210.83C125.579 211.451 126.658 212.632 128.183 214.374C126.755 214.674 124.159 214.867 120.395 214.953C116.958 215.07 114.736 215.292 113.728 215.619C112.848 214.73 111.099 212.673 108.481 209.448L102.179 201.653C102.184 201.746 102.138 206.656 102.041 216.383C94.9996 216.02 90.3228 215.986 88.0109 216.282C87.9293 215.541 87.8476 214.312 87.7661 212.595C87.5457 207.954 87.5179 201 87.6827 191.735C87.8917 182.421 87.886 175.444 87.6656 170.802C87.5664 168.713 87.4749 167.276 87.391 166.489L86.8177 164.702C90.407 164.857 95.7491 165.185 102.844 165.685C102.8 165.734 102.615 165.766 102.29 165.781L103.144 176.417ZM159.504 167.53C158.642 167.99 156.497 168.371 153.069 168.673C150.291 168.945 148.158 169.581 146.67 170.582L147.153 180.747L148.025 181.473C148.471 181.08 149.275 180.855 150.435 180.8C150.76 180.785 152.159 180.858 154.632 181.02C156.593 181.159 158.015 181.231 158.899 181.236C158.961 182.535 158.819 184.449 158.474 186.978C158.129 189.506 157.986 191.397 158.045 192.65L148.786 193.09C148.419 194.177 148.116 195.634 147.877 197.459C147.534 200.034 147.202 201.864 146.881 202.95C149.288 203.673 152.093 203.958 155.296 203.806C156.734 203.738 157.846 203.638 158.631 203.508L159.71 214.482L133.973 216.192L131.269 159.242C139.692 159.307 146.155 159.233 150.657 159.019C154.88 158.818 157.675 158.406 159.041 157.783L159.504 167.53ZM177.831 164.916C183.755 162.308 191.375 160.644 200.691 159.922C201.8 164.661 202.779 169.127 203.63 173.32C199.227 173.669 194.49 174.824 189.42 176.786C183.162 179.223 179.873 182.938 179.552 187.931C180.277 190.455 181.91 193.006 184.451 195.583C186.992 198.161 189.521 199.971 192.036 201.015C192.743 201.214 193.166 201.31 193.305 201.303C194.234 201.259 194.758 200.537 194.877 199.135C194.966 198.061 194.967 196.619 194.881 194.809C194.872 194.623 194.121 194.473 192.627 194.358C191.133 194.242 190.382 194.115 190.376 193.976C190.288 192.119 190.259 191.028 190.29 190.7C190.383 189.719 190.778 189.212 191.474 189.179C192.588 189.126 195.019 188.894 198.768 188.484L204.39 187.868C205.593 187.718 206.295 189.778 206.498 194.048C206.56 195.347 206.548 198.046 206.464 202.144C206.408 204.891 206.444 207.611 206.572 210.303C206.649 211.927 206.774 213.084 206.946 213.774C206.946 213.774 205.832 213.827 203.604 213.933C198.269 214.233 193.2 213.775 188.397 212.561C181.382 210.801 175.785 207.555 171.607 202.822C167.187 197.915 164.807 191.887 164.468 184.739C164.234 179.819 165.25 175.747 167.516 172.523C169.61 169.586 173.048 167.05 177.831 164.916ZM228.295 172.079C228.35 173.239 228.242 173.896 227.97 174.048C227.422 174.26 227.106 174.462 227.022 174.652C227.15 175.39 227.252 176.571 227.329 178.196C227.51 182.002 227.265 187.619 226.594 195.047L224.994 212.777C217.933 211.996 213.289 211.682 211.063 211.834C210.803 206.357 211.113 198.178 211.992 187.297C212.915 176.368 213.246 168.165 212.986 162.688L212.479 160.828C213.136 160.936 215.192 161.141 218.649 161.442C219.957 161.566 221.641 161.765 223.701 162.04L228.479 162.72C228.388 162.771 228.18 162.804 227.855 162.819L228.295 172.079ZM269.299 209.697C266.543 209.455 264.446 209.369 263.007 209.437C261.15 209.525 259.722 209.826 258.723 210.338C257.373 209.333 256.346 207.288 255.641 204.205C254.523 199.28 253.891 196.752 253.746 196.619C253.631 196.159 253.336 195.336 252.861 194.149C252.432 192.96 251.939 192.378 251.382 192.405C251.011 192.423 250.414 192.59 249.592 192.909C248.816 193.225 248.243 193.391 247.871 193.409C247.082 193.446 246.587 193.796 246.386 194.456L245.364 197.924C244.643 200.377 244.358 203.182 244.508 206.338C244.565 207.545 244.695 208.33 244.899 208.692C244.004 208.456 242.86 208.37 241.467 208.436C241.282 208.445 240.517 208.505 239.173 208.615C237.829 208.726 237.065 208.785 236.879 208.794C235.579 208.856 234.39 208.796 233.312 208.614C231.894 178.77 231.595 163.153 232.413 161.766C233.837 159.419 235.451 158.156 237.257 157.977C242.029 157.564 246.646 157.81 251.108 158.715C259.001 160.34 263.215 163.862 263.752 169.279L263.598 177.799L265.105 188.962L269.299 209.697ZM253.928 172.537C252.505 169.999 250.384 168.937 247.566 169.35C244.266 169.413 242.764 172.555 243.059 178.775C243.099 179.61 243.265 181.137 243.556 183.356C244.92 183.664 246.251 183.787 247.551 183.725L255.14 183.365L253.928 172.537ZM308.006 168.154L299.233 168.571C298.413 168.936 297.262 169.665 295.778 170.759L297.792 186.712L298.887 206.826C297.49 206.8 295.475 206.988 292.843 207.392C290.071 207.803 288.058 208.015 286.802 208.028C285.175 208.059 284.149 203.595 283.724 194.637C283.561 191.203 283.487 187.694 283.503 184.111C283.519 180.528 283.446 177.02 283.283 173.585C283.225 172.378 282.19 171.636 280.176 171.36C280.037 171.367 279.291 171.332 277.939 171.257L274.305 171.15C272.022 171.073 270.726 170.715 270.416 170.079L267.225 158.717L275.964 159.069C279.784 159.167 282.83 159.162 285.105 159.054C286.311 158.997 287.052 158.915 287.326 158.809L307.44 156.249C307.002 158.782 306.841 161.255 306.955 163.669C307.052 165.711 307.402 167.206 308.006 168.154ZM345.992 206.055C343.236 205.814 341.139 205.727 339.7 205.795C337.843 205.884 336.415 206.184 335.416 206.697C334.066 205.691 333.039 203.646 332.334 200.563C331.216 195.638 330.584 193.11 330.439 192.977C330.324 192.517 330.029 191.694 329.554 190.507C329.125 189.318 328.632 188.737 328.075 188.763C327.704 188.781 327.107 188.949 326.285 189.267C325.509 189.583 324.936 189.75 324.564 189.767C323.775 189.805 323.28 190.154 323.079 190.815L322.057 194.282C321.336 196.736 321.051 199.54 321.201 202.696C321.258 203.903 321.388 204.688 321.592 205.05C320.697 204.814 319.553 204.729 318.16 204.795C317.975 204.803 317.21 204.863 315.866 204.973C314.522 205.084 313.758 205.143 313.572 205.152C312.272 205.214 311.083 205.154 310.005 204.973C308.588 175.128 308.288 159.512 309.106 158.124C310.53 155.777 312.144 154.514 313.95 154.335C318.722 153.922 323.339 154.168 327.801 155.073C335.694 156.698 339.908 160.22 340.445 165.637L340.291 174.157L341.798 185.32L345.992 206.055ZM330.621 168.895C329.198 166.357 327.077 165.295 324.259 165.708C320.959 165.772 319.457 168.913 319.752 175.133C319.792 175.968 319.958 177.495 320.249 179.715C321.613 180.022 322.944 180.145 324.244 180.083L331.833 179.723L330.621 168.895ZM381.604 149.308L395.184 148.733L392.707 174.46C392.632 174.835 392.528 175.096 392.395 175.242C391.708 178.391 391.265 182.785 391.067 188.423C390.852 194.667 390.598 199.099 390.303 201.718C385.708 201.936 381.228 202.614 376.863 203.752C372.764 190.921 369.117 179.743 365.92 170.219C365.136 178.211 364.939 189.246 365.329 203.322C364.946 204.085 364.315 204.51 363.436 204.599C363.385 204.508 363.29 204.466 363.15 204.473C362.965 204.481 362.37 204.696 361.367 205.115C360.549 205.526 359.933 205.788 359.52 205.901L354.723 206.268C352.917 206.447 351.425 206.867 350.247 207.528C350.24 207.388 350.157 206.625 349.998 205.237C349.919 204.543 349.861 203.801 349.823 203.012C349.695 200.32 350.297 198.291 351.627 196.925C351.537 193.069 351.965 187.373 352.909 179.838C353.854 172.304 354.233 166.564 354.046 162.619C353.975 161.134 353.873 159.975 353.741 159.144C353.209 155.774 353.135 153.242 353.52 151.549C362.193 150.997 367.85 151.101 370.491 151.859C372.649 163.992 375.326 173.843 378.523 181.413C379.472 175.925 380.126 170.591 380.485 165.41L381.604 149.308ZM464.589 165.673C463.243 165.737 461.237 165.623 458.571 165.331C455.95 164.99 453.99 164.851 452.69 164.913C452.971 163.969 453.09 163.056 453.048 162.174C452.965 160.41 452.311 158.883 451.086 157.592C449.909 156.299 448.438 155.694 446.674 155.778C444.446 155.884 442.704 157.409 441.448 160.352C441.806 162.987 444.759 165.894 450.306 169.073L462.214 175.904C463.552 179.609 464.253 182.111 464.314 183.41C464.471 186.706 462.829 190.342 459.39 194.32C455.994 198.25 452.649 200.292 449.353 200.449C444.851 200.663 440.398 199.455 435.993 196.827C431.111 193.942 428.569 190.364 428.366 186.094L428.121 180.942L430.263 180.491C430.263 180.491 430.624 180.242 431.344 179.742C431.755 179.583 432.216 179.492 432.727 179.467C433.376 179.437 433.848 179.577 434.142 179.889L434.149 180.028C434.538 180.382 435.221 180.558 436.198 180.559C436.198 180.559 436.963 180.522 438.495 180.449C439.291 182.505 440.053 184.353 440.782 185.993C441.717 188.042 442.751 189.737 443.884 191.079L446.878 190.937C448.934 187.211 449.924 184.535 449.846 182.911C447.869 181.423 444.968 179.607 441.144 177.463C436.987 175.148 434.081 173.216 432.426 171.666C429.845 169.23 428.479 166.434 428.329 163.278C428.177 160.076 429.398 156.389 431.991 152.219C434.584 148.048 437.346 145.475 440.277 144.498C441.422 144.118 444.756 143.797 450.279 143.535C452.322 143.438 455.123 145.119 458.683 148.579C462.243 152.038 464.068 154.719 464.159 156.622L464.589 165.673ZM496.668 151.52C495.806 151.98 493.661 152.361 490.233 152.663C487.455 152.934 485.322 153.571 483.834 154.572L484.317 164.736L485.189 165.463C485.635 165.069 486.438 164.845 487.599 164.79C487.924 164.775 489.323 164.848 491.796 165.009C493.756 165.149 495.179 165.221 496.063 165.225C496.124 166.525 495.983 168.439 495.638 170.967C495.293 173.496 495.15 175.387 495.209 176.64L485.949 177.08C485.582 178.167 485.279 179.623 485.041 181.449C484.698 184.024 484.366 185.854 484.045 186.939C486.452 187.662 489.257 187.948 492.459 187.796C493.898 187.727 495.01 187.628 495.795 187.498L496.874 198.472L471.137 200.182L468.433 143.231C476.856 143.296 483.318 143.222 487.821 143.008C492.044 142.808 494.839 142.396 496.205 141.773L496.668 151.52ZM538.295 198.738C536.993 198.753 535.216 199.047 532.964 199.619C530.712 200.191 528.996 200.807 527.818 201.468C526.468 200.462 525.216 198.103 524.063 194.389L521.196 185.454C519.895 182.539 518.223 181.129 516.181 181.226C514.603 181.301 513.517 182.935 512.925 186.126C512.593 187.956 512.486 190.124 512.605 192.631C512.696 194.534 512.899 195.873 513.215 196.649C511.895 196.293 509.935 196.153 507.334 196.23C504.593 196.314 502.68 196.195 501.595 195.875L499.138 144.146C499.609 144.263 500.608 144.239 502.135 144.073C503.848 143.899 505.564 143.771 507.281 143.689C509.23 143.597 511.871 143.867 515.204 144.499C527.455 146.802 533.743 151.364 534.067 158.187L533.422 166.661L527.907 178.367L538.295 198.738ZM522.32 162.095C521.33 159.862 519.931 158.324 518.123 157.479C517.076 156.971 515.079 156.554 512.133 156.228L512.84 171.128C513.366 171.428 514.422 171.611 516.006 171.675C517.591 171.739 518.486 171.976 518.692 172.385L522.32 162.095ZM574.615 174.544L573.198 187.311C572.943 189.789 572.142 191.525 570.794 192.519C569.761 193.312 567.313 194.173 563.45 195.101C562.024 195.448 560.685 195.651 559.432 195.71C555.254 195.909 551.77 195.027 548.979 193.067C546.185 191.059 544.457 187.978 543.795 183.823L542.542 179.486C541.877 177.238 541.008 174.116 539.934 170.12C539.813 169.521 539.738 168.92 539.709 168.316C539.676 167.62 539.676 166.643 539.71 165.386C539.747 164.221 539.678 163.247 539.501 162.465L537.079 151.136C537.055 150.626 537.108 150.274 537.238 150.082C537.475 149.187 538.454 148.745 540.176 148.756C540.967 148.765 541.525 148.762 541.85 148.746C542.407 148.72 542.707 148.659 542.749 148.564C542.835 148.421 543.461 147.902 544.629 147.01C545.842 146.115 546.425 145.645 546.376 145.601C547.943 147.248 549.582 151.403 551.294 158.067C551.862 160.227 552.284 162.742 552.56 165.613C552.749 167.651 553.054 170.148 553.474 173.106C554.125 176.052 554.954 178.804 555.959 181.361C556.321 182.135 556.684 182.908 557.046 183.682C557.453 184.407 558.097 184.749 558.979 184.707C559.861 184.665 560.592 184.397 561.174 183.905C561.439 183.613 561.892 182.87 562.533 181.677L560.371 165.521L558.48 146.282C560.063 146.3 562.118 145.993 564.647 145.361C567.589 144.617 569.548 144.245 570.525 144.245C572.152 144.214 573.054 146.078 573.233 149.838C573.288 150.998 573.232 153.746 573.066 158.08C572.9 162.414 572.868 165.184 572.972 166.388C573.182 168.844 573.729 171.562 574.615 174.544ZM594.409 142.901C594.133 142.961 593.949 142.993 593.856 142.997L594.176 149.751C594.216 150.586 594.099 151.057 593.825 151.163C593.275 151.329 592.981 151.505 592.943 151.693C593.084 152.71 593.171 153.566 593.204 154.263C593.335 157.001 593.042 161.132 592.328 166.655L590.645 179.714C584.154 179.185 579.748 178.975 577.427 179.086C577.235 175.048 577.625 169.051 578.596 161.097C579.565 153.096 579.954 147.077 579.762 143.039L579.348 141.663C580.002 141.725 581.962 141.841 585.226 142.012C586.205 142.058 587.793 142.192 589.99 142.413C592.607 142.661 594.08 142.824 594.409 142.901ZM585.481 194.404C583.671 194.489 582.085 193.913 580.724 192.676C579.411 191.482 578.712 189.98 578.626 188.17C578.544 186.452 579.194 184.956 580.576 183.681C582.004 182.404 583.576 181.724 585.294 181.643C586.918 181.566 588.363 182.102 589.627 183.251C590.935 184.352 591.631 185.785 591.715 187.548C591.801 189.358 591.224 190.921 589.984 192.236C588.792 193.595 587.291 194.318 585.481 194.404Z" fill="white"/>
<path d="M37.9079 183.317C37.9079 186.383 36.0105 188.846 32.2158 190.705C29.7051 191.932 26.4566 192.842 22.4702 193.436C21.8761 191.271 21.512 188.607 21.3778 185.444C21.3395 184.045 21.2532 181.333 21.1191 177.309C21.0041 174.415 20.5441 171.923 19.7392 169.834C19.9117 169.834 20.18 169.796 20.5441 169.719C20.9083 169.623 21.167 169.576 21.3203 169.576C23.9076 169.576 26.4566 170.179 28.9673 171.387C31.4971 172.575 33.5765 174.166 35.2056 176.159C37.0071 178.363 37.9079 180.749 37.9079 183.317ZM31.2671 180.787C31.2671 180.001 30.6538 179.034 29.4272 177.884C28.2198 176.715 27.2328 176.188 26.4662 176.303C26.4662 178.507 26.38 180.184 26.2075 181.333C26.3225 181.966 26.38 182.713 26.38 183.576C26.38 183.921 26.3416 184.592 26.265 185.588C26.2075 186.431 26.1979 187.093 26.2362 187.572C27.7119 187.61 28.9481 186.834 29.9447 185.243C30.8263 183.844 31.2671 182.359 31.2671 180.787ZM53.193 193.235C52.0622 193.082 51.1998 193.005 50.6057 193.005C49.8391 193.005 49.2449 193.101 48.8233 193.293C48.2867 192.852 47.9034 191.989 47.6734 190.705C47.3092 188.655 47.0984 187.6 47.0409 187.543C47.0026 187.351 46.8972 187.006 46.7247 186.508C46.5714 186.01 46.3797 185.761 46.1497 185.761C45.9964 185.761 45.7473 185.818 45.4023 185.933C45.0765 186.048 44.8369 186.106 44.6836 186.106C44.3578 186.106 44.147 186.24 44.0511 186.508L43.5624 187.917C43.2175 188.913 43.045 190.063 43.045 191.366C43.045 191.865 43.0833 192.191 43.16 192.344C42.7958 192.229 42.3263 192.171 41.7513 192.171C41.6747 192.171 41.3584 192.181 40.8026 192.2C40.2468 192.219 39.9306 192.229 39.854 192.229C39.3173 192.229 38.8286 192.181 38.3878 192.085C38.3878 179.762 38.5699 173.322 38.934 172.767C39.5665 171.827 40.2564 171.339 41.0039 171.3C42.9779 171.224 44.8753 171.415 46.696 171.875C49.9157 172.699 51.5831 174.233 51.6981 176.475L51.4681 179.982L51.8706 184.611L53.193 193.235ZM47.5871 177.625C47.0505 176.552 46.1977 176.073 45.0286 176.188C43.6678 176.149 42.9875 177.414 42.9875 179.982C42.9875 180.327 43.0258 180.96 43.1025 181.88C43.6583 182.033 44.2045 182.11 44.7411 182.11H47.8746L47.5871 177.625ZM68.9747 170.553L74.5805 170.582L73.0569 181.132C73.0185 181.286 72.9706 181.391 72.9131 181.448C72.5682 182.732 72.2998 184.534 72.1082 186.853C71.8974 189.421 71.7057 191.242 71.5332 192.315C69.6359 192.315 67.7768 192.507 65.9561 192.89C64.5187 187.524 63.2347 182.847 62.1039 178.861C61.6248 182.138 61.3277 186.681 61.2127 192.488C61.0403 192.794 60.7719 192.957 60.4078 192.976C60.3886 192.938 60.3503 192.919 60.2928 192.919C60.2161 192.919 59.967 192.995 59.5454 193.149C59.2004 193.302 58.9417 193.398 58.7692 193.436L56.7856 193.494C56.0381 193.532 55.4152 193.676 54.917 193.925C54.917 193.868 54.8978 193.551 54.8595 192.976C54.8403 192.689 54.8307 192.382 54.8307 192.056C54.8307 190.945 55.1182 190.121 55.6931 189.584C55.7315 187.993 56.019 185.655 56.5556 182.57C57.0922 179.484 57.3605 177.127 57.3605 175.498C57.3605 174.884 57.3414 174.405 57.303 174.06C57.1497 172.661 57.1689 171.617 57.3605 170.927C60.9444 170.869 63.273 171.023 64.3463 171.387C64.9979 176.427 65.9082 180.538 67.0773 183.72C67.5756 181.477 67.9493 179.292 68.1985 177.165L68.9747 170.553Z" fill="white"/>
<defs>
<linearGradient id="paint0_linear_107_37" x1="49.5869" y1="156.732" x2="34.8766" y2="206.196" gradientUnits="userSpaceOnUse">
<stop stop-color="#553C72"/>
<stop offset="1" stop-color="#D42E81"/>
</linearGradient>
</defs>
</svg>
