<svg width="928" height="75" viewBox="0 0 928 75" fill="none" xmlns="http://www.w3.org/2000/svg">
<rect width="928" height="70" rx="35" fill="black"/>
<path d="M396.186 42L390.598 35.158V42H387.518V26.644H390.598V33.53L396.186 26.644H399.904L393.568 34.256L400.08 42H396.186ZM413.876 35.906C413.876 39.734 411.06 42.198 407.518 42.198C403.998 42.198 401.336 39.734 401.336 35.906C401.336 32.056 404.086 29.614 407.606 29.614C411.126 29.614 413.876 32.056 413.876 35.906ZM404.46 35.906C404.46 38.326 405.868 39.514 407.518 39.514C409.146 39.514 410.708 38.326 410.708 35.906C410.708 33.464 409.19 32.298 407.562 32.298C405.934 32.298 404.46 33.464 404.46 35.906ZM433.185 42V35.268C433.185 33.332 432.107 32.32 430.479 32.32C428.829 32.32 427.751 33.332 427.751 35.268V42H424.671V35.268C424.671 33.332 423.593 32.32 421.965 32.32C420.293 32.32 419.215 33.332 419.215 35.268V42H416.135V29.812H419.215V31.286C419.985 30.274 421.283 29.636 422.801 29.636C424.693 29.636 426.255 30.45 427.091 31.968C427.883 30.582 429.489 29.636 431.271 29.636C434.197 29.636 436.265 31.484 436.265 34.85V42H433.185ZM442.268 31.572C442.994 30.538 444.402 29.614 446.294 29.614C449.418 29.614 451.86 32.056 451.86 35.862C451.86 39.668 449.418 42.198 446.294 42.198C444.38 42.198 443.016 41.252 442.268 40.262V47.808H439.188V29.812H442.268V31.572ZM448.714 35.862C448.714 33.552 447.152 32.32 445.48 32.32C443.83 32.32 442.268 33.596 442.268 35.906C442.268 38.216 443.83 39.492 445.48 39.492C447.152 39.492 448.714 38.172 448.714 35.862ZM459.334 32.144C457.86 32.144 456.694 33.09 456.452 34.762H462.238C462.194 33.156 460.918 32.144 459.334 32.144ZM465.12 38.172C464.46 40.416 462.436 42.198 459.422 42.198C455.88 42.198 453.306 39.734 453.306 35.906C453.306 32.056 455.814 29.614 459.422 29.614C462.942 29.614 465.428 32.012 465.428 35.642C465.428 36.038 465.406 36.434 465.34 36.83H456.43C456.584 38.634 457.816 39.646 459.356 39.646C460.676 39.646 461.402 38.986 461.798 38.172H465.12ZM468.16 38.216V32.342H466.708V29.812H468.16V26.798H471.262V29.812H473.99V32.342H471.262V38.238C471.262 39.052 471.592 39.404 472.56 39.404H473.99V42H472.054C469.722 42 468.16 41.01 468.16 38.216ZM476.206 42V29.812H479.286V42H476.206ZM477.768 28.36C476.668 28.36 475.876 27.568 475.876 26.556C475.876 25.544 476.668 24.752 477.768 24.752C478.846 24.752 479.66 25.544 479.66 26.556C479.66 27.568 478.846 28.36 477.768 28.36ZM491.789 38.524C491.789 40.614 489.963 42.198 486.993 42.198C483.935 42.198 481.801 40.416 481.669 38.15H484.771C484.881 39.074 485.739 39.778 486.971 39.778C488.181 39.778 488.841 39.228 488.841 38.524C488.841 36.346 481.955 37.732 481.955 33.266C481.955 31.242 483.759 29.614 486.773 29.614C489.721 29.614 491.503 31.22 491.679 33.64H488.731C488.643 32.694 487.895 32.056 486.685 32.056C485.541 32.056 484.947 32.518 484.947 33.222C484.947 35.444 491.701 34.058 491.789 38.524ZM494.317 42V29.812H497.397V42H494.317ZM495.879 28.36C494.779 28.36 493.987 27.568 493.987 26.556C493.987 25.544 494.779 24.752 495.879 24.752C496.957 24.752 497.771 25.544 497.771 26.556C497.771 27.568 496.957 28.36 495.879 28.36ZM516.11 42L515.098 39.074H508.982L507.97 42H504.736L510.258 26.622H513.844L519.366 42H516.11ZM514.262 36.61L512.04 30.186L509.818 36.61H514.262ZM521.43 42V25.72H524.51V34.982L528.602 29.812H532.606L527.238 35.928L532.65 42H528.646L524.51 36.808V42H521.43ZM533.486 35.862C533.486 32.056 535.95 29.614 539.052 29.614C541.01 29.614 542.352 30.538 543.078 31.55V29.812H546.18V42H543.078V40.218C542.352 41.274 540.966 42.198 539.03 42.198C535.95 42.198 533.486 39.668 533.486 35.862ZM543.078 35.906C543.078 33.596 541.538 32.32 539.844 32.32C538.194 32.32 536.632 33.552 536.632 35.862C536.632 38.172 538.194 39.492 539.844 39.492C541.538 39.492 543.078 38.216 543.078 35.906ZM548.396 35.862C548.396 32.056 550.86 29.614 553.984 29.614C555.59 29.614 557.13 30.362 557.966 31.506V25.72H561.09V42H557.966V40.196C557.24 41.318 555.876 42.198 553.962 42.198C550.86 42.198 548.396 39.668 548.396 35.862ZM557.988 35.906C557.988 33.596 556.448 32.32 554.754 32.32C553.104 32.32 551.542 33.552 551.542 35.862C551.542 38.172 553.104 39.492 554.754 39.492C556.448 39.492 557.988 38.216 557.988 35.906ZM569.334 32.144C567.86 32.144 566.694 33.09 566.452 34.762H572.238C572.194 33.156 570.918 32.144 569.334 32.144ZM575.12 38.172C574.46 40.416 572.436 42.198 569.422 42.198C565.88 42.198 563.306 39.734 563.306 35.906C563.306 32.056 565.814 29.614 569.422 29.614C572.942 29.614 575.428 32.012 575.428 35.642C575.428 36.038 575.406 36.434 575.34 36.83H566.43C566.584 38.634 567.816 39.646 569.356 39.646C570.676 39.646 571.402 38.986 571.798 38.172H575.12ZM594.726 42V35.268C594.726 33.332 593.648 32.32 592.02 32.32C590.37 32.32 589.292 33.332 589.292 35.268V42H586.212V35.268C586.212 33.332 585.134 32.32 583.506 32.32C581.834 32.32 580.756 33.332 580.756 35.268V42H577.676V29.812H580.756V31.286C581.526 30.274 582.824 29.636 584.342 29.636C586.234 29.636 587.796 30.45 588.632 31.968C589.424 30.582 591.03 29.636 592.812 29.636C595.738 29.636 597.806 31.484 597.806 34.85V42H594.726ZM600.729 42V29.812H603.809V42H600.729ZM602.291 28.36C601.191 28.36 600.399 27.568 600.399 26.556C600.399 25.544 601.191 24.752 602.291 24.752C603.369 24.752 604.183 25.544 604.183 26.556C604.183 27.568 603.369 28.36 602.291 28.36ZM606.852 42V25.72H609.932V34.982L614.024 29.812H618.028L612.66 35.928L618.072 42H614.068L609.932 36.808V42H606.852Z" fill="white"/>
<path d="M365.949 5.32671C367.515 5.43116 368.56 6.16227 369.187 7.10228C369.5 7.62451 369.709 8.14674 369.709 8.77341C369.709 9.29563 369.604 9.92231 369.396 10.4445C368.978 11.2801 368.351 11.9068 367.307 12.3245C367.724 12.6379 368.142 13.1601 368.038 13.9957C367.933 14.8312 367.515 15.3535 366.993 15.6668C366.471 15.9801 365.844 15.9801 365.113 15.9801C364.904 15.9801 364.8 15.9801 364.591 15.8757C362.815 15.6668 358.533 15.1446 356.027 17.9646L355.4 17.5468C355.4 17.5468 356.967 14.7268 357.175 13.1601C357.175 12.7423 357.175 12.2201 357.175 11.6979C357.175 10.2356 357.175 8.77341 358.011 7.72895C358.324 7.31117 358.742 7.10228 359.055 7.10228C359.264 7.10228 359.578 7.10228 359.787 7.20673C359.995 7.31117 360.204 7.41562 360.309 7.52006L360.413 7.62451C361.04 6.78895 362.502 4.90893 365.74 5.11782L365.949 5.32671ZM368.56 7.41562C368.038 6.6845 367.202 6.05783 365.844 6.05783C362.711 5.84894 361.353 7.8334 360.935 8.46007C360.831 8.66896 360.727 8.77341 360.518 8.77341C360.309 8.77341 360.1 8.66896 360.1 8.46007C360.1 8.46007 359.995 8.35563 359.891 8.25118C359.787 8.14674 359.682 8.04229 359.578 8.04229C359.473 8.04229 359.369 7.93784 359.16 7.93784C358.951 7.93784 358.742 8.04229 358.533 8.35563C357.907 9.08674 357.907 10.549 357.907 11.8023C357.907 12.3245 357.907 12.8468 357.907 13.369C357.802 14.2046 357.384 15.4579 356.862 16.3979C359.578 14.6223 363.024 15.0401 364.591 15.249C364.8 15.249 365.009 15.249 365.009 15.3535C365.531 15.3535 366.053 15.3535 366.471 15.1446C366.784 14.9357 367.098 14.6223 367.202 13.9957C367.411 12.8468 366.053 12.7423 366.053 12.7423V12.0112C367.411 11.8023 368.247 11.0712 368.664 10.2356C368.873 9.81786 368.978 9.29563 368.978 8.87785C368.978 8.46007 368.873 7.93784 368.56 7.62451V7.41562ZM345.269 30.7069C345.791 30.1847 346.209 29.6625 346.835 29.0358C349.76 25.798 353.938 21.2024 358.011 22.1424C358.951 22.3513 359.578 22.6646 360.1 23.0824C360.622 23.5002 360.935 24.0224 361.144 24.4402C361.353 24.9624 361.353 25.4847 361.249 25.9024C361.249 26.1113 361.144 26.2158 361.144 26.3202C362.293 26.5291 365.322 27.3647 368.664 30.498C369.604 31.438 370.336 32.5869 370.858 33.7358C371.38 35.0936 371.589 36.4514 371.589 37.8092C371.589 39.4803 371.171 40.6292 370.649 41.4648C370.231 42.0915 369.709 42.5092 369.082 42.8226C368.456 43.1359 367.829 43.2404 367.098 43.1359C365.113 43.0315 362.815 42.0915 360.727 40.8381C360.831 41.3603 360.727 41.7781 360.622 42.0915C360.413 42.7181 359.995 43.1359 359.578 43.5537C359.055 43.867 358.533 44.0759 357.907 44.0759C357.071 44.1804 356.131 43.9715 355.609 43.6581C355.086 43.3448 354.669 42.7181 354.251 42.0915C353.102 40.5248 351.431 38.1225 346.626 36.4514L346.731 35.7203C354.251 36.0336 357.384 37.7048 357.698 37.9137C358.011 38.0181 360.935 39.0625 362.607 37.3914C364.382 35.7203 362.189 33.1092 362.189 33.1092C362.189 33.1092 359.264 27.8869 345.791 31.1247L345.478 30.498L345.269 30.7069ZM347.358 29.558L346.626 30.3936C359.16 27.678 362.398 32.5869 362.607 32.9003C362.815 33.2136 365.113 36.1381 362.92 38.1225C360.831 40.107 357.28 38.7492 357.28 38.7492H357.175C357.175 38.7492 354.773 37.287 348.611 36.7648C352.058 38.4359 353.52 40.4203 354.564 41.8826C354.982 42.5093 355.4 43.0315 355.818 43.2404C356.235 43.5537 356.967 43.6581 357.698 43.5537C358.22 43.4493 358.638 43.3448 359.055 43.1359C359.473 42.927 359.682 42.5093 359.891 42.0915C359.995 41.6737 359.995 41.047 359.787 40.3159L360.309 39.8981C362.398 41.2559 365.009 42.5092 367.098 42.5092C367.724 42.5092 368.247 42.4048 368.769 42.1959C369.291 41.987 369.709 41.5692 370.022 41.047C370.544 40.3159 370.753 39.167 370.858 37.7048C370.858 36.4514 370.649 35.0936 370.231 33.9447C369.813 32.7958 369.187 31.7514 368.247 30.9158C364.069 27.0513 360.622 26.8424 360.622 26.8424H359.995L360.413 26.3202C360.518 26.1113 360.727 25.9024 360.727 25.5891C360.831 25.2758 360.831 24.858 360.622 24.5447C360.518 24.1269 360.204 23.8135 359.787 23.5002C359.369 23.1869 358.742 22.8735 358.011 22.6646C354.46 21.8291 350.386 26.2158 347.566 29.3491L347.358 29.558ZM352.371 13.8912C351.953 15.9801 348.193 19.9491 348.193 19.9491L341.3 27.5736L340.777 27.1558C340.777 27.1558 343.389 22.038 343.598 17.9646C343.806 14.1001 341.509 12.9512 341.509 12.9512H341.404C341.404 12.9512 338.897 10.9668 336.704 15.6668C334.302 20.5757 336.077 28.5136 336.077 28.5136L335.451 28.8269C335.451 28.8269 330.542 23.0824 328.871 21.3068C327.931 20.2624 326.991 19.0091 326.677 17.5468C326.364 16.3979 326.364 15.249 326.991 14.1001C328.035 12.1157 329.811 12.9512 330.646 13.4734C330.751 12.0112 331.377 10.4445 332.213 8.77341C333.362 6.58006 335.033 4.3867 336.913 2.71558C338.793 1.04445 340.777 0 342.658 0C343.284 0 344.015 0.104445 344.538 0.417781C348.506 2.50669 347.775 8.9823 347.358 11.489C348.193 10.8623 349.551 10.0268 350.491 10.0268C350.595 10.0268 350.804 10.0268 350.909 10.0268C351.431 10.1312 351.849 10.4445 352.162 10.9668C352.475 11.3845 352.58 12.0112 352.58 12.7423C352.58 13.1601 352.58 13.5779 352.475 13.9957L352.371 13.8912ZM347.671 19.4268C347.671 19.4268 351.222 15.6668 351.64 13.6823C351.744 13.2646 351.744 12.9512 351.744 12.6379C351.744 12.1157 351.64 11.5934 351.431 11.2801C351.222 10.9668 351.013 10.7579 350.595 10.6534C350.491 10.6534 350.386 10.6534 350.282 10.6534C349.029 10.6534 346.835 12.5334 346.835 12.5334L346.209 12.2201C346.209 12.2201 348.298 3.23781 343.911 0.940008C343.389 0.731117 342.866 0.522227 342.344 0.522227C340.673 0.522227 338.793 1.56668 337.122 3.13336C335.346 4.70004 333.78 6.78895 332.631 8.9823C331.691 10.7579 331.169 12.5334 331.169 13.9957V14.7268L330.542 14.2046C330.542 14.2046 328.453 12.3245 327.408 14.2046C326.886 15.1446 326.886 16.189 327.2 17.129C327.513 18.3824 328.348 19.6357 329.289 20.5757C330.542 21.9335 333.571 25.3802 335.033 27.1558C334.615 24.6491 333.989 19.0091 335.869 15.1446C338.375 9.92231 341.3 12.0112 341.613 12.2201C341.926 12.3245 344.329 13.7868 344.12 17.8602C344.015 20.3668 342.971 23.2913 342.135 25.2758L347.462 19.3224L347.671 19.4268ZM358.324 48.1493L358.847 48.2537C360.1 48.3582 361.249 48.4626 362.189 48.1493C362.607 48.0448 363.024 47.7315 363.442 47.5226C363.755 47.3137 364.069 47.1048 364.278 46.896C364.487 46.5826 364.8 46.3737 365.218 46.2693C365.427 46.1648 365.635 46.1648 365.949 46.2693C366.158 46.3737 366.367 46.4782 366.575 46.6871C366.68 46.8959 366.784 47.2093 366.784 47.5226C366.784 48.2537 366.575 48.6715 366.262 49.0893C366.68 49.1937 367.098 49.2982 367.307 49.6115C367.62 49.8204 367.829 50.2382 368.038 50.5515C368.142 50.9693 368.247 51.3871 368.142 51.8049C368.038 52.536 367.515 53.3716 366.471 53.8938C365.635 54.416 364.8 54.416 364.173 54.2071C364.382 54.6249 364.487 55.0427 364.382 55.5649C364.278 55.8783 364.173 56.0871 363.964 56.296C363.755 56.5049 363.547 56.6094 363.233 56.6094C362.92 56.6094 362.711 56.5049 362.293 56.296C361.875 55.9827 361.353 55.4605 360.935 54.5205C360.622 53.8938 360.413 53.2671 360.309 52.7449C360.204 52.3271 360.1 51.9093 359.891 51.4915C359.369 50.1338 358.115 48.776 358.115 48.776L358.429 48.1493H358.324ZM362.502 48.776C361.458 49.1937 360.309 49.0893 359.055 48.9849C359.473 49.5071 359.995 50.3426 360.413 51.1782C360.622 51.7004 360.727 52.1182 360.831 52.536C360.935 53.0582 361.04 53.5805 361.353 54.2071C361.771 55.0427 362.189 55.4605 362.502 55.6694C362.711 55.7738 362.815 55.8782 362.92 55.8782C363.024 55.8782 363.129 55.8783 363.233 55.7738C363.338 55.6694 363.442 55.5649 363.442 55.356C363.547 55.0427 363.442 54.7294 363.338 54.416C363.233 54.1027 362.92 53.7893 362.711 53.5805L363.129 53.0582C363.129 53.0582 364.487 54.1027 365.949 53.2671C366.784 52.8493 367.202 52.2227 367.307 51.596C367.411 51.2827 367.307 50.9693 367.202 50.7604C367.098 50.5515 366.993 50.2382 366.68 50.1338C366.262 49.8204 365.74 49.6115 365.009 49.8204L364.8 49.1937C364.8 49.1937 365.844 48.776 365.844 47.6271C365.844 47.4182 365.844 47.2093 365.74 47.1048C365.74 47.0004 365.635 47.0004 365.531 47.0004C365.427 47.0004 365.322 47.0004 365.218 47.0004C365.009 47.1048 364.8 47.2093 364.591 47.4182C364.382 47.6271 364.069 47.9404 363.651 48.1493C363.233 48.4626 362.711 48.6715 362.293 48.776H362.502ZM351.744 47.7315C352.371 48.1493 353.102 48.4626 353.729 48.776C355.713 49.716 357.175 50.4471 356.758 52.536C356.758 52.7449 356.653 52.9538 356.549 53.0582C356.235 53.6849 355.818 53.9982 355.191 54.2071C354.564 54.3116 353.938 54.3116 353.206 54.2071C352.475 54.1027 351.849 53.7893 351.118 53.476C350.073 52.9538 349.342 52.4315 348.715 51.7004C348.089 50.9693 347.566 50.2382 347.253 49.2982C346.835 48.1493 346.626 47.0004 346.418 45.7471C346.313 44.4937 346.313 43.2404 346.313 41.987L347.044 41.8826C347.358 42.927 348.089 44.0759 348.924 45.1204C349.76 46.1648 350.804 47.1048 351.849 47.7315H351.744ZM353.415 49.4026C352.789 49.0893 352.058 48.776 351.431 48.3582C350.386 47.7315 349.238 46.6871 348.402 45.6426C347.88 45.0159 347.462 44.3893 347.149 43.7626C347.149 44.3893 347.149 45.1204 347.253 45.7471C347.358 46.896 347.566 48.0448 347.984 49.0893C348.298 49.9249 348.715 50.656 349.342 51.2827C349.864 51.9093 350.595 52.4316 351.535 52.8493C352.162 53.1627 352.789 53.3716 353.415 53.476C354.042 53.5804 354.669 53.5804 355.086 53.476C355.504 53.3716 355.818 53.1627 356.027 52.7449C356.027 52.6404 356.131 52.536 356.131 52.3271C356.444 50.7604 355.086 50.1338 353.415 49.2982V49.4026ZM317.8 26.0069C321.56 24.3358 325.737 26.9469 325.737 26.9469L333.257 32.0647L332.944 32.6914C332.944 32.6914 330.437 32.0647 327.304 32.2736C325.842 32.378 324.693 32.9003 323.857 33.527C323.022 34.1536 322.5 35.0936 322.5 35.8247V35.9292C322.604 36.5559 323.022 37.0781 323.753 37.4959C324.484 37.9137 325.633 38.1225 326.991 38.0181C327.2 38.0181 327.513 38.0181 327.722 37.9137C330.96 37.4959 333.049 36.2425 333.049 36.2425L333.571 36.6603C333.153 38.4359 332.631 40.0026 331.9 41.3603C331.169 42.7181 330.333 43.9715 329.184 45.1204C328.348 45.9559 326.468 47.5226 324.588 48.2537C323.857 48.5671 323.126 48.776 322.5 48.776C321.768 48.776 321.142 48.5671 320.62 48.0448C320.411 47.836 320.202 47.5226 319.993 47.1048C319.784 46.5826 319.784 45.8515 320.097 45.1204C320.306 44.7026 320.515 44.1804 320.828 43.7626C319.262 44.4937 317.904 44.9115 316.755 45.2248C314.979 45.6426 313.622 45.5382 312.577 45.2248C310.906 44.7026 309.966 43.7626 309.444 42.6137C308.817 41.2559 308.922 39.5848 309.339 37.9137C310.802 32.6914 315.815 31.0203 318.008 30.498C317.591 30.2891 317.068 29.9758 316.755 29.558C316.442 29.2447 316.128 28.8269 316.024 28.5136C315.92 28.0958 315.92 27.678 316.128 27.1558C316.337 26.738 316.86 26.3202 317.695 26.0069H317.8ZM325.32 27.5736C325.32 27.5736 321.455 25.1713 318.008 26.6336C317.382 26.9469 316.964 27.2602 316.755 27.5736C316.651 27.7825 316.651 28.0958 316.651 28.3047C316.755 28.618 316.964 28.8269 317.173 29.1402C317.8 29.7669 318.635 30.1847 319.157 30.1847C319.471 30.1847 319.575 30.3936 319.575 30.6025C319.575 30.9158 319.262 30.9158 318.844 31.0203C317.277 31.3336 311.533 32.5869 309.966 38.0181C309.548 39.4803 309.444 41.047 309.966 42.1959C310.384 43.2404 311.219 43.9715 312.682 44.3893C313.622 44.7026 314.875 44.7026 316.546 44.3893C318.008 44.0759 319.68 43.4493 321.768 42.4048L322.186 42.927C321.56 43.7626 321.037 44.4937 320.724 45.2248C320.515 45.8515 320.411 46.2693 320.62 46.6871C320.724 47.0004 320.933 47.2093 321.037 47.4182C321.351 47.836 321.873 47.9404 322.395 47.9404C322.917 47.9404 323.544 47.7315 324.171 47.5226C325.946 46.7915 327.722 45.2248 328.557 44.4937C329.602 43.4493 330.437 42.3004 331.169 40.9426C331.691 39.7937 332.213 38.5403 332.526 37.1825C331.586 37.6003 329.915 38.227 327.722 38.5403C327.408 38.5403 327.2 38.6448 326.886 38.6448C325.424 38.7492 324.171 38.4359 323.335 38.0181C322.395 37.4959 321.873 36.7648 321.768 35.9292V35.7203C321.768 34.6758 322.291 33.6314 323.335 32.7958C324.275 32.0647 325.528 31.5425 327.2 31.438C328.871 31.3336 330.333 31.438 331.377 31.5425L325.215 27.3647L325.32 27.5736ZM339.211 41.1515C340.046 41.047 340.777 41.1515 341.509 41.3603C342.449 41.7781 343.18 42.4048 343.598 43.3448C344.12 44.1804 344.329 45.3293 344.433 46.4782C344.746 49.1937 344.224 52.3271 343.493 54.1027C341.404 59.5338 336.391 63.7116 330.855 66.845C325.32 69.9784 319.053 72.2762 314.144 74.0517L313.517 74.2606L313.726 73.634C313.726 73.4251 313.935 73.4251 314.248 73.3206C315.606 72.7984 321.873 70.605 329.184 60.8916C331.169 58.176 332.422 55.7738 333.257 53.5805C334.093 51.3871 334.511 49.5071 334.824 47.9404L335.033 47.1048C335.66 43.9715 336.077 41.6737 339.211 41.2559V41.1515ZM341.195 42.0915C340.673 41.8826 340.046 41.7781 339.315 41.8826C336.704 42.1959 336.286 44.3893 335.764 47.1048L335.555 47.9404C335.242 49.6115 334.824 51.4915 333.989 53.6849C333.153 55.8782 331.9 58.3849 329.811 61.205C325.946 66.4272 322.291 69.4561 319.575 71.3362C323.126 69.9784 326.991 68.3072 330.542 66.2183C335.973 63.085 340.882 59.0116 342.866 53.7893C343.598 52.0138 344.015 49.0893 343.806 46.4782C343.702 45.4337 343.389 44.3893 342.971 43.6581C342.553 42.927 342.031 42.3004 341.195 41.987V42.0915ZM339.733 29.9758C340.986 29.9758 342.135 30.498 342.971 31.3336C343.806 32.1692 344.329 33.3181 344.329 34.5714C344.329 35.8247 343.806 36.9736 342.971 37.8092C342.135 38.6448 340.986 39.167 339.733 39.167C338.48 39.167 337.331 38.6448 336.495 37.8092C335.66 36.9736 335.137 35.8247 335.137 34.5714C335.137 33.3181 335.66 32.1692 336.495 31.3336C337.331 30.498 338.48 29.9758 339.733 29.9758ZM342.449 31.8558C341.717 31.1247 340.777 30.7069 339.733 30.7069C338.689 30.7069 337.644 31.1247 337.017 31.8558C336.286 32.5869 335.869 33.5269 335.869 34.5714C335.869 35.6159 336.286 36.6603 337.017 37.287C337.749 38.0181 338.689 38.4359 339.733 38.4359C340.777 38.4359 341.822 38.0181 342.449 37.287C343.18 36.5559 343.598 35.6159 343.598 34.5714C343.598 33.5269 343.18 32.4825 342.449 31.8558ZM332.631 45.9559C332.422 48.3582 332.109 50.1338 331.586 51.4915C331.064 52.9538 330.437 53.9982 329.497 55.0427C328.662 55.9827 327.095 56.9227 325.633 57.4449C324.902 57.6538 324.171 57.8627 323.544 57.8627C322.813 57.8627 322.291 57.5494 321.977 57.1316C321.768 56.8183 321.664 56.5049 321.664 56.0871C321.455 53.6849 323.231 52.8493 325.424 51.7004C326.26 51.2827 327.095 50.8649 327.931 50.3426C330.855 48.3582 332.109 45.7471 332.109 45.7471L332.735 45.9559H332.631ZM330.855 51.2827C331.169 50.2382 331.482 48.9849 331.691 47.5226C330.96 48.4626 329.811 49.8204 328.14 50.9693C327.304 51.4915 326.364 52.0138 325.633 52.4316C323.648 53.476 322.186 54.2071 322.291 56.0871C322.291 56.4005 322.395 56.6094 322.5 56.7138C322.708 57.0271 323.126 57.1316 323.544 57.1316C324.066 57.1316 324.693 57.0271 325.424 56.8183C326.782 56.296 328.14 55.4605 328.975 54.6249C329.811 53.6849 330.437 52.6404 330.96 51.2827H330.855ZM322.082 15.6668C322.395 17.6513 324.066 20.9935 324.066 20.9935L323.648 21.5157C322.813 21.098 321.873 20.8891 320.828 20.6802C319.784 20.4713 318.74 20.4713 317.8 20.5757C316.86 20.6802 315.815 20.6802 314.979 20.4713C314.562 20.3668 314.248 20.1579 313.935 19.9491C313.622 19.7402 313.413 19.4268 313.413 19.0091C313.413 18.8002 313.413 18.5913 313.413 18.4868C313.622 17.6513 314.248 17.2335 314.875 17.129C314.457 16.7113 314.144 16.2935 313.935 15.7712C313.726 15.249 313.517 14.6223 313.413 13.9957C313.308 13.369 313.413 12.7423 313.517 12.2201C313.726 11.2801 314.353 10.549 315.293 10.0268C317.8 8.87785 319.053 10.8623 319.575 12.0112C319.888 11.5934 320.411 11.2801 321.142 11.5934C322.082 12.0112 322.082 12.7423 322.082 13.9957C322.082 14.5179 322.082 15.0401 322.186 15.6668H322.082ZM323.022 20.4713C322.5 19.3224 321.56 17.129 321.351 15.7712C321.246 15.1446 321.246 14.5179 321.246 13.9957C321.246 13.0557 321.246 12.5334 320.724 12.2201C320.097 11.9068 319.784 12.9512 319.784 12.9512H319.053C319.053 12.9512 318.113 9.29563 315.502 10.6534C314.771 10.9668 314.353 11.5934 314.144 12.3245C314.039 12.8468 314.039 13.369 314.039 13.8912C314.144 14.4135 314.248 14.9357 314.457 15.4579C314.875 16.2935 315.502 17.0246 316.233 17.2335L316.024 17.9646C316.024 17.9646 314.248 17.5468 313.935 18.8002C313.935 18.9046 313.935 19.009 313.935 19.1135C313.935 19.3224 314.039 19.4268 314.248 19.5313C314.457 19.6357 314.666 19.8446 314.979 19.8446C315.711 20.0535 316.755 20.0535 317.486 19.9491C318.426 19.8446 319.575 19.8446 320.724 20.0535C321.455 20.1579 322.186 20.3668 322.917 20.5757L323.022 20.4713Z" fill="#FEFEFE"/>
<path fill-rule="evenodd" clip-rule="evenodd" d="M323.335 14.4133C323.962 14.4133 325.215 14.5178 325.737 14.6222C328.766 15.1444 331.064 16.0845 333.362 17.86C333.988 18.3823 334.302 18.5911 334.824 19.2178C336.495 20.8889 336.286 20.1578 336.286 23.2912C336.286 30.6024 336.286 37.8091 336.286 45.1203C335.346 44.4936 335.137 44.1802 333.779 43.4491C330.646 41.5691 327.304 40.5247 323.23 40.5247V14.5178L323.335 14.4133Z" fill="#FEFEFE"/>
<path fill-rule="evenodd" clip-rule="evenodd" d="M323.335 11.3845C323.648 11.3845 324.17 11.3845 324.797 11.489H324.902C325.528 11.5934 326.05 11.5934 326.364 11.6979C328.035 12.0112 329.602 12.429 331.064 13.0556C332.526 13.6823 333.884 14.5179 335.242 15.5623C335.555 15.7712 335.868 16.0846 336.182 16.2935C336.495 16.6068 336.704 16.8157 337.017 17.129C337.539 17.6512 337.539 17.6512 337.539 17.6512C338.271 18.3824 338.688 18.6957 339.002 19.7401C339.315 20.4713 339.315 21.0979 339.211 22.2468C339.211 22.4557 339.211 21.6202 339.211 23.1868V45.0159C339.211 46.687 337.853 47.9404 336.286 47.9404C335.555 47.9404 334.928 47.7315 334.406 47.3137C333.988 47.0004 333.779 46.8959 333.571 46.687C333.571 46.687 333.466 46.687 333.466 46.5826C333.153 46.3737 332.839 46.1648 332.317 45.747C330.959 44.9115 329.602 44.2848 328.139 43.867C326.677 43.4492 325.11 43.2403 323.335 43.2403C321.664 43.2403 320.41 41.8826 320.41 40.3159V14.309C320.41 12.6379 321.768 11.3845 323.335 11.3845ZM323.335 14.309C323.962 14.309 325.215 14.4134 325.737 14.5179C328.766 15.0401 331.064 15.9801 333.362 17.7557C333.988 18.2779 334.302 18.4868 334.824 19.1135C336.495 20.7846 336.286 20.0535 336.286 23.1868C336.286 30.498 336.286 37.7047 336.286 45.0159C335.346 44.3892 335.137 44.0759 333.779 43.3448C330.646 41.4648 327.304 40.4203 323.23 40.4203V14.4134L323.335 14.309Z" fill="black"/>
<path fill-rule="evenodd" clip-rule="evenodd" d="M340.15 45.0158C340.15 37.7046 340.15 30.4979 340.15 23.1867C340.15 20.0533 339.941 20.7844 341.613 19.1133C342.553 18.1733 343.493 17.4422 344.641 16.7111C346.313 15.6666 348.506 14.8311 350.595 14.5177C351.326 14.4133 352.37 14.3088 353.102 14.3088V40.3157C348.819 40.3157 344.641 41.6735 341.299 43.9713C340.881 44.2846 340.464 44.598 340.046 44.9113L340.15 45.0158Z" fill="#FEFEFE"/>
<path fill-rule="evenodd" clip-rule="evenodd" d="M337.122 45.0159V23.1868C337.122 21.6201 337.122 22.4557 337.122 22.2468C337.122 21.0979 337.122 20.4712 337.33 19.7401C337.644 18.8001 338.062 18.3823 338.793 17.6512C338.897 17.5467 338.897 17.5467 339.315 17.129C339.419 17.0245 339.419 17.0245 339.524 16.9201C340.046 16.3978 340.568 15.9801 341.091 15.5623C341.717 15.0401 342.344 14.6223 343.075 14.2045L343.179 14.1001C344.224 13.4734 345.268 12.9512 346.522 12.5334C347.671 12.1156 348.924 11.8023 350.177 11.5934C350.595 11.4889 351.013 11.4889 351.535 11.3845H351.639C352.162 11.28 352.684 11.28 353.102 11.28C354.773 11.28 356.026 12.6378 356.026 14.2045V40.2114C356.026 41.8825 354.668 43.1359 353.102 43.1359C351.222 43.1359 349.446 43.4492 347.671 43.9714C345.999 44.4936 344.433 45.2248 343.075 46.2692C342.866 46.4781 342.762 46.4781 342.657 46.5826C342.344 46.7914 342.031 47.1048 341.717 47.3137C340.359 48.2537 338.479 47.8359 337.644 46.4781C337.33 45.9559 337.122 45.4337 337.122 44.807V45.0159ZM340.046 45.0159C340.046 37.7047 340.046 30.498 340.046 23.1868C340.046 20.0534 339.837 20.7846 341.508 19.1134C342.448 18.1734 343.388 17.4423 344.537 16.7112C346.208 15.6667 348.402 14.8312 350.491 14.5178C351.222 14.4134 352.266 14.3089 352.997 14.3089V40.3158C348.715 40.3158 344.537 41.6736 341.195 43.9714C340.777 44.2848 340.359 44.5981 339.942 44.9114L340.046 45.0159Z" fill="black"/>
<path fill-rule="evenodd" clip-rule="evenodd" d="M315.919 45.6428V20.367C315.919 17.8603 317.904 18.1737 319.679 18.1737V40.7339C319.679 42.1961 320.724 43.4494 321.768 43.8672C323.648 44.7028 326.677 43.4494 332.213 46.7917C332.63 47.0006 333.466 47.6273 333.779 47.9406H318.844C317.277 47.9406 316.024 47.7317 316.024 45.7472L315.919 45.6428Z" fill="#FEFEFE"/>
<path fill-rule="evenodd" clip-rule="evenodd" d="M312.995 45.6427V20.367C312.995 15.1447 316.128 15.1447 319.262 15.2491H319.784C321.455 15.2491 322.708 16.6069 322.708 18.1736V40.7338C322.708 40.7338 322.708 40.8382 322.813 40.9427C322.917 41.0471 323.022 41.1516 323.126 41.256C323.231 41.3605 323.753 41.3605 324.379 41.3605C326.573 41.4649 329.497 41.6738 333.884 44.2849C334.093 44.3894 334.511 44.7027 334.928 44.9116C335.451 45.3294 336.077 45.7472 336.391 46.2694C337.331 47.6272 336.913 49.5072 335.555 50.3428C335.033 50.7605 334.302 50.865 333.675 50.865H318.948C317.695 50.865 316.546 50.7605 315.502 50.0294C314.144 49.1939 313.204 47.8361 313.204 45.6427H312.995ZM315.919 45.6427V20.367C315.919 17.8603 317.904 18.1736 319.679 18.1736V40.7338C319.679 42.196 320.724 43.4494 321.768 43.8671C323.648 44.7027 326.677 43.4494 332.213 46.7916C332.631 47.0005 333.466 47.6272 333.779 47.9405H318.844C317.277 47.9405 316.024 47.7316 316.024 45.7472L315.919 45.6427Z" fill="black"/>
<path fill-rule="evenodd" clip-rule="evenodd" d="M342.761 47.8358C343.179 47.2092 345.164 46.1647 345.895 45.7469C351.222 43.1358 354.042 45.2247 356.026 42.6136C356.339 42.1958 356.757 41.3602 356.757 40.7336V18.0689C358.428 18.0689 360.517 17.7556 360.517 20.2623V45.5381C360.517 47.4181 359.368 47.7314 357.697 47.7314H342.761V47.8358Z" fill="#FEFEFE"/>
<path fill-rule="evenodd" clip-rule="evenodd" d="M340.359 46.1647C340.777 45.538 341.508 45.0158 342.239 44.4936C343.179 43.8669 344.119 43.3447 344.642 43.1358C344.746 43.1358 344.746 43.0313 344.851 43.0313C347.879 41.5691 350.073 41.3602 351.953 41.2558C352.893 41.1513 353.519 41.1513 353.728 40.838C353.728 40.7335 353.833 40.7335 353.833 40.6291V18.0689C353.833 16.3978 355.191 15.1444 356.757 15.1444C356.862 15.1444 356.966 15.1444 356.966 15.1444H357.175C360.204 15.1444 363.442 15.04 363.442 20.2623V45.538C363.442 47.6269 362.606 48.9847 361.248 49.8203C360.204 50.5514 358.951 50.6558 357.697 50.6558H342.762C341.091 50.6558 339.837 49.2981 339.837 47.7314C339.837 47.1047 340.046 46.5825 340.359 46.0603V46.1647ZM342.762 47.8358C343.179 47.2092 345.164 46.1647 345.895 45.7469C351.222 43.1358 354.042 45.2247 356.026 42.6136C356.34 42.1958 356.757 41.3602 356.757 40.7335V18.0689C358.428 18.0689 360.517 17.7556 360.517 20.2623V45.538C360.517 47.418 359.368 47.7314 357.697 47.7314H342.762V47.8358Z" fill="black"/>
</svg>
