<svg width="928" height="77" viewBox="0 0 928 77" fill="none" xmlns="http://www.w3.org/2000/svg">
<rect width="928" height="70" rx="35" fill="black"/>
<path d="M385.186 42L379.598 35.158V42H376.518V26.644H379.598V33.53L385.186 26.644H388.904L382.568 34.256L389.08 42H385.186ZM402.876 35.906C402.876 39.734 400.06 42.198 396.518 42.198C392.998 42.198 390.336 39.734 390.336 35.906C390.336 32.056 393.086 29.614 396.606 29.614C400.126 29.614 402.876 32.056 402.876 35.906ZM393.46 35.906C393.46 38.326 394.868 39.514 396.518 39.514C398.146 39.514 399.708 38.326 399.708 35.906C399.708 33.464 398.19 32.298 396.562 32.298C394.934 32.298 393.46 33.464 393.46 35.906ZM422.185 42V35.268C422.185 33.332 421.107 32.32 419.479 32.32C417.829 32.32 416.751 33.332 416.751 35.268V42H413.671V35.268C413.671 33.332 412.593 32.32 410.965 32.32C409.293 32.32 408.215 33.332 408.215 35.268V42H405.135V29.812H408.215V31.286C408.985 30.274 410.283 29.636 411.801 29.636C413.693 29.636 415.255 30.45 416.091 31.968C416.883 30.582 418.489 29.636 420.271 29.636C423.197 29.636 425.265 31.484 425.265 34.85V42H422.185ZM431.268 31.572C431.994 30.538 433.402 29.614 435.294 29.614C438.418 29.614 440.86 32.056 440.86 35.862C440.86 39.668 438.418 42.198 435.294 42.198C433.38 42.198 432.016 41.252 431.268 40.262V47.808H428.188V29.812H431.268V31.572ZM437.714 35.862C437.714 33.552 436.152 32.32 434.48 32.32C432.83 32.32 431.268 33.596 431.268 35.906C431.268 38.216 432.83 39.492 434.48 39.492C436.152 39.492 437.714 38.172 437.714 35.862ZM448.334 32.144C446.86 32.144 445.694 33.09 445.452 34.762H451.238C451.194 33.156 449.918 32.144 448.334 32.144ZM454.12 38.172C453.46 40.416 451.436 42.198 448.422 42.198C444.88 42.198 442.306 39.734 442.306 35.906C442.306 32.056 444.814 29.614 448.422 29.614C451.942 29.614 454.428 32.012 454.428 35.642C454.428 36.038 454.406 36.434 454.34 36.83H445.43C445.584 38.634 446.816 39.646 448.356 39.646C449.676 39.646 450.402 38.986 450.798 38.172H454.12ZM457.16 38.216V32.342H455.708V29.812H457.16V26.798H460.262V29.812H462.99V32.342H460.262V38.238C460.262 39.052 460.592 39.404 461.56 39.404H462.99V42H461.054C458.722 42 457.16 41.01 457.16 38.216ZM465.206 42V29.812H468.286V42H465.206ZM466.768 28.36C465.668 28.36 464.876 27.568 464.876 26.556C464.876 25.544 465.668 24.752 466.768 24.752C467.846 24.752 468.66 25.544 468.66 26.556C468.66 27.568 467.846 28.36 466.768 28.36ZM480.789 38.524C480.789 40.614 478.963 42.198 475.993 42.198C472.935 42.198 470.801 40.416 470.669 38.15H473.771C473.881 39.074 474.739 39.778 475.971 39.778C477.181 39.778 477.841 39.228 477.841 38.524C477.841 36.346 470.955 37.732 470.955 33.266C470.955 31.242 472.759 29.614 475.773 29.614C478.721 29.614 480.503 31.22 480.679 33.64H477.731C477.643 32.694 476.895 32.056 475.685 32.056C474.541 32.056 473.947 32.518 473.947 33.222C473.947 35.444 480.701 34.058 480.789 38.524ZM483.317 42V29.812H486.397V42H483.317ZM484.879 28.36C483.779 28.36 482.987 27.568 482.987 26.556C482.987 25.544 483.779 24.752 484.879 24.752C485.957 24.752 486.771 25.544 486.771 26.556C486.771 27.568 485.957 28.36 484.879 28.36ZM503.24 37.468C503.24 36.148 502.294 35.356 500.798 35.356H497.762V39.492H500.864C502.36 39.492 503.24 38.766 503.24 37.468ZM502.866 31.066C502.866 29.834 502.03 29.13 500.578 29.13H497.762V32.98H500.578C502.03 32.98 502.866 32.32 502.866 31.066ZM506.364 37.842C506.364 40.284 504.494 42 501.304 42H494.682V26.644H501.018C504.23 26.644 506.012 28.316 506.012 30.604C506.012 32.474 504.89 33.64 503.394 34.124C505.132 34.432 506.364 36.038 506.364 37.842ZM508.027 35.862C508.027 32.056 510.491 29.614 513.593 29.614C515.551 29.614 516.893 30.538 517.619 31.55V29.812H520.721V42H517.619V40.218C516.893 41.274 515.507 42.198 513.571 42.198C510.491 42.198 508.027 39.668 508.027 35.862ZM517.619 35.906C517.619 33.596 516.079 32.32 514.385 32.32C512.735 32.32 511.173 33.552 511.173 35.862C511.173 38.172 512.735 39.492 514.385 39.492C516.079 39.492 517.619 38.216 517.619 35.906ZM523.729 42V25.72H526.809V34.982L530.901 29.812H534.905L529.537 35.928L534.949 42H530.945L526.809 36.808V42H523.729ZM535.785 35.862C535.785 32.056 538.249 29.614 541.351 29.614C543.309 29.614 544.651 30.538 545.377 31.55V29.812H548.479V42H545.377V40.218C544.651 41.274 543.265 42.198 541.329 42.198C538.249 42.198 535.785 39.668 535.785 35.862ZM545.377 35.906C545.377 33.596 543.837 32.32 542.143 32.32C540.493 32.32 538.931 33.552 538.931 35.862C538.931 38.172 540.493 39.492 542.143 39.492C543.837 39.492 545.377 38.216 545.377 35.906ZM551.971 38.216V32.342H550.519V29.812H551.971V26.798H555.073V29.812H557.801V32.342H555.073V38.238C555.073 39.052 555.403 39.404 556.371 39.404H557.801V42H555.865C553.533 42 551.971 41.01 551.971 38.216ZM575.554 30.208H572.562C572.606 29.218 572.012 28.712 571.198 28.712C570.362 28.712 569.768 29.262 569.768 30.01C569.768 30.758 570.208 31.418 571.176 32.43L575.048 36.258C575.092 36.214 575.114 36.148 575.158 36.082L576.412 33.992H579.624L578.084 36.698C577.776 37.292 577.468 37.82 577.138 38.326L580.856 42H577.072L575.4 40.35C573.97 41.626 572.276 42.264 570.186 42.264C566.754 42.264 564.51 40.416 564.51 37.556C564.51 35.576 565.632 33.882 567.898 32.87C567.084 31.88 566.776 31.044 566.776 30.032C566.776 27.942 568.47 26.314 571.286 26.314C574.168 26.314 575.664 28.096 575.554 30.208ZM570.274 39.712C571.528 39.712 572.562 39.272 573.464 38.436L569.68 34.696C568.228 35.334 567.546 36.258 567.546 37.38C567.546 38.678 568.602 39.712 570.274 39.712ZM598.359 37.556C598.359 39.976 596.423 42.154 592.925 42.154C589.735 42.154 587.271 40.482 587.227 37.578H590.527C590.615 38.81 591.429 39.624 592.859 39.624C594.311 39.624 595.169 38.854 595.169 37.754C595.169 34.432 587.249 36.434 587.271 30.868C587.271 28.096 589.515 26.424 592.683 26.424C595.829 26.424 597.985 28.03 598.183 30.802H594.795C594.729 29.79 593.915 28.998 592.595 28.976C591.385 28.932 590.483 29.526 590.483 30.78C590.483 33.86 598.359 32.144 598.359 37.556ZM606.266 32.144C604.792 32.144 603.626 33.09 603.384 34.762H609.17C609.126 33.156 607.85 32.144 606.266 32.144ZM612.052 38.172C611.392 40.416 609.368 42.198 606.354 42.198C602.812 42.198 600.238 39.734 600.238 35.906C600.238 32.056 602.746 29.614 606.354 29.614C609.874 29.614 612.36 32.012 612.36 35.642C612.36 36.038 612.338 36.434 612.272 36.83H603.362C603.516 38.634 604.748 39.646 606.288 39.646C607.608 39.646 608.334 38.986 608.73 38.172H612.052ZM623.144 42V35.268C623.144 33.31 622.066 32.254 620.438 32.254C618.766 32.254 617.688 33.31 617.688 35.268V42H614.608V29.812H617.688V31.33C618.48 30.296 619.8 29.636 621.362 29.636C624.2 29.636 626.224 31.484 626.224 34.85V42H623.144ZM629.153 42V29.812H632.233V42H629.153ZM630.715 28.36C629.615 28.36 628.823 27.568 628.823 26.556C628.823 25.544 629.615 24.752 630.715 24.752C631.793 24.752 632.607 25.544 632.607 26.556C632.607 27.568 631.793 28.36 630.715 28.36Z" fill="white"/>
<path d="M350.989 7.48533C352.572 7.59082 353.627 8.32923 354.26 9.17313C354.576 9.70057 354.787 10.228 354.787 10.8609C354.787 11.3884 354.682 12.0213 354.471 12.5487C354.049 13.3926 353.416 14.0255 352.466 14.4475C352.888 14.764 353.31 15.2914 353.205 16.1353C353.099 16.9792 352.677 17.5066 352.15 17.8231C351.622 18.1395 350.989 18.1395 350.251 18.1395C350.04 18.1395 349.935 18.1395 349.724 18.0341C348.036 17.8231 343.605 17.2956 341.179 20.1438L340.652 19.7218C340.652 19.7218 342.234 16.9792 342.34 15.3969C342.34 14.9749 342.34 14.4475 342.34 13.9201C342.34 12.4432 342.34 10.9664 343.183 10.017C343.5 9.59508 343.922 9.48959 344.238 9.3841C344.449 9.3841 344.766 9.3841 344.977 9.48959C345.188 9.59508 345.399 9.70057 345.504 9.80605L345.61 9.91154C346.243 9.06764 347.719 7.16887 350.989 7.37985V7.48533ZM353.627 9.59508C353.205 8.85667 352.255 8.32923 350.884 8.22374C347.719 8.01277 346.454 10.017 346.032 10.65C345.926 10.8609 345.821 10.9664 345.61 10.9664C345.399 10.9664 345.188 10.8609 345.188 10.65C345.188 10.65 345.082 10.5445 344.977 10.439C344.871 10.3335 344.766 10.228 344.66 10.228C344.555 10.228 344.449 10.1225 344.238 10.1225C344.027 10.1225 343.816 10.228 343.605 10.5445C342.972 11.2829 342.972 12.6542 342.972 14.0255C342.972 14.553 342.972 15.0804 342.972 15.6078C342.867 16.4517 342.445 17.6121 342.023 18.5615C344.66 16.7682 348.247 17.1902 349.724 17.4011C349.935 17.4011 350.146 17.4011 350.146 17.5066C350.673 17.5066 351.2 17.5066 351.622 17.2956C351.939 17.0847 352.255 16.7682 352.255 16.1353C352.466 14.9749 351.095 14.8694 351.095 14.8694V14.131C352.361 13.9201 353.31 13.1816 353.732 12.3377C353.943 11.9158 354.049 11.3884 354.049 10.9664C354.049 10.5445 353.943 10.017 353.627 9.70057V9.59508ZM330.314 32.9077C330.736 32.3803 331.263 31.8529 331.896 31.22C334.85 27.9499 339.069 23.4139 343.078 24.2578C344.027 24.4688 344.66 24.7852 345.188 25.2072C345.715 25.6291 346.032 26.0511 346.243 26.5785C346.454 27.106 346.454 27.6334 346.348 28.0553C346.348 28.2663 346.243 28.3718 346.243 28.4773C347.403 28.6883 350.462 29.5322 353.838 32.6968C354.787 33.6462 355.525 34.701 356.053 35.9669C356.58 37.3382 356.791 38.7095 356.791 40.0809C356.791 41.7687 356.369 42.929 355.842 43.7729C355.42 44.4059 354.892 44.8278 354.26 45.1443C353.627 45.4607 352.994 45.5662 352.255 45.4607C350.251 45.3552 347.93 44.4059 345.926 43.14C346.032 43.6674 345.926 44.0894 345.821 44.4059C345.61 45.0388 345.188 45.4607 344.766 45.7772C344.238 46.0936 343.711 46.3046 343.078 46.3046C342.234 46.4101 341.39 46.1991 340.757 45.8827C340.23 45.5662 339.808 45.0388 339.386 44.3004C338.226 42.7181 336.538 40.2919 331.791 38.6041L331.896 37.8656C339.386 38.1821 342.55 39.8699 342.867 40.0809C343.183 40.1864 346.032 41.1357 347.825 39.5534C349.513 37.9711 347.403 35.2285 347.403 35.2285C347.403 35.2285 344.449 29.9541 331.052 33.2242L330.736 32.5913L330.314 32.9077ZM332.424 31.7474L331.685 32.5913C344.238 29.8486 347.508 34.8065 347.719 35.123C347.93 35.4394 350.146 38.3931 348.036 40.3973C345.926 42.4016 342.34 41.0303 342.34 41.0303H342.234C342.234 41.0303 339.808 39.5534 333.69 39.026C337.171 40.6083 338.647 42.7181 339.597 44.0894C340.019 44.7223 340.441 45.2497 340.757 45.4607C341.179 45.7772 341.918 45.8827 342.656 45.7772C343.183 45.6717 343.605 45.5662 344.027 45.3552C344.449 45.1443 344.66 44.7223 344.871 44.3004C344.977 43.8784 344.977 43.2455 344.766 42.6126L345.293 42.1906C347.403 43.562 349.935 44.7223 352.044 44.8278C352.677 44.8278 353.205 44.7223 353.732 44.5113C354.26 44.3004 354.682 43.8784 354.998 43.4565C355.42 42.7181 355.736 41.6632 355.842 40.0809C355.842 38.815 355.631 37.5492 355.209 36.2833C354.787 35.123 354.154 34.1736 353.205 33.3297C348.985 29.4267 345.504 29.3212 345.504 29.3212H344.871L345.293 28.7937C345.399 28.5828 345.61 28.3718 345.61 28.1608C345.715 27.8444 345.715 27.4224 345.504 27.106C345.399 26.684 345.082 26.3675 344.66 26.0511C344.238 25.7346 343.605 25.4182 342.867 25.2072C339.28 24.3633 335.272 28.7937 332.424 31.9584V31.7474ZM337.487 16.1353C337.065 18.245 333.373 22.1481 333.268 22.1481L326.411 29.7431L325.884 29.3212C325.884 29.3212 328.521 24.1523 328.732 20.1438C328.943 16.2408 326.622 15.0804 326.622 15.0804H326.516C326.516 15.0804 324.09 13.0762 321.77 17.7176C319.343 22.6755 321.137 30.587 321.137 30.587L320.504 30.9035C320.504 30.9035 315.546 25.1017 313.858 23.4139C312.909 22.359 311.959 21.0932 311.643 19.6164C311.326 18.456 311.326 17.2956 311.959 16.1353C313.014 14.2365 314.702 14.9749 315.651 15.5024C315.757 14.0255 316.39 12.4432 317.234 10.7554C318.394 8.54021 320.082 6.32498 321.875 4.74267C323.774 3.05487 325.778 2 327.571 2C328.204 2 328.837 2.10549 329.47 2.42195C333.479 4.53169 332.74 11.0719 332.318 13.4981C333.162 12.8652 334.533 12.0213 335.483 12.0213C335.588 12.0213 335.799 12.0213 335.905 12.0213C336.432 12.1268 336.854 12.4432 337.171 12.9707C337.487 13.3926 337.593 14.0255 337.593 14.6585C337.593 15.0804 337.593 15.5024 337.487 15.9243V16.1353ZM332.846 21.7261C332.846 21.7261 336.432 17.9286 336.854 16.0298C336.96 15.6078 336.96 15.2914 336.96 14.9749C336.96 14.4475 336.854 13.9201 336.643 13.6036C336.432 13.2871 336.221 13.0762 335.905 12.9707C335.799 12.9707 335.694 12.9707 335.588 12.9707C334.322 12.9707 332.107 14.8694 332.107 14.8694L331.58 14.553C331.58 14.553 333.69 5.58656 329.259 3.26585C328.732 3.05487 328.204 2.8439 327.677 2.8439C325.989 2.8439 324.196 3.89877 322.402 5.48108C320.609 7.06339 319.027 9.17313 317.866 11.2829C316.917 13.0762 316.39 14.8694 316.39 16.3463V17.0847L315.757 16.5572C315.757 16.5572 313.647 14.6585 312.592 16.5572C312.065 17.5066 312.065 18.456 312.381 19.5109C312.698 20.7767 313.542 22.0426 314.491 22.992C315.757 24.2578 318.816 27.8444 320.293 29.5322C319.871 27.0005 319.238 21.4096 321.137 17.5066C323.668 12.3377 326.622 14.342 326.938 14.553C327.255 14.6585 329.576 16.1353 329.47 20.2493C329.365 22.781 328.31 25.7346 327.466 27.6334L332.846 21.7261ZM343.5 50.4186L344.027 50.5241C345.293 50.6296 346.454 50.7351 347.403 50.4186C347.825 50.3131 348.247 49.9967 348.669 49.7857C348.985 49.5747 349.302 49.3637 349.513 49.1528C349.724 48.8363 350.04 48.6253 350.462 48.5199C350.673 48.4144 350.884 48.4144 351.2 48.5199C351.411 48.6253 351.622 48.7308 351.833 48.9418C351.939 49.1528 352.044 49.4692 352.044 49.7857C352.044 50.4186 351.833 50.9461 351.517 51.2625C351.939 51.368 352.361 51.4735 352.572 51.79C352.888 52.0009 353.099 52.4229 353.31 52.7393C353.416 53.1613 353.521 53.5832 353.416 54.0052C353.31 54.7436 352.783 55.5875 351.728 56.1149C350.884 56.6424 350.04 56.5369 349.407 56.4314C349.618 56.8533 349.724 57.2753 349.513 57.8027C349.407 58.1192 349.302 58.3302 349.091 58.5411C348.88 58.7521 348.669 58.8576 348.352 58.8576C348.036 58.8576 347.825 58.7521 347.508 58.5411C347.086 58.2247 346.559 57.6972 346.137 56.7479C345.821 56.1149 345.61 55.482 345.504 54.9546C345.399 54.5326 345.293 54.1107 345.082 53.6887C344.555 52.4229 343.394 51.0515 343.394 50.9461L343.711 50.4186H343.5ZM347.719 51.0515C346.77 51.4735 345.504 51.368 344.344 51.2625C344.766 51.79 345.293 52.6339 345.715 53.4778C345.926 53.8997 346.032 54.4271 346.137 54.8491C346.243 55.3765 346.348 55.904 346.664 56.5369C347.086 57.3808 347.508 57.8027 347.825 58.0137C348.036 58.1192 348.141 58.2247 348.247 58.2247C348.352 58.2247 348.458 58.2247 348.563 58.1192C348.669 58.0137 348.774 57.9082 348.774 57.6972C348.88 57.3808 348.774 57.0643 348.669 56.7479C348.563 56.4314 348.247 56.1149 348.036 55.904L348.458 55.3765C348.458 55.3765 349.829 56.4314 351.306 55.5875C352.15 55.1655 352.572 54.5326 352.677 54.0052C352.783 53.6887 352.677 53.3723 352.572 53.1613C352.466 52.9503 352.361 52.6339 352.044 52.5284C351.622 52.2119 351.095 52.0009 350.357 52.2119L350.146 51.579C350.146 51.579 351.2 51.157 351.2 49.9967C351.2 49.7857 351.2 49.5747 351.095 49.4692C351.095 49.3638 350.989 49.3637 350.884 49.3637C350.778 49.3637 350.673 49.3637 350.568 49.3637C350.357 49.4692 350.146 49.5747 349.935 49.7857C349.724 49.9967 349.407 50.3131 348.985 50.5241C348.563 50.7351 348.036 51.0515 347.614 51.157L347.719 51.0515ZM336.96 49.9967C337.593 50.4186 338.331 50.7351 338.964 51.0515C340.863 52.0009 342.445 52.7393 342.023 54.8491C342.023 55.0601 341.918 55.271 341.812 55.3765C341.496 56.0094 341.074 56.3259 340.441 56.5369C339.808 56.6424 339.175 56.6424 338.436 56.5369C337.804 56.4314 337.065 56.2204 336.327 55.904C335.272 55.482 334.533 54.8491 333.901 54.1107C333.268 53.3723 332.846 52.6339 332.424 51.6845C332.002 50.5241 331.791 49.3638 331.685 48.0979C331.58 46.8321 331.58 45.5662 331.58 44.4059L332.318 44.3004C332.635 45.3552 333.373 46.5156 334.217 47.5705C335.061 48.6253 336.116 49.5747 337.065 50.2076L336.96 49.9967ZM338.647 51.6845C338.015 51.368 337.276 51.0515 336.643 50.6296C335.588 49.9967 334.533 48.9418 333.584 47.8869C333.057 47.254 332.635 46.6211 332.318 45.9882C332.318 46.6211 332.318 47.3595 332.424 47.9924C332.529 49.1528 332.74 50.3131 333.162 51.368C333.479 52.2119 333.901 52.9503 334.428 53.5832C334.955 54.2162 335.694 54.7436 336.643 55.1655C337.276 55.482 337.909 55.693 338.542 55.7985C339.175 55.904 339.808 55.904 340.23 55.7985C340.652 55.693 340.968 55.482 341.179 55.0601C341.179 54.9546 341.285 54.8491 341.285 54.6381C341.601 53.0558 340.23 52.4229 338.647 51.6845ZM303.098 28.2663C306.896 26.5785 311.01 29.2157 311.01 29.2157L318.605 34.3846L318.288 35.0175C318.288 35.0175 315.757 34.3846 312.592 34.5955C311.115 34.701 309.955 35.2285 309.111 35.8614C308.267 36.4943 307.74 37.3382 307.74 38.1821V38.2876C307.845 38.9205 308.267 39.448 309.006 39.7644C309.744 40.1864 310.904 40.3973 312.17 40.2919C312.381 40.2919 312.698 40.2919 312.909 40.1864C316.179 39.7644 318.183 38.4986 318.183 38.4986L318.71 38.9205C318.288 40.7138 317.761 42.2961 317.023 43.6674C316.284 45.0388 315.44 46.3046 314.28 47.3595C313.436 48.2034 311.537 49.7857 309.744 50.5241C309.006 50.8406 308.267 51.0515 307.634 51.0515C306.896 51.0515 306.263 50.8406 305.735 50.3131C305.524 50.1022 305.314 49.7857 305.103 49.3637C304.892 48.8363 304.892 48.0979 305.208 47.3595C305.419 46.9375 305.63 46.5156 305.946 45.9882C304.364 46.7266 302.993 47.1485 301.832 47.3595C300.039 47.7814 298.668 47.676 297.613 47.3595C296.031 46.8321 294.976 45.8827 294.448 44.7223C293.815 43.351 293.921 41.6632 294.343 39.9754C295.82 34.701 300.778 33.1187 303.098 32.5913C302.676 32.3803 302.149 32.0639 301.832 31.6419C301.516 31.3254 301.2 30.9035 301.094 30.587C300.989 30.1651 300.989 29.7431 301.2 29.3212C301.41 28.8992 301.938 28.4773 302.782 28.1608L303.098 28.2663ZM310.693 29.8486C310.693 29.8486 306.79 27.4224 303.415 28.8992C302.782 29.2157 302.36 29.5322 302.254 29.8486C302.149 30.0596 302.149 30.3761 302.149 30.587C302.254 30.9035 302.465 31.1145 302.676 31.4309C303.309 32.0639 304.153 32.4858 304.681 32.4858C304.997 32.4858 305.103 32.6968 305.103 32.9077C305.103 33.2242 304.786 33.2242 304.364 33.3297C302.782 33.6462 297.086 34.8065 295.503 40.3973C295.081 41.8742 294.976 43.351 295.503 44.6168C295.925 45.6717 296.769 46.4101 298.246 46.8321C299.195 47.1485 300.461 47.1485 302.149 46.8321C303.626 46.5156 305.314 45.8827 307.318 44.8278L307.74 45.3552C307.107 46.1991 306.579 46.9375 306.263 47.676C306.052 48.3089 305.946 48.7308 306.157 49.1528C306.263 49.4692 306.474 49.6802 306.579 49.8912C306.896 50.3131 307.423 50.4186 307.951 50.4186C308.478 50.4186 309.111 50.2076 309.744 49.9967C311.537 49.2583 313.331 47.7814 314.069 46.9375C315.124 45.8827 315.968 44.7223 316.601 43.4565C317.128 42.2961 317.656 41.0303 317.972 39.6589C317.023 40.0809 315.335 40.7138 313.12 41.0303C312.803 41.0303 312.592 41.1357 312.276 41.1357C310.799 41.2412 309.638 40.9248 308.689 40.5028C307.74 39.9754 307.212 39.3425 307.107 38.3931V38.1821C307.107 37.2327 307.634 36.0724 308.689 35.334C309.638 34.5955 310.904 34.0681 312.487 33.9626C314.174 33.8571 315.651 33.9626 316.706 34.0681L310.482 29.8486H310.693ZM324.512 43.4565C325.356 43.351 326.094 43.4565 326.727 43.6674C327.677 44.0894 328.415 44.7223 328.837 45.6717C329.259 46.5156 329.576 47.676 329.681 48.7308C329.998 51.4735 329.47 54.5326 328.732 56.4314C326.622 61.9167 321.664 66.0307 316.073 69.1953C310.482 72.36 304.259 74.6807 299.406 76.3685L298.773 76.5794L298.984 75.9465C298.984 75.7355 299.195 75.7355 299.512 75.6301C300.883 75.2081 307.107 72.9929 314.491 63.1826C316.495 60.4399 317.761 58.0137 318.605 55.904C319.449 53.6887 319.871 51.8954 320.187 50.2076L320.398 49.3637C321.031 46.3046 321.453 43.8784 324.618 43.562L324.512 43.4565ZM326.516 44.4059C325.989 44.1949 325.356 44.0894 324.618 44.1949C321.98 44.5113 321.559 46.6211 321.031 49.4692L320.82 50.3131C320.504 52.0009 320.082 53.8997 319.238 56.1149C318.394 58.3302 317.128 60.8619 315.018 63.6045C311.115 68.7734 307.529 71.938 304.786 73.7313C308.373 72.36 312.276 70.6722 315.757 68.6679C321.242 65.5033 326.094 61.4948 328.099 56.2204C328.732 54.5326 329.259 51.4735 329.048 48.9418C328.943 47.8869 328.732 46.9375 328.204 46.0936C327.782 45.3552 327.255 44.7223 326.411 44.4059H326.516ZM325.04 32.2748C326.305 32.2748 327.466 32.8023 328.31 33.6462C329.154 34.4901 329.681 35.6504 329.681 36.9163C329.681 38.1821 329.154 39.3425 328.31 40.1864C327.466 41.0303 326.305 41.5577 325.04 41.5577C323.774 41.5577 322.613 41.0303 321.77 40.1864C320.926 39.3425 320.398 38.1821 320.398 36.9163C320.398 35.6504 320.926 34.4901 321.77 33.6462C322.613 32.8023 323.774 32.2748 325.04 32.2748ZM327.782 34.0681C327.044 33.3297 326.094 32.9077 325.04 32.9077C323.985 32.9077 323.035 33.3297 322.297 34.0681C321.559 34.8065 321.137 35.7559 321.137 36.8108C321.137 37.8656 321.559 38.815 322.297 39.5534C323.035 40.2919 323.985 40.7138 325.04 40.7138C326.094 40.7138 327.044 40.2919 327.782 39.5534C328.521 38.815 328.943 37.8656 328.943 36.8108C328.943 35.7559 328.521 34.8065 327.782 34.0681ZM317.972 48.2034C317.761 50.6296 317.445 52.3174 316.917 53.7942C316.39 55.271 315.757 56.3259 314.807 57.3808C313.963 58.3302 312.487 59.2795 311.01 59.807C310.271 60.018 309.533 60.2289 308.9 60.2289C308.162 60.2289 307.634 59.9125 307.318 59.4905C307.107 59.1741 307.001 58.8576 307.001 58.4356C306.79 56.1149 308.584 55.1655 310.799 54.1107C311.537 53.6887 312.487 53.2668 313.225 52.7393C316.179 50.7351 317.339 48.2034 317.339 48.2034L317.972 48.4144V48.2034ZM316.284 53.5832C316.601 52.5284 316.917 51.368 317.128 49.7857C316.39 50.7351 315.335 52.1064 313.647 53.1613C312.803 53.6887 311.959 54.2162 311.115 54.6381C309.217 55.5875 307.634 56.4314 307.74 58.3302C307.74 58.6466 307.845 58.8576 307.951 58.9631C308.162 59.2795 308.584 59.385 309.006 59.385C309.533 59.385 310.166 59.2795 310.799 59.0686C312.17 58.6466 313.542 57.6972 314.28 56.8533C315.124 55.904 315.757 54.8491 316.284 53.4778V53.5832ZM307.529 17.9286C307.845 19.9328 309.533 23.3084 309.533 23.3084L309.111 23.7304C308.267 23.3084 307.318 23.0974 306.263 22.8865C305.208 22.6755 304.153 22.6755 303.204 22.781C302.254 22.8865 301.2 22.8865 300.356 22.6755C299.934 22.57 299.617 22.359 299.301 22.1481C298.984 21.9371 298.773 21.6206 298.773 21.1987C298.773 20.9877 298.773 20.8822 298.773 20.6712C298.984 19.8273 299.617 19.4054 300.25 19.2999C299.828 18.878 299.512 18.456 299.301 17.9286C299.09 17.4011 298.879 16.7682 298.773 16.1353C298.668 15.5024 298.773 14.8694 298.879 14.342C299.09 13.3926 299.723 12.6542 300.672 12.2323C303.098 11.0719 304.364 13.0762 304.892 14.2365C305.208 13.8146 305.63 13.4981 306.368 13.8146C307.318 14.2365 307.318 14.9749 307.318 16.1353C307.318 16.6627 307.318 17.1902 307.423 17.8231L307.529 17.9286ZM308.478 22.781C307.951 21.6206 307.001 19.5109 306.79 18.0341C306.685 17.4011 306.685 16.7682 306.685 16.2408C306.685 15.2914 306.685 14.764 306.157 14.553C305.524 14.2365 305.208 15.2914 305.208 15.2914H304.575C304.575 15.2914 303.626 11.7048 300.989 12.9707C300.25 13.2871 299.828 13.9201 299.617 14.6585C299.512 15.1859 299.512 15.7133 299.512 16.1353C299.617 16.6627 299.723 17.1902 299.934 17.6121C300.356 18.456 300.989 19.0889 301.727 19.2999L301.516 19.9328C301.516 19.9328 299.723 19.5109 299.406 20.7767C299.406 20.8822 299.406 20.9877 299.406 21.0932C299.406 21.3042 299.512 21.4096 299.723 21.5151C299.934 21.6206 300.145 21.8316 300.461 21.8316C301.2 22.0426 302.149 22.0426 302.993 21.9371C303.942 21.8316 305.103 21.8316 306.157 22.0426C306.896 22.1481 307.634 22.359 308.373 22.57L308.478 22.781Z" fill="#FEFEFE"/>
<path fill-rule="evenodd" clip-rule="evenodd" d="M319.976 48.2033C318.605 48.2033 315.862 48.0978 315.862 46.41C315.862 45.9881 315.968 45.7771 316.179 45.5661C316.917 44.7222 318.183 45.5661 319.343 45.5661C321.348 45.5661 322.614 45.1442 323.985 43.7729C324.512 43.2454 324.723 42.8235 325.145 42.0851C325.356 41.7686 325.462 41.3467 325.673 41.1357C326.517 40.1863 328.099 40.8192 328.099 42.0851C328.099 43.2454 326.411 45.5661 325.251 46.3046C323.985 47.2539 322.297 48.2033 320.082 48.2033H319.976ZM315.546 39.2369C315.018 39.2369 314.069 38.7095 313.12 39.6589C312.803 39.9753 312.698 40.5028 312.381 40.9247C311.432 41.7686 309.111 41.0302 310.588 38.604C310.799 38.182 311.115 37.8656 311.537 37.5491C313.331 35.9668 316.917 36.1778 316.917 37.9711C316.917 38.7095 316.284 39.3424 315.546 39.3424V39.2369ZM325.884 34.3845C325.356 34.3845 323.985 33.6461 323.141 35.1229C322.824 35.6503 322.719 36.2833 321.664 36.2833C320.926 36.2833 320.293 35.6503 320.293 34.9119C320.293 34.1735 321.137 33.0132 321.664 32.5912C323.457 30.9034 327.044 31.2199 327.044 32.8022C327.044 33.6461 326.622 34.3845 325.778 34.3845H325.884ZM303.204 33.3296C303.204 34.5955 304.153 35.7558 304.786 37.3381C305.103 37.9711 305.314 38.4985 305.63 39.0259L308.056 44.3003C308.689 45.4607 309.111 46.621 309.744 47.7814C311.01 49.7856 312.909 51.6844 314.913 52.8448C317.972 54.638 321.559 55.5874 325.567 54.9545C326.938 54.7435 327.466 54.2161 328.31 53.3722C329.259 52.4228 329.47 52.1064 330.314 51.0515C330.525 50.735 330.631 50.524 330.842 50.2076C331.052 49.8911 331.263 49.5747 331.369 49.2582C333.057 46.0936 333.584 41.9796 332.635 38.393C332.318 37.3381 332.107 36.5997 331.685 35.6503L326.938 25.5236C326.728 24.9961 326.517 24.6797 326.306 24.2577C325.567 22.6754 325.462 22.2535 322.508 22.8864C321.453 23.0974 320.398 23.3083 319.449 23.6248C316.284 24.5742 314.386 25.4181 311.537 26.8949C309.85 27.7388 308.373 28.5827 306.896 29.6376C306.474 29.8486 306.263 30.165 305.841 30.376C305.103 30.9034 303.098 32.4857 303.098 33.3296H303.204Z" fill="#FEFEFE"/>
<path fill-rule="evenodd" clip-rule="evenodd" d="M319.976 48.2032C318.605 48.2032 315.862 48.0977 315.862 46.4099C315.862 45.9879 315.968 45.7769 316.179 45.566C316.917 44.7221 318.183 45.566 319.343 45.566C321.348 45.566 322.614 45.144 323.985 43.7727C324.512 43.2453 324.723 42.8233 325.145 42.0849C325.356 41.7684 325.462 41.3465 325.673 41.1355C326.517 40.1861 328.099 40.819 328.099 42.0849C328.099 43.2453 326.411 45.566 325.251 46.3044C323.985 47.2538 322.297 48.2032 320.082 48.2032H319.976ZM315.546 39.2367C315.018 39.2367 314.069 38.7093 313.12 39.6587C312.803 39.9752 312.698 40.5026 312.381 40.9245C311.432 41.7684 309.111 41.03 310.588 38.6038C310.799 38.1819 311.115 37.8654 311.537 37.5489C313.331 35.9666 316.917 36.1776 316.917 37.9709C316.917 38.7093 316.284 39.3422 315.546 39.3422V39.2367ZM325.884 34.3843C325.356 34.3843 323.985 33.6459 323.141 35.1227C322.825 35.6502 322.719 36.2831 321.664 36.2831C320.926 36.2831 320.293 35.6502 320.293 34.9118C320.293 34.1734 321.137 33.013 321.664 32.5911C323.457 30.9033 327.044 31.2197 327.044 32.802C327.044 33.6459 326.622 34.3843 325.778 34.3843H325.884ZM303.204 33.3295C303.204 34.5953 304.153 35.7557 304.786 37.338C305.103 37.9709 305.314 38.4983 305.63 39.0258L308.056 44.3001C308.689 45.4605 309.111 46.6208 309.744 47.7812C311.01 49.7855 312.909 51.6842 314.913 52.8446C317.972 54.6379 321.559 55.5873 325.567 54.9543C326.939 54.7434 327.466 54.2159 328.31 53.372C329.259 52.4226 329.47 52.1062 330.314 51.0513C330.525 50.7348 330.631 50.5239 330.842 50.2074C331.053 49.891 331.263 49.5745 331.369 49.258C333.057 46.0934 333.584 41.9794 332.635 38.3928C332.318 37.338 332.107 36.5996 331.685 35.6502L326.939 25.5234C326.728 24.996 326.517 24.6795 326.306 24.2576C325.567 22.6753 325.462 22.2533 322.508 22.8862C321.453 23.0972 320.398 23.3082 319.449 23.6246C316.284 24.574 314.386 25.4179 311.537 26.8947C309.85 27.7386 308.373 28.5825 306.896 29.6374C306.474 29.8484 306.263 30.1648 305.841 30.3758C305.103 30.9033 303.098 32.4856 303.098 33.3295H303.204ZM301.516 37.338C300.883 36.0721 300.25 34.9118 300.25 33.3295C300.25 32.1691 300.883 31.1142 301.833 30.1648C302.676 29.3209 303.731 28.3716 304.259 28.0551L304.47 27.9496L304.575 27.8441C304.786 27.6332 305.103 27.4222 305.419 27.2112C306.263 26.6838 307.001 26.1563 307.845 25.6289C308.689 25.1015 309.533 24.6795 310.483 24.2576C312.065 23.5192 313.331 22.8862 314.491 22.3588C315.757 21.8314 317.128 21.3039 318.816 20.7765C319.765 20.46 320.82 20.249 321.875 20.0381H321.981H322.086C327.044 18.9832 327.466 19.7216 328.943 22.5698C328.943 22.6753 329.048 22.6753 329.048 22.7807L329.154 22.9917L329.259 23.3082C329.47 23.6246 329.576 23.9411 329.787 24.363L334.428 34.2788C334.428 34.3843 334.534 34.4898 334.534 34.4898C334.745 35.0173 334.956 35.4392 335.167 35.9666C335.377 36.4941 335.483 37.0215 335.694 37.6544C336.221 39.7642 336.327 41.9794 336.116 44.1946C335.905 46.3044 335.272 48.4141 334.323 50.3129C334.323 50.4184 334.217 50.5239 334.217 50.5239C334.217 50.6294 334.112 50.8403 333.901 51.0513C333.795 51.1568 333.795 51.2623 333.69 51.3678C333.69 51.4733 333.584 51.4733 333.584 51.5787L333.479 51.7897C333.268 52.0007 333.162 52.3172 332.951 52.6336C332.529 53.2665 332.213 53.583 331.896 54.0049C331.58 54.4269 331.263 54.7434 330.631 55.2708C329.998 55.9037 329.576 56.3257 328.837 56.7476C328.099 57.1696 327.255 57.486 326.2 57.697C323.879 58.1189 321.77 58.0135 319.66 57.5915C317.445 57.1696 315.44 56.3257 313.542 55.1653C312.276 54.4269 311.115 53.4775 310.061 52.5281C309.006 51.4733 308.056 50.3129 307.318 49.1525C306.79 48.3086 306.474 47.5702 306.052 46.7263C306.052 46.6208 305.947 46.6208 305.947 46.5154C305.736 46.0934 305.63 45.7769 305.419 45.4605C305.419 45.4605 305.419 45.4605 305.419 45.355L302.993 40.2916C302.993 40.1861 302.887 40.0806 302.887 39.9752C302.782 39.6587 302.676 39.4477 302.571 39.2367C302.36 38.9203 302.255 38.6038 302.149 38.2874C301.938 37.8654 301.727 37.5489 301.622 37.127L301.516 37.338Z" fill="black"/>
<path fill-rule="evenodd" clip-rule="evenodd" d="M339.491 26.262C339.491 25.5236 340.124 24.8907 340.863 24.8907C342.129 24.8907 341.496 25.8401 343.394 25.8401C344.238 25.8401 344.449 24.8907 345.399 24.8907C346.559 24.8907 347.719 26.473 345.61 27.8443C342.867 29.5321 339.491 27.8443 339.491 26.262ZM324.512 18.7724V19.9328C326.727 19.9328 327.255 19.6163 327.993 21.0931L328.837 22.9919C328.943 23.0974 329.681 24.7852 329.681 24.7852C329.787 24.8907 329.998 24.8907 330.525 25.3126C331.052 25.7346 331.263 25.7346 331.896 25.7346C332.951 25.7346 333.057 24.7852 334.006 24.7852C335.588 24.7852 336.432 27.0004 333.479 28.0553C332.846 28.2663 332.424 28.3718 331.474 28.3718C331.685 29.1102 334.217 34.1736 334.428 34.8065C335.483 34.701 334.955 34.49 337.698 34.49C340.019 34.49 343.605 36.4943 343.605 37.7601V38.1821C343.605 38.7095 342.551 39.9753 341.179 38.7095C339.702 37.3382 338.331 37.1272 336.432 37.1272C335.905 37.1272 335.799 37.3382 335.272 37.3382L335.694 39.4479C336.116 41.9796 335.799 44.3003 335.272 46.7265C336.01 46.832 336.01 47.043 337.382 47.043C338.647 47.043 341.179 45.7771 342.234 45.1442C346.559 42.507 349.724 37.4437 349.724 32.2748V18.5614C349.724 17.4011 348.774 17.0846 347.93 16.8737C347.086 16.5572 346.032 16.3462 345.082 16.1352C341.074 15.5023 339.913 15.5023 335.905 15.5023C333.057 15.5023 329.048 16.0298 326.516 16.8737C325.884 17.0846 324.512 17.4011 324.512 18.5614V18.7724Z" fill="#FEFEFE"/>
<path fill-rule="evenodd" clip-rule="evenodd" d="M345.399 24.8907C346.559 24.8907 347.72 26.473 345.61 27.8443C342.867 29.5321 339.492 27.8443 339.492 26.262C339.492 25.5236 340.125 24.8907 340.863 24.8907C342.129 24.8907 341.496 25.8401 343.395 25.8401C344.239 25.8401 344.45 24.8907 345.399 24.8907ZM334.006 24.8907C335.589 24.8907 336.433 27.1059 333.479 28.1608C332.846 28.3717 332.424 28.4772 331.475 28.4772C331.686 29.2156 334.217 34.279 334.428 34.912C335.483 34.8065 334.956 34.5955 337.698 34.5955C340.019 34.5955 343.606 36.5997 343.606 37.8656V38.2875C343.606 38.815 342.551 40.0808 341.179 38.815C339.703 37.4436 338.331 37.2327 336.433 37.2327C335.905 37.2327 335.8 37.4436 335.272 37.4436L335.694 39.5534C336.116 42.0851 335.8 44.4058 335.272 46.832C336.011 46.9375 336.011 47.1485 337.382 47.1485C338.648 47.1485 341.179 45.8826 342.234 45.2497C346.559 42.6125 349.724 37.5491 349.724 32.3803V18.6669C349.724 17.5066 348.775 17.1901 347.931 16.9791C347.087 16.6627 346.032 16.4517 345.082 16.2407C341.074 15.6078 339.914 15.6078 335.905 15.6078C333.057 15.6078 329.048 16.1352 326.517 16.9791C325.884 17.1901 324.512 17.5066 324.512 18.6669V19.8273C326.728 19.8273 327.255 19.5108 327.994 20.9876L328.837 22.8864C328.943 22.9919 329.681 24.6797 329.681 24.6797C329.787 24.7852 329.998 24.7852 330.525 25.2071C331.053 25.6291 331.264 25.6291 331.897 25.6291C332.951 25.6291 333.057 24.6797 334.006 24.6797V24.8907ZM321.559 19.9328V18.7724C321.559 15.6078 323.985 14.8694 325.462 14.342L325.673 14.2365C327.044 13.8145 328.837 13.3926 330.525 13.1816C332.424 12.8651 334.323 12.7596 335.905 12.7596H336.327C340.23 12.7596 341.496 12.7596 345.61 13.4981C346.137 13.6035 346.665 13.709 347.192 13.8145C347.72 13.92 348.247 14.131 348.775 14.2365H348.88C349.513 14.4474 350.146 14.6584 350.99 15.1858C352.045 15.9243 352.783 17.0846 352.783 18.7724V32.4857C352.783 35.5449 351.834 38.604 350.251 41.2412C348.669 43.9839 346.454 46.3046 343.817 47.8869C343.078 48.3088 341.812 48.9417 340.547 49.4692C339.492 49.8911 338.331 50.2076 337.487 50.2076C336.222 50.2076 335.589 49.9966 335.061 49.7856C334.956 49.7856 334.85 49.7856 334.745 49.6802C333.162 49.2582 332.213 47.6759 332.53 46.0936C332.74 45.0387 332.951 43.9839 333.057 42.929C333.162 41.9796 333.162 40.9247 332.951 39.8699L332.635 37.8656C332.635 37.7601 332.635 37.5491 332.635 37.3382C332.635 37.2327 332.635 37.0217 332.635 36.9162C332.213 36.4943 331.897 35.9668 331.791 35.4394L330.631 32.9077C329.998 31.6419 329.365 30.376 329.048 29.5321C328.837 29.2156 328.837 28.7937 328.837 28.3717C328.837 28.0553 328.837 27.8443 328.943 27.5279C328.837 27.5279 328.837 27.4224 328.837 27.4224C328.521 27.3169 328.416 27.2114 328.099 26.8949C327.994 26.7894 327.994 26.7894 327.888 26.684C327.677 26.473 327.15 25.5236 326.833 24.7852C326.728 24.5742 326.622 24.3632 326.517 24.1523C326.517 24.0468 326.411 24.0468 326.411 23.9413L325.778 22.57H324.934H324.829C323.141 22.57 321.875 21.1986 321.875 19.6163L321.559 19.9328Z" fill="black"/>
</svg>
