<svg width="63" height="75" viewBox="0 0 63 75" fill="none" xmlns="http://www.w3.org/2000/svg">
<path d="M56.9488 5.32671C58.5155 5.43116 59.5599 6.16227 60.1866 7.10228C60.5 7.62451 60.7088 8.14674 60.7088 8.77341C60.7088 9.29563 60.6044 9.92231 60.3955 10.4445C59.9777 11.2801 59.3511 11.9068 58.3066 12.3245C58.7244 12.6379 59.1422 13.1601 59.0377 13.9957C58.9333 14.8312 58.5155 15.3535 57.9933 15.6668C57.471 15.9801 56.8444 15.9801 56.1133 15.9801C55.9044 15.9801 55.7999 15.9801 55.591 15.8757C53.8154 15.6668 49.5332 15.1446 47.0265 17.9646L46.3998 17.5468C46.3998 17.5468 47.9665 14.7268 48.1754 13.1601C48.1754 12.7423 48.1754 12.2201 48.1754 11.6979C48.1754 10.2356 48.1754 8.77341 49.011 7.72895C49.3243 7.31117 49.7421 7.10228 50.0554 7.10228C50.2643 7.10228 50.5776 7.10228 50.7865 7.20673C50.9954 7.31117 51.2043 7.41562 51.3088 7.52006L51.4132 7.62451C52.0399 6.78895 53.5021 4.90893 56.7399 5.11782L56.9488 5.32671ZM59.5599 7.41562C59.0377 6.6845 58.2022 6.05783 56.8444 6.05783C53.711 5.84894 52.3532 7.8334 51.9354 8.46007C51.831 8.66896 51.7265 8.77341 51.5177 8.77341C51.3088 8.77341 51.0999 8.66896 51.0999 8.46007C51.0999 8.46007 50.9954 8.35563 50.891 8.25118C50.7865 8.14674 50.6821 8.04229 50.5776 8.04229C50.4732 8.04229 50.3688 7.93784 50.1599 7.93784C49.951 7.93784 49.7421 8.04229 49.5332 8.35563C48.9065 9.08674 48.9065 10.549 48.9065 11.8023C48.9065 12.3245 48.9065 12.8468 48.9065 13.369C48.8021 14.2046 48.3843 15.4579 47.8621 16.3979C50.5776 14.6223 54.0243 15.0401 55.591 15.249C55.7999 15.249 56.0088 15.249 56.0088 15.3535C56.531 15.3535 57.0533 15.3535 57.471 15.1446C57.7844 14.9357 58.0977 14.6223 58.2022 13.9957C58.411 12.8468 57.0533 12.7423 57.0533 12.7423V12.0112C58.411 11.8023 59.2466 11.0712 59.6644 10.2356C59.8733 9.81786 59.9777 9.29563 59.9777 8.87785C59.9777 8.46007 59.8733 7.93784 59.5599 7.62451V7.41562ZM36.2686 30.7069C36.7909 30.1847 37.2086 29.6625 37.8353 29.0358C40.7598 25.798 44.9376 21.2024 49.011 22.1424C49.951 22.3513 50.5776 22.6646 51.0999 23.0824C51.6221 23.5002 51.9354 24.0224 52.1443 24.4402C52.3532 24.9624 52.3532 25.4847 52.2488 25.9024C52.2488 26.1113 52.1443 26.2158 52.1443 26.3202C53.2932 26.5291 56.3221 27.3647 59.6644 30.498C60.6044 31.438 61.3355 32.5869 61.8577 33.7358C62.38 35.0936 62.5889 36.4514 62.5889 37.8092C62.5889 39.4803 62.1711 40.6292 61.6488 41.4648C61.2311 42.0915 60.7088 42.5092 60.0822 42.8226C59.4555 43.1359 58.8288 43.2404 58.0977 43.1359C56.1133 43.0315 53.8155 42.0915 51.7265 40.8381C51.831 41.3603 51.7265 41.7781 51.6221 42.0915C51.4132 42.7181 50.9954 43.1359 50.5776 43.5537C50.0554 43.867 49.5332 44.0759 48.9065 44.0759C48.071 44.1804 47.1309 43.9715 46.6087 43.6581C46.0865 43.3448 45.6687 42.7181 45.2509 42.0915C44.102 40.5248 42.4309 38.1225 37.6264 36.4514L37.7309 35.7203C45.2509 36.0336 48.3843 37.7048 48.6976 37.9137C49.011 38.0181 51.9354 39.0625 53.6066 37.3914C55.3821 35.7203 53.1888 33.1092 53.1888 33.1092C53.1888 33.1092 50.2643 27.8869 36.7909 31.1247L36.4775 30.498L36.2686 30.7069ZM38.3575 29.558L37.6264 30.3936C50.1599 27.678 53.3977 32.5869 53.6066 32.9003C53.8154 33.2136 56.1133 36.1381 53.9199 38.1225C51.831 40.107 48.2799 38.7492 48.2799 38.7492H48.1754C48.1754 38.7492 45.7732 37.287 39.6109 36.7648C43.0576 38.4359 44.5198 40.4203 45.5643 41.8826C45.9821 42.5093 46.3998 43.0315 46.8176 43.2404C47.2354 43.5537 47.9665 43.6581 48.6976 43.5537C49.2199 43.4493 49.6376 43.3448 50.0554 43.1359C50.4732 42.927 50.6821 42.5093 50.891 42.0915C50.9954 41.6737 50.9954 41.047 50.7865 40.3159L51.3088 39.8981C53.3977 41.2559 56.0088 42.5092 58.0977 42.5092C58.7244 42.5092 59.2466 42.4048 59.7688 42.1959C60.2911 41.987 60.7088 41.5692 61.0222 41.047C61.5444 40.3159 61.7533 39.167 61.8577 37.7048C61.8577 36.4514 61.6488 35.0936 61.2311 33.9447C60.8133 32.7958 60.1866 31.7514 59.2466 30.9158C55.0688 27.0513 51.6221 26.8424 51.6221 26.8424H50.9954L51.4132 26.3202C51.5177 26.1113 51.7265 25.9024 51.7265 25.5891C51.831 25.2758 51.831 24.858 51.6221 24.5447C51.5177 24.1269 51.2043 23.8135 50.7865 23.5002C50.3688 23.1869 49.7421 22.8735 49.011 22.6646C45.4598 21.8291 41.3865 26.2158 38.5664 29.3491L38.3575 29.558ZM43.3709 13.8912C42.9531 15.9801 39.1931 19.9491 39.1931 19.9491L32.2997 27.5736L31.7775 27.1558C31.7775 27.1558 34.3886 22.038 34.5975 17.9646C34.8064 14.1001 32.5086 12.9512 32.5086 12.9512H32.4042C32.4042 12.9512 29.8975 10.9668 27.7041 15.6668C25.3019 20.5757 27.0774 28.5136 27.0774 28.5136L26.4508 28.8269C26.4508 28.8269 21.5418 23.0824 19.8707 21.3068C18.9307 20.2624 17.9907 19.0091 17.6774 17.5468C17.364 16.3979 17.364 15.249 17.9907 14.1001C19.0352 12.1157 20.8107 12.9512 21.6463 13.4734C21.7507 12.0112 22.3774 10.4445 23.213 8.77341C24.3619 6.58006 26.033 4.3867 27.913 2.71558C29.793 1.04445 31.7775 0 33.6575 0C34.2842 0 35.0153 0.104445 35.5375 0.417781C39.5064 2.50669 38.7753 8.9823 38.3575 11.489C39.1931 10.8623 40.5509 10.0268 41.4909 10.0268C41.5954 10.0268 41.8042 10.0268 41.9087 10.0268C42.4309 10.1312 42.8487 10.4445 43.162 10.9668C43.4754 11.3845 43.5798 12.0112 43.5798 12.7423C43.5798 13.1601 43.5798 13.5779 43.4754 13.9957L43.3709 13.8912ZM38.6709 19.4268C38.6709 19.4268 42.222 15.6668 42.6398 13.6823C42.7442 13.2646 42.7442 12.9512 42.7442 12.6379C42.7442 12.1157 42.6398 11.5934 42.4309 11.2801C42.222 10.9668 42.0131 10.7579 41.5954 10.6534C41.4909 10.6534 41.3865 10.6534 41.282 10.6534C40.0287 10.6534 37.8353 12.5334 37.8353 12.5334L37.2086 12.2201C37.2086 12.2201 39.2976 3.23781 34.9109 0.940008C34.3886 0.731117 33.8664 0.522227 33.3442 0.522227C31.673 0.522227 29.793 1.56668 28.1219 3.13336C26.3463 4.70004 24.7797 6.78895 23.6308 8.9823C22.6907 10.7579 22.1685 12.5334 22.1685 13.9957V14.7268L21.5418 14.2046C21.5418 14.2046 19.4529 12.3245 18.4085 14.2046C17.8863 15.1446 17.8863 16.189 18.1996 17.129C18.5129 18.3824 19.3485 19.6357 20.2885 20.5757C21.5418 21.9335 24.5708 25.3802 26.033 27.1558C25.6152 24.6491 24.9885 19.0091 26.8686 15.1446C29.3752 9.92231 32.2997 12.0112 32.6131 12.2201C32.9264 12.3245 35.3286 13.7868 35.1197 17.8602C35.0153 20.3668 33.9708 23.2913 33.1353 25.2758L38.462 19.3224L38.6709 19.4268ZM49.3243 48.1493L49.8465 48.2537C51.0999 48.3582 52.2488 48.4626 53.1888 48.1493C53.6066 48.0448 54.0243 47.7315 54.4421 47.5226C54.7555 47.3137 55.0688 47.1048 55.2777 46.896C55.4866 46.5826 55.7999 46.3737 56.2177 46.2693C56.4266 46.1648 56.6355 46.1648 56.9488 46.2693C57.1577 46.3737 57.3666 46.4782 57.5755 46.6871C57.6799 46.8959 57.7844 47.2093 57.7844 47.5226C57.7844 48.2537 57.5755 48.6715 57.2621 49.0893C57.6799 49.1937 58.0977 49.2982 58.3066 49.6115C58.6199 49.8204 58.8288 50.2382 59.0377 50.5515C59.1422 50.9693 59.2466 51.3871 59.1422 51.8049C59.0377 52.536 58.5155 53.3716 57.471 53.8938C56.6355 54.416 55.7999 54.416 55.1732 54.2071C55.3821 54.6249 55.4866 55.0427 55.3821 55.5649C55.2777 55.8783 55.1732 56.0871 54.9643 56.296C54.7555 56.5049 54.5466 56.6094 54.2332 56.6094C53.9199 56.6094 53.711 56.5049 53.2932 56.296C52.8754 55.9827 52.3532 55.4605 51.9354 54.5205C51.6221 53.8938 51.4132 53.2671 51.3088 52.7449C51.2043 52.3271 51.0999 51.9093 50.891 51.4915C50.3688 50.1338 49.1154 48.776 49.1154 48.776L49.4287 48.1493H49.3243ZM53.5021 48.776C52.4577 49.1937 51.3088 49.0893 50.0554 48.9849C50.4732 49.5071 50.9954 50.3426 51.4132 51.1782C51.6221 51.7004 51.7265 52.1182 51.831 52.536C51.9354 53.0582 52.0399 53.5805 52.3532 54.2071C52.771 55.0427 53.1888 55.4605 53.5021 55.6694C53.711 55.7738 53.8155 55.8782 53.9199 55.8782C54.0243 55.8782 54.1288 55.8783 54.2332 55.7738C54.3377 55.6694 54.4421 55.5649 54.4421 55.356C54.5466 55.0427 54.4421 54.7294 54.3377 54.416C54.2332 54.1027 53.9199 53.7893 53.711 53.5805L54.1288 53.0582C54.1288 53.0582 55.4866 54.1027 56.9488 53.2671C57.7844 52.8493 58.2022 52.2227 58.3066 51.596C58.411 51.2827 58.3066 50.9693 58.2022 50.7604C58.0977 50.5515 57.9933 50.2382 57.6799 50.1338C57.2621 49.8204 56.7399 49.6115 56.0088 49.8204L55.7999 49.1937C55.7999 49.1937 56.8444 48.776 56.8444 47.6271C56.8444 47.4182 56.8444 47.2093 56.7399 47.1048C56.7399 47.0004 56.6355 47.0004 56.531 47.0004C56.4266 47.0004 56.3221 47.0004 56.2177 47.0004C56.0088 47.1048 55.7999 47.2093 55.591 47.4182C55.3821 47.6271 55.0688 47.9404 54.651 48.1493C54.2332 48.4626 53.711 48.6715 53.2932 48.776H53.5021ZM42.7442 47.7315C43.3709 48.1493 44.102 48.4626 44.7287 48.776C46.7132 49.716 48.1754 50.4471 47.7576 52.536C47.7576 52.7449 47.6532 52.9538 47.5487 53.0582C47.2354 53.6849 46.8176 53.9982 46.1909 54.2071C45.5643 54.3116 44.9376 54.3116 44.2065 54.2071C43.4754 54.1027 42.8487 53.7893 42.1176 53.476C41.0731 52.9538 40.342 52.4315 39.7153 51.7004C39.0887 50.9693 38.5664 50.2382 38.2531 49.2982C37.8353 48.1493 37.6264 47.0004 37.4175 45.7471C37.3131 44.4937 37.3131 43.2404 37.3131 41.987L38.0442 41.8826C38.3575 42.927 39.0887 44.0759 39.9242 45.1204C40.7598 46.1648 41.8042 47.1048 42.8487 47.7315H42.7442ZM44.4154 49.4026C43.7887 49.0893 43.0576 48.776 42.4309 48.3582C41.3865 47.7315 40.2376 46.6871 39.402 45.6426C38.8798 45.0159 38.462 44.3893 38.1487 43.7626C38.1487 44.3893 38.1487 45.1204 38.2531 45.7471C38.3575 46.896 38.5664 48.0448 38.9842 49.0893C39.2976 49.9249 39.7153 50.656 40.342 51.2827C40.8642 51.9093 41.5953 52.4316 42.5354 52.8493C43.162 53.1627 43.7887 53.3716 44.4154 53.476C45.042 53.5804 45.6687 53.5804 46.0865 53.476C46.5043 53.3716 46.8176 53.1627 47.0265 52.7449C47.0265 52.6404 47.131 52.536 47.131 52.3271C47.4443 50.7604 46.0865 50.1338 44.4154 49.2982V49.4026ZM8.79952 26.0069C12.5596 24.3358 16.7374 26.9469 16.7374 26.9469L24.2574 32.0647L23.9441 32.6914C23.9441 32.6914 21.4374 32.0647 18.304 32.2736C16.8418 32.378 15.6929 32.9003 14.8573 33.527C14.0218 34.1536 13.4996 35.0936 13.4996 35.8247V35.9292C13.604 36.5559 14.0218 37.0781 14.7529 37.4959C15.484 37.9137 16.6329 38.1225 17.9907 38.0181C18.1996 38.0181 18.5129 38.0181 18.7218 37.9137C21.9596 37.4959 24.0485 36.2425 24.0485 36.2425L24.5708 36.6603C24.153 38.4359 23.6308 40.0026 22.8996 41.3603C22.1685 42.7181 21.333 43.9715 20.1841 45.1204C19.3485 45.9559 17.4685 47.5226 15.5885 48.2537C14.8573 48.5671 14.1262 48.776 13.4996 48.776C12.7684 48.776 12.1418 48.5671 11.6195 48.0448C11.4107 47.836 11.2018 47.5226 10.9929 47.1048C10.784 46.5826 10.784 45.8515 11.0973 45.1204C11.3062 44.7026 11.5151 44.1804 11.8284 43.7626C10.2618 44.4937 8.90396 44.9115 7.75507 45.2248C5.9795 45.6426 4.62171 45.5382 3.57725 45.2248C1.90613 44.7026 0.966119 43.7626 0.443893 42.6137C-0.182779 41.2559 -0.078334 39.5848 0.339447 37.9137C1.80168 32.6914 6.81506 31.0203 9.00841 30.498C8.59063 30.2891 8.0684 29.9758 7.75507 29.558C7.44173 29.2447 7.12839 28.8269 7.02395 28.5136C6.9195 28.0958 6.9195 27.678 7.12839 27.1558C7.33728 26.738 7.85951 26.3202 8.69507 26.0069H8.79952ZM16.3196 27.5736C16.3196 27.5736 12.4551 25.1713 9.00841 26.6336C8.38174 26.9469 7.96396 27.2602 7.75507 27.5736C7.65062 27.7825 7.65062 28.0958 7.65062 28.3047C7.75507 28.618 7.96396 28.8269 8.17285 29.1402C8.79952 29.7669 9.63508 30.1847 10.1573 30.1847C10.4706 30.1847 10.5751 30.3936 10.5751 30.6025C10.5751 30.9158 10.2618 30.9158 9.84397 31.0203C8.27729 31.3336 2.5328 32.5869 0.966119 38.0181C0.548338 39.4803 0.443893 41.047 0.966119 42.1959C1.3839 43.2404 2.21946 43.9715 3.6817 44.3893C4.62171 44.7026 5.87505 44.7026 7.54618 44.3893C9.00841 44.0759 10.6795 43.4493 12.7684 42.4048L13.1862 42.927C12.5595 43.7626 12.0373 44.4937 11.724 45.2248C11.5151 45.8515 11.4107 46.2693 11.6195 46.6871C11.724 47.0004 11.9329 47.2093 12.0373 47.4182C12.3507 47.836 12.8729 47.9404 13.3951 47.9404C13.9173 47.9404 14.544 47.7315 15.1707 47.5226C16.9463 46.7915 18.7218 45.2248 19.5574 44.4937C20.6018 43.4493 21.4374 42.3004 22.1685 40.9426C22.6907 39.7937 23.213 38.5403 23.5263 37.1825C22.5863 37.6003 20.9152 38.227 18.7218 38.5403C18.4085 38.5403 18.1996 38.6448 17.8863 38.6448C16.424 38.7492 15.1707 38.4359 14.3351 38.0181C13.3951 37.4959 12.8729 36.7648 12.7684 35.9292V35.7203C12.7684 34.6758 13.2907 33.6314 14.3351 32.7958C15.2751 32.0647 16.5285 31.5425 18.1996 31.438C19.8707 31.3336 21.333 31.438 22.3774 31.5425L16.2151 27.3647L16.3196 27.5736ZM30.2108 41.1515C31.0464 41.047 31.7775 41.1515 32.5086 41.3603C33.4486 41.7781 34.1797 42.4048 34.5975 43.3448C35.1197 44.1804 35.3286 45.3293 35.4331 46.4782C35.7464 49.1937 35.2242 52.3271 34.4931 54.1027C32.4042 59.5338 27.3908 63.7116 21.8552 66.845C16.3196 69.9784 10.0529 72.2762 5.14393 74.0517L4.51726 74.2606L4.72615 73.634C4.72615 73.4251 4.93504 73.4251 5.24838 73.3206C6.60617 72.7984 12.8729 70.605 20.1841 60.8916C22.1685 58.176 23.4219 55.7738 24.2574 53.5805C25.093 51.3871 25.5108 49.5071 25.8241 47.9404L26.033 47.1048C26.6597 43.9715 27.0775 41.6737 30.2108 41.2559V41.1515ZM32.1953 42.0915C31.673 41.8826 31.0464 41.7781 30.3153 41.8826C27.7041 42.1959 27.2863 44.3893 26.7641 47.1048L26.5552 47.9404C26.2419 49.6115 25.8241 51.4915 24.9885 53.6849C24.153 55.8782 22.8996 58.3849 20.8107 61.205C16.9463 66.4272 13.2907 69.4561 10.5751 71.3362C14.1262 69.9784 17.9907 68.3072 21.5418 66.2183C26.973 63.085 31.8819 59.0116 33.8664 53.7893C34.5975 52.0138 35.0153 49.0893 34.8064 46.4782C34.702 45.4337 34.3886 44.3893 33.9708 43.6581C33.5531 42.927 33.0308 42.3004 32.1953 41.987V42.0915ZM30.733 29.9758C31.9864 29.9758 33.1353 30.498 33.9708 31.3336C34.8064 32.1692 35.3286 33.3181 35.3286 34.5714C35.3286 35.8247 34.8064 36.9736 33.9708 37.8092C33.1353 38.6448 31.9864 39.167 30.733 39.167C29.4797 39.167 28.3308 38.6448 27.4952 37.8092C26.6597 36.9736 26.1374 35.8247 26.1374 34.5714C26.1374 33.3181 26.6597 32.1692 27.4952 31.3336C28.3308 30.498 29.4797 29.9758 30.733 29.9758ZM33.4486 31.8558C32.7175 31.1247 31.7775 30.7069 30.733 30.7069C29.6886 30.7069 28.6441 31.1247 28.0175 31.8558C27.2863 32.5869 26.8686 33.5269 26.8686 34.5714C26.8686 35.6159 27.2863 36.6603 28.0175 37.287C28.7486 38.0181 29.6886 38.4359 30.733 38.4359C31.7775 38.4359 32.8219 38.0181 33.4486 37.287C34.1797 36.5559 34.5975 35.6159 34.5975 34.5714C34.5975 33.5269 34.1797 32.4825 33.4486 31.8558ZM23.6308 45.9559C23.4219 48.3582 23.1085 50.1338 22.5863 51.4915C22.0641 52.9538 21.4374 53.9982 20.4974 55.0427C19.6618 55.9827 18.0952 56.9227 16.6329 57.4449C15.9018 57.6538 15.1707 57.8627 14.544 57.8627C13.8129 57.8627 13.2907 57.5494 12.9773 57.1316C12.7684 56.8183 12.664 56.5049 12.664 56.0871C12.4551 53.6849 14.2307 52.8493 16.424 51.7004C17.2596 51.2827 18.0952 50.8649 18.9307 50.3426C21.8552 48.3582 23.1085 45.7471 23.1085 45.7471L23.7352 45.9559H23.6308ZM21.8552 51.2827C22.1685 50.2382 22.4819 48.9849 22.6907 47.5226C21.9596 48.4626 20.8107 49.8204 19.1396 50.9693C18.304 51.4915 17.364 52.0138 16.6329 52.4316C14.6485 53.476 13.1862 54.2071 13.2907 56.0871C13.2907 56.4005 13.3951 56.6094 13.4996 56.7138C13.7084 57.0271 14.1262 57.1316 14.544 57.1316C15.0662 57.1316 15.6929 57.0271 16.424 56.8183C17.7818 56.296 19.1396 55.4605 19.9752 54.6249C20.8107 53.6849 21.4374 52.6404 21.9596 51.2827H21.8552ZM13.0818 15.6668C13.3951 17.6513 15.0662 20.9935 15.0662 20.9935L14.6485 21.5157C13.8129 21.098 12.8729 20.8891 11.8284 20.6802C10.784 20.4713 9.73953 20.4713 8.79952 20.5757C7.85951 20.6802 6.81506 20.6802 5.97949 20.4713C5.56171 20.3668 5.24838 20.1579 4.93504 19.9491C4.62171 19.7402 4.41282 19.4268 4.41282 19.0091C4.41282 18.8002 4.41282 18.5913 4.41282 18.4868C4.62171 17.6513 5.24838 17.2335 5.87505 17.129C5.45727 16.7113 5.14393 16.2935 4.93504 15.7712C4.72615 15.249 4.51726 14.6223 4.41282 13.9957C4.30837 13.369 4.41282 12.7423 4.51726 12.2201C4.72615 11.2801 5.35282 10.549 6.29283 10.0268C8.79952 8.87785 10.0529 10.8623 10.5751 12.0112C10.8884 11.5934 11.4107 11.2801 12.1418 11.5934C13.0818 12.0112 13.0818 12.7423 13.0818 13.9957C13.0818 14.5179 13.0818 15.0401 13.1862 15.6668H13.0818ZM14.0218 20.4713C13.4996 19.3224 12.5596 17.129 12.3507 15.7712C12.2462 15.1446 12.2462 14.5179 12.2462 13.9957C12.2462 13.0557 12.2462 12.5334 11.724 12.2201C11.0973 11.9068 10.784 12.9512 10.784 12.9512H10.0529C10.0529 12.9512 9.11285 9.29563 6.50172 10.6534C5.7706 10.9668 5.35282 11.5934 5.14393 12.3245C5.03949 12.8468 5.03949 13.369 5.03949 13.8912C5.14393 14.4135 5.24838 14.9357 5.45727 15.4579C5.87505 16.2935 6.50172 17.0246 7.23284 17.2335L7.02395 17.9646C7.02395 17.9646 5.24838 17.5468 4.93504 18.8002C4.93504 18.9046 4.93504 19.009 4.93504 19.1135C4.93504 19.3224 5.03949 19.4268 5.24838 19.5313C5.45727 19.6357 5.66616 19.8446 5.97949 19.8446C6.71061 20.0535 7.75507 20.0535 8.48618 19.9491C9.42619 19.8446 10.5751 19.8446 11.724 20.0535C12.4551 20.1579 13.1862 20.3668 13.9173 20.5757L14.0218 20.4713Z" fill="#FEFEFE"/>
<path fill-rule="evenodd" clip-rule="evenodd" d="M14.3349 14.4133C14.9616 14.4133 16.2149 14.5178 16.7372 14.6222C19.7661 15.1444 22.0639 16.0845 24.3617 17.86C24.9883 18.3823 25.3017 18.5911 25.8239 19.2178C27.495 20.8889 27.2861 20.1578 27.2861 23.2912C27.2861 30.6024 27.2861 37.8091 27.2861 45.1203C26.3461 44.4936 26.1372 44.1802 24.7794 43.4491C21.6461 41.5691 18.3038 40.5247 14.2305 40.5247V14.5178L14.3349 14.4133Z" fill="#FEFEFE"/>
<path fill-rule="evenodd" clip-rule="evenodd" d="M14.3349 11.3845C14.6482 11.3845 15.1704 11.3845 15.7971 11.489H15.9015C16.5282 11.5934 17.0504 11.5934 17.3638 11.6979C19.0349 12.0112 20.6016 12.429 22.0638 13.0556C23.5261 13.6823 24.8838 14.5179 26.2416 15.5623C26.555 15.7712 26.8683 16.0846 27.1816 16.2935C27.495 16.6068 27.7039 16.8157 28.0172 17.129C28.5394 17.6512 28.5394 17.6512 28.5394 17.6512C29.2705 18.3824 29.6883 18.6957 30.0017 19.7401C30.315 20.4713 30.315 21.0979 30.2106 22.2468C30.2106 22.4557 30.2106 21.6202 30.2106 23.1868V45.0159C30.2106 46.687 28.8528 47.9404 27.2861 47.9404C26.555 47.9404 25.9283 47.7315 25.4061 47.3137C24.9883 47.0004 24.7794 46.8959 24.5705 46.687C24.5705 46.687 24.4661 46.687 24.4661 46.5826C24.1527 46.3737 23.8394 46.1648 23.3172 45.747C21.9594 44.9115 20.6016 44.2848 19.1394 43.867C17.6771 43.4492 16.1104 43.2403 14.3349 43.2403C12.6637 43.2403 11.4104 41.8826 11.4104 40.3159V14.309C11.4104 12.6379 12.7682 11.3845 14.3349 11.3845ZM14.3349 14.309C14.9615 14.309 16.2149 14.4134 16.7371 14.5179C19.766 15.0401 22.0638 15.9801 24.3616 17.7557C24.9883 18.2779 25.3016 18.4868 25.8239 19.1135C27.495 20.7846 27.2861 20.0535 27.2861 23.1868C27.2861 30.498 27.2861 37.7047 27.2861 45.0159C26.3461 44.3892 26.1372 44.0759 24.7794 43.3448C21.646 41.4648 18.3038 40.4203 14.2304 40.4203V14.4134L14.3349 14.309Z" fill="black"/>
<path fill-rule="evenodd" clip-rule="evenodd" d="M31.1503 45.0158C31.1503 37.7046 31.1503 30.4979 31.1503 23.1867C31.1503 20.0533 30.9415 20.7844 32.6126 19.1133C33.5526 18.1733 34.4926 17.4422 35.6415 16.7111C37.3126 15.6666 39.506 14.8311 41.5949 14.5177C42.326 14.4133 43.3704 14.3088 44.1016 14.3088V40.3157C39.8193 40.3157 35.6415 41.6735 32.2992 43.9713C31.8815 44.2846 31.4637 44.598 31.0459 44.9113L31.1503 45.0158Z" fill="#FEFEFE"/>
<path fill-rule="evenodd" clip-rule="evenodd" d="M28.1216 45.0159V23.1868C28.1216 21.6201 28.1216 22.4557 28.1216 22.2468C28.1216 21.0979 28.1216 20.4712 28.3305 19.7401C28.6438 18.8001 29.0616 18.3823 29.7927 17.6512C29.8972 17.5467 29.8972 17.5467 30.3149 17.129C30.4194 17.0245 30.4194 17.0245 30.5238 16.9201C31.0461 16.3978 31.5683 15.9801 32.0905 15.5623C32.7172 15.0401 33.3438 14.6223 34.075 14.2045L34.1794 14.1001C35.2239 13.4734 36.2683 12.9512 37.5217 12.5334C38.6706 12.1156 39.9239 11.8023 41.1772 11.5934C41.595 11.4889 42.0128 11.4889 42.535 11.3845H42.6395C43.1617 11.28 43.6839 11.28 44.1017 11.28C45.7728 11.28 47.0262 12.6378 47.0262 14.2045V40.2114C47.0262 41.8825 45.6684 43.1359 44.1017 43.1359C42.2217 43.1359 40.4461 43.4492 38.6706 43.9714C36.9994 44.4936 35.4328 45.2248 34.075 46.2692C33.8661 46.4781 33.7616 46.4781 33.6572 46.5826C33.3438 46.7914 33.0305 47.1048 32.7172 47.3137C31.3594 48.2537 29.4794 47.8359 28.6438 46.4781C28.3305 45.9559 28.1216 45.4337 28.1216 44.807V45.0159ZM31.0461 45.0159C31.0461 37.7047 31.0461 30.498 31.0461 23.1868C31.0461 20.0534 30.8372 20.7846 32.5083 19.1134C33.4483 18.1734 34.3883 17.4423 35.5372 16.7112C37.2083 15.6667 39.4017 14.8312 41.4906 14.5178C42.2217 14.4134 43.2662 14.3089 43.9973 14.3089V40.3158C39.715 40.3158 35.5372 41.6736 32.1949 43.9714C31.7772 44.2848 31.3594 44.5981 30.9416 44.9114L31.0461 45.0159Z" fill="black"/>
<path fill-rule="evenodd" clip-rule="evenodd" d="M6.91919 45.6428V20.367C6.91919 17.8603 8.90365 18.1737 10.6792 18.1737V40.7339C10.6792 42.1961 11.7237 43.4494 12.7681 43.8672C14.6481 44.7028 17.6771 43.4494 23.2127 46.7917C23.6304 47.0006 24.466 47.6273 24.7793 47.9406H9.84366C8.27698 47.9406 7.02363 47.7317 7.02363 45.7472L6.91919 45.6428Z" fill="#FEFEFE"/>
<path fill-rule="evenodd" clip-rule="evenodd" d="M3.99487 45.6427V20.367C3.99487 15.1447 7.12823 15.1447 10.2616 15.2491H10.7838C12.4549 15.2491 13.7083 16.6069 13.7083 18.1736V40.7338C13.7083 40.7338 13.7083 40.8382 13.8127 40.9427C13.9172 41.0471 14.0216 41.1516 14.1261 41.256C14.2305 41.3605 14.7527 41.3605 15.3794 41.3605C17.5728 41.4649 20.4972 41.6738 24.8839 44.2849C25.0928 44.3894 25.5106 44.7027 25.9284 44.9116C26.4506 45.3294 27.0773 45.7472 27.3906 46.2694C28.3306 47.6272 27.9129 49.5072 26.5551 50.3428C26.0328 50.7605 25.3017 50.865 24.675 50.865H9.94826C8.69491 50.865 7.54601 50.7605 6.50156 50.0294C5.14377 49.1939 4.20376 47.8361 4.20376 45.6427H3.99487ZM6.91934 45.6427V20.367C6.91934 17.8603 8.9038 18.1736 10.6794 18.1736V40.7338C10.6794 42.196 11.7238 43.4494 12.7683 43.8671C14.6483 44.7027 17.6772 43.4494 23.2128 46.7916C23.6306 47.0005 24.4662 47.6272 24.7795 47.9405H9.84381C8.27713 47.9405 7.02379 47.7316 7.02379 45.7472L6.91934 45.6427Z" fill="black"/>
<path fill-rule="evenodd" clip-rule="evenodd" d="M33.7615 47.8358C34.1793 47.2092 36.1637 46.1647 36.8948 45.7469C42.2215 43.1358 45.0416 45.2247 47.026 42.6136C47.3394 42.1958 47.7571 41.3602 47.7571 40.7336V18.0689C49.4283 18.0689 51.5172 17.7556 51.5172 20.2623V45.5381C51.5172 47.4181 50.3683 47.7314 48.6972 47.7314H33.7615V47.8358Z" fill="#FEFEFE"/>
<path fill-rule="evenodd" clip-rule="evenodd" d="M31.3594 46.1647C31.7772 45.538 32.5083 45.0158 33.2394 44.4936C34.1794 43.8669 35.1194 43.3447 35.6416 43.1358C35.7461 43.1358 35.7461 43.0313 35.8505 43.0313C38.8794 41.5691 41.0728 41.3602 42.9528 41.2558C43.8928 41.1513 44.5195 41.1513 44.7284 40.838C44.7284 40.7335 44.8328 40.7335 44.8328 40.6291V18.0689C44.8328 16.3978 46.1906 15.1444 47.7573 15.1444C47.8617 15.1444 47.9662 15.1444 47.9662 15.1444H48.1751C51.204 15.1444 54.4418 15.04 54.4418 20.2623V45.538C54.4418 47.6269 53.6062 48.9847 52.2485 49.8203C51.204 50.5514 49.9507 50.6558 48.6973 50.6558H33.7616C32.0905 50.6558 30.8372 49.2981 30.8372 47.7314C30.8372 47.1047 31.046 46.5825 31.3594 46.0603V46.1647ZM33.7616 47.8358C34.1794 47.2092 36.1639 46.1647 36.895 45.7469C42.2217 43.1358 45.0417 45.2247 47.0262 42.6136C47.3395 42.1958 47.7573 41.3602 47.7573 40.7335V18.0689C49.4284 18.0689 51.5173 17.7556 51.5173 20.2623V45.538C51.5173 47.418 50.3684 47.7314 48.6973 47.7314H33.7616V47.8358Z" fill="black"/>
</svg>
