<svg width="63" height="75" viewBox="0 0 63 75" fill="none" xmlns="http://www.w3.org/2000/svg">
<path d="M56.9895 5.48533C58.5718 5.59082 59.6266 6.32923 60.2596 7.17313C60.576 7.70057 60.787 8.228 60.787 8.86092C60.787 9.38836 60.6815 10.0213 60.4705 10.5487C60.0486 11.3926 59.4157 12.0255 58.4663 12.4475C58.8882 12.764 59.3102 13.2914 59.2047 14.1353C59.0992 14.9792 58.6773 15.5066 58.1498 15.8231C57.6224 16.1395 56.9895 16.1395 56.251 16.1395C56.0401 16.1395 55.9346 16.1395 55.7236 16.0341C54.0358 15.8231 49.6054 15.2956 47.1791 18.1438L46.6517 17.7218C46.6517 17.7218 48.234 14.9792 48.3395 13.3969C48.3395 12.9749 48.3395 12.4475 48.3395 11.9201C48.3395 10.4432 48.3395 8.96641 49.1834 8.01703C49.4999 7.59508 49.9218 7.48959 50.2383 7.3841C50.4493 7.3841 50.7657 7.3841 50.9767 7.48959C51.1877 7.59508 51.3986 7.70057 51.5041 7.80605L51.6096 7.91154C52.2425 7.06764 53.7194 5.16887 56.9895 5.37985V5.48533ZM59.6266 7.59508C59.2047 6.85667 58.2553 6.32923 56.884 6.22374C53.7194 6.01277 52.4535 8.01703 52.0316 8.64995C51.9261 8.86092 51.8206 8.96641 51.6096 8.96641C51.3986 8.96641 51.1877 8.86092 51.1877 8.64995C51.1877 8.64995 51.0822 8.54446 50.9767 8.43898C50.8712 8.33349 50.7657 8.228 50.6602 8.228C50.5547 8.228 50.4493 8.12251 50.2383 8.12251C50.0273 8.12251 49.8163 8.228 49.6054 8.54446C48.9724 9.28287 48.9724 10.6542 48.9724 12.0255C48.9724 12.553 48.9724 13.0804 48.9724 13.6078C48.8669 14.4517 48.445 15.6121 48.023 16.5615C50.6602 14.7682 54.2468 15.1902 55.7236 15.4011C55.9346 15.4011 56.1456 15.4011 56.1456 15.5066C56.673 15.5066 57.2004 15.5066 57.6224 15.2956C57.9388 15.0847 58.2553 14.7682 58.2553 14.1353C58.4663 12.9749 57.0949 12.8694 57.0949 12.8694V12.131C58.3608 11.9201 59.3102 11.1816 59.7321 10.3377C59.9431 9.9158 60.0486 9.38836 60.0486 8.96641C60.0486 8.54446 59.9431 8.01703 59.6266 7.70057V7.59508ZM36.314 30.9077C36.7359 30.3803 37.2634 29.8529 37.8963 29.22C40.8499 25.9499 45.0694 21.4139 49.0779 22.2578C50.0273 22.4688 50.6602 22.7852 51.1877 23.2072C51.7151 23.6291 52.0316 24.0511 52.2425 24.5785C52.4535 25.106 52.4535 25.6334 52.348 26.0553C52.348 26.2663 52.2425 26.3718 52.2425 26.4773C53.4029 26.6883 56.462 27.5322 59.8376 30.6968C60.787 31.6462 61.5254 32.701 62.0528 33.9669C62.5803 35.3382 62.7913 36.7095 62.7913 38.0809C62.7913 39.7687 62.3693 40.929 61.8419 41.7729C61.4199 42.4059 60.8925 42.8278 60.2596 43.1443C59.6266 43.4607 58.9937 43.5662 58.2553 43.4607C56.251 43.3552 53.9303 42.4059 51.9261 41.14C52.0316 41.6674 51.9261 42.0894 51.8206 42.4059C51.6096 43.0388 51.1877 43.4607 50.7657 43.7772C50.2383 44.0936 49.7108 44.3046 49.0779 44.3046C48.234 44.4101 47.3901 44.1991 46.7572 43.8827C46.2298 43.5662 45.8078 43.0388 45.3859 42.3004C44.2255 40.7181 42.5377 38.2919 37.7908 36.6041L37.8963 35.8656C45.3859 36.1821 48.5505 37.8699 48.8669 38.0809C49.1834 38.1864 52.0316 39.1357 53.8248 37.5534C55.5126 35.9711 53.4029 33.2285 53.4029 33.2285C53.4029 33.2285 50.4492 27.9541 37.0524 31.2242L36.7359 30.5913L36.314 30.9077ZM38.4237 29.7474L37.6853 30.5913C50.2383 27.8486 53.5084 32.8065 53.7194 33.123C53.9303 33.4394 56.1456 36.3931 54.0358 38.3973C51.9261 40.4016 48.3395 39.0303 48.3395 39.0303H48.234C48.234 39.0303 45.8078 37.5534 39.6896 37.026C43.1706 38.6083 44.6475 40.7181 45.5968 42.0894C46.0188 42.7223 46.4407 43.2497 46.7572 43.4607C47.1791 43.7772 47.9176 43.8827 48.656 43.7772C49.1834 43.6717 49.6054 43.5662 50.0273 43.3552C50.4492 43.1443 50.6602 42.7223 50.8712 42.3004C50.9767 41.8784 50.9767 41.2455 50.7657 40.6126L51.2932 40.1906C53.4029 41.562 55.9346 42.7223 58.0443 42.8278C58.6773 42.8278 59.2047 42.7223 59.7321 42.5113C60.2596 42.3004 60.6815 41.8784 60.998 41.4565C61.4199 40.7181 61.7364 39.6632 61.8419 38.0809C61.8419 36.815 61.6309 35.5492 61.2089 34.2833C60.787 33.123 60.1541 32.1736 59.2047 31.3297C54.9852 27.4267 51.5041 27.3212 51.5041 27.3212H50.8712L51.2932 26.7937C51.3986 26.5828 51.6096 26.3718 51.6096 26.1608C51.7151 25.8444 51.7151 25.4224 51.5041 25.106C51.3986 24.684 51.0822 24.3675 50.6602 24.0511C50.2383 23.7346 49.6054 23.4182 48.8669 23.2072C45.2804 22.3633 41.2719 26.7937 38.4237 29.9584V29.7474ZM43.4871 14.1353C43.0651 16.245 39.3731 20.1481 39.2676 20.1481L32.4109 27.7431L31.8835 27.3212C31.8835 27.3212 34.5207 22.1523 34.7317 18.1438C34.9426 14.2408 32.6219 13.0804 32.6219 13.0804H32.5164C32.5164 13.0804 30.0902 11.0762 27.7695 15.7176C25.3433 20.6755 27.1366 28.587 27.1366 28.587L26.5037 28.9035C26.5037 28.9035 21.5458 23.1017 19.858 21.4139C18.9086 20.359 17.9592 19.0932 17.6427 17.6164C17.3263 16.456 17.3263 15.2956 17.9592 14.1353C19.0141 12.2365 20.7019 12.9749 21.6512 13.5024C21.7567 12.0255 22.3897 10.4432 23.2336 8.75544C24.3939 6.54021 26.0817 4.32498 27.875 2.74267C29.7738 1.05487 31.778 0 33.5713 0C34.2042 0 34.8371 0.105487 35.4701 0.421949C39.4786 2.53169 38.7402 9.0719 38.3182 11.4981C39.1621 10.8652 40.5335 10.0213 41.4828 10.0213C41.5883 10.0213 41.7993 10.0213 41.9048 10.0213C42.4322 10.1268 42.8542 10.4432 43.1706 10.9707C43.4871 11.3926 43.5926 12.0255 43.5926 12.6585C43.5926 13.0804 43.5926 13.5024 43.4871 13.9243V14.1353ZM38.8457 19.7261C38.8457 19.7261 42.4322 15.9286 42.8542 14.0298C42.9597 13.6078 42.9597 13.2914 42.9597 12.9749C42.9597 12.4475 42.8542 11.9201 42.6432 11.6036C42.4322 11.2871 42.2212 11.0762 41.9048 10.9707C41.7993 10.9707 41.6938 10.9707 41.5883 10.9707C40.3225 10.9707 38.1073 12.8694 38.1073 12.8694L37.5798 12.553C37.5798 12.553 39.6896 3.58656 35.2591 1.26585C34.7317 1.05487 34.2042 0.843898 33.6768 0.843898C31.989 0.843898 30.1957 1.89877 28.4024 3.48108C26.6091 5.06339 25.0268 7.17313 23.8665 9.28287C22.9171 11.0762 22.3897 12.8694 22.3897 14.3463V15.0847L21.7567 14.5572C21.7567 14.5572 19.647 12.6585 18.5921 14.5572C18.0647 15.5066 18.0647 16.456 18.3811 17.5109C18.6976 18.7767 19.5415 20.0426 20.4909 20.992C21.7567 22.2578 24.8159 25.8444 26.2927 27.5322C25.8707 25.0005 25.2378 19.4096 27.1366 15.5066C29.6683 10.3377 32.6219 12.342 32.9384 12.553C33.2548 12.6585 35.5756 14.1353 35.4701 18.2493C35.3646 20.781 34.3097 23.7346 33.4658 25.6334L38.8457 19.7261ZM49.4999 48.4186L50.0273 48.5241C51.2931 48.6296 52.4535 48.7351 53.4029 48.4186C53.8248 48.3131 54.2468 47.9967 54.6687 47.7857C54.9852 47.5747 55.3017 47.3637 55.5126 47.1528C55.7236 46.8363 56.0401 46.6253 56.462 46.5199C56.673 46.4144 56.884 46.4144 57.2004 46.5199C57.4114 46.6253 57.6224 46.7308 57.8334 46.9418C57.9388 47.1528 58.0443 47.4692 58.0443 47.7857C58.0443 48.4186 57.8334 48.9461 57.5169 49.2625C57.9388 49.368 58.3608 49.4735 58.5718 49.79C58.8882 50.0009 59.0992 50.4229 59.3102 50.7393C59.4157 51.1613 59.5212 51.5832 59.4157 52.0052C59.3102 52.7436 58.7827 53.5875 57.7279 54.1149C56.884 54.6424 56.0401 54.5369 55.4072 54.4314C55.6181 54.8533 55.7236 55.2753 55.5126 55.8027C55.4072 56.1192 55.3017 56.3302 55.0907 56.5411C54.8797 56.7521 54.6687 56.8576 54.3523 56.8576C54.0358 56.8576 53.8248 56.7521 53.5084 56.5411C53.0864 56.2247 52.559 55.6972 52.137 54.7479C51.8206 54.1149 51.6096 53.482 51.5041 52.9546C51.3986 52.5326 51.2932 52.1107 51.0822 51.6887C50.5547 50.4229 49.3944 49.0515 49.3944 48.9461L49.7108 48.4186H49.4999ZM53.7194 49.0515C52.77 49.4735 51.5041 49.368 50.3438 49.2625C50.7657 49.79 51.2931 50.6339 51.7151 51.4778C51.9261 51.8997 52.0316 52.4271 52.137 52.8491C52.2425 53.3765 52.348 53.904 52.6645 54.5369C53.0864 55.3808 53.5084 55.8027 53.8248 56.0137C54.0358 56.1192 54.1413 56.2247 54.2468 56.2247C54.3523 56.2247 54.4578 56.2247 54.5633 56.1192C54.6687 56.0137 54.7742 55.9082 54.7742 55.6972C54.8797 55.3808 54.7742 55.0643 54.6687 54.7479C54.5633 54.4314 54.2468 54.1149 54.0358 53.904L54.4578 53.3765C54.4578 53.3765 55.8291 54.4314 57.3059 53.5875C58.1498 53.1655 58.5718 52.5326 58.6772 52.0052C58.7827 51.6887 58.6773 51.3723 58.5718 51.1613C58.4663 50.9503 58.3608 50.6339 58.0443 50.5284C57.6224 50.2119 57.0949 50.0009 56.3565 50.2119L56.1456 49.579C56.1456 49.579 57.2004 49.157 57.2004 47.9967C57.2004 47.7857 57.2004 47.5747 57.0949 47.4692C57.0949 47.3638 56.9895 47.3637 56.884 47.3637C56.7785 47.3637 56.673 47.3637 56.5675 47.3637C56.3565 47.4692 56.1456 47.5747 55.9346 47.7857C55.7236 47.9967 55.4072 48.3131 54.9852 48.5241C54.5633 48.7351 54.0358 49.0515 53.6139 49.157L53.7194 49.0515ZM42.9597 47.9967C43.5926 48.4186 44.331 48.7351 44.9639 49.0515C46.8627 50.0009 48.445 50.7393 48.023 52.8491C48.023 53.0601 47.9176 53.271 47.8121 53.3765C47.4956 54.0094 47.0737 54.3259 46.4407 54.5369C45.8078 54.6424 45.1749 54.6424 44.4365 54.5369C43.8036 54.4314 43.0652 54.2204 42.3267 53.904C41.2719 53.482 40.5335 52.8491 39.9005 52.1107C39.2676 51.3723 38.8457 50.6339 38.4237 49.6845C38.0018 48.5241 37.7908 47.3638 37.6853 46.0979C37.5798 44.8321 37.5798 43.5662 37.5798 42.4059L38.3182 42.3004C38.6347 43.3552 39.3731 44.5156 40.217 45.5705C41.0609 46.6253 42.1158 47.5747 43.0651 48.2076L42.9597 47.9967ZM44.6475 49.6845C44.0145 49.368 43.2761 49.0515 42.6432 48.6296C41.5883 47.9967 40.5335 46.9418 39.5841 45.8869C39.0566 45.254 38.6347 44.6211 38.3182 43.9882C38.3182 44.6211 38.3182 45.3595 38.4237 45.9924C38.5292 47.1528 38.7402 48.3131 39.1621 49.368C39.4786 50.2119 39.9005 50.9503 40.428 51.5832C40.9554 52.2162 41.6938 52.7436 42.6432 53.1655C43.2761 53.482 43.909 53.693 44.542 53.7985C45.1749 53.904 45.8078 53.904 46.2298 53.7985C46.6517 53.693 46.9682 53.482 47.1791 53.0601C47.1791 52.9546 47.2846 52.8491 47.2846 52.6381C47.6011 51.0558 46.2298 50.4229 44.6475 49.6845ZM9.09827 26.2663C12.8958 24.5785 17.0098 27.2157 17.0098 27.2157L24.6049 32.3846L24.2884 33.0175C24.2884 33.0175 21.7567 32.3846 18.5921 32.5955C17.1153 32.701 15.9549 33.2285 15.111 33.8614C14.2671 34.4943 13.7397 35.3382 13.7397 36.1821V36.2876C13.8452 36.9205 14.2671 37.448 15.0056 37.7644C15.744 38.1864 16.9043 38.3973 18.1702 38.2919C18.3811 38.2919 18.6976 38.2919 18.9086 38.1864C22.1787 37.7644 24.1829 36.4986 24.1829 36.4986L24.7104 36.9205C24.2884 38.7138 23.761 40.2961 23.0226 41.6674C22.2842 43.0388 21.4403 44.3046 20.2799 45.3595C19.436 46.2034 17.5372 47.7857 15.744 48.5241C15.0056 48.8406 14.2671 49.0515 13.6342 49.0515C12.8958 49.0515 12.2629 48.8406 11.7355 48.3131C11.5245 48.1022 11.3135 47.7857 11.1025 47.3637C10.8916 46.8363 10.8916 46.0979 11.208 45.3595C11.419 44.9375 11.63 44.5156 11.9464 43.9882C10.3641 44.7266 8.99278 45.1485 7.83242 45.3595C6.03914 45.7814 4.66781 45.676 3.61294 45.3595C2.03063 44.8321 0.975757 43.8827 0.448321 42.7223C-0.184603 41.351 -0.0791154 39.6632 0.342833 37.9754C1.81965 32.701 6.77755 31.1187 9.09827 30.5913C8.67632 30.3803 8.14889 30.0639 7.83242 29.6419C7.51596 29.3254 7.1995 28.9035 7.09401 28.587C6.98853 28.1651 6.98853 27.7431 7.1995 27.3212C7.41048 26.8992 7.93791 26.4773 8.78181 26.1608L9.09827 26.2663ZM16.6933 27.8486C16.6933 27.8486 12.7903 25.4224 9.41473 26.8992C8.78181 27.2157 8.35986 27.5322 8.25437 27.8486C8.14889 28.0596 8.14889 28.3761 8.14889 28.587C8.25437 28.9035 8.46535 29.1145 8.67632 29.4309C9.30925 30.0639 10.1531 30.4858 10.6806 30.4858C10.997 30.4858 11.1025 30.6968 11.1025 30.9077C11.1025 31.2242 10.7861 31.2242 10.3641 31.3297C8.78181 31.6462 3.0855 32.8065 1.50319 38.3973C1.08124 39.8742 0.975757 41.351 1.50319 42.6168C1.92514 43.6717 2.76904 44.4101 4.24586 44.8321C5.19524 45.1485 6.46109 45.1485 8.14889 44.8321C9.62571 44.5156 11.3135 43.8827 13.3178 42.8278L13.7397 43.3552C13.1068 44.1991 12.5793 44.9375 12.2629 45.676C12.0519 46.3089 11.9464 46.7308 12.1574 47.1528C12.2629 47.4692 12.4739 47.6802 12.5793 47.8912C12.8958 48.3131 13.4232 48.4186 13.9507 48.4186C14.4781 48.4186 15.111 48.2076 15.744 47.9967C17.5372 47.2583 19.3305 45.7814 20.0689 44.9375C21.1238 43.8827 21.9677 42.7223 22.6006 41.4565C23.1281 40.2961 23.6555 39.0303 23.972 37.6589C23.0226 38.0809 21.3348 38.7138 19.1196 39.0303C18.8031 39.0303 18.5921 39.1357 18.2757 39.1357C16.7988 39.2412 15.6385 38.9248 14.6891 38.5028C13.7397 37.9754 13.2123 37.3425 13.1068 36.3931V36.1821C13.1068 35.2327 13.6342 34.0724 14.6891 33.334C15.6385 32.5955 16.9043 32.0681 18.4866 31.9626C20.1744 31.8571 21.6512 31.9626 22.7061 32.0681L16.4824 27.8486H16.6933ZM30.5122 41.4565C31.3561 41.351 32.0945 41.4565 32.7274 41.6674C33.6768 42.0894 34.4152 42.7223 34.8371 43.6717C35.2591 44.5156 35.5756 45.676 35.681 46.7308C35.9975 49.4735 35.4701 52.5326 34.7317 54.4314C32.6219 59.9167 27.664 64.0307 22.0732 67.1953C16.4824 70.36 10.2586 72.6807 5.40622 74.3685L4.7733 74.5794L4.98427 73.9465C4.98427 73.7355 5.19524 73.7355 5.51171 73.6301C6.88304 73.2081 13.1068 70.9929 20.4909 61.1826C22.4951 58.4399 23.761 56.0137 24.6049 53.904C25.4488 51.6887 25.8707 49.8954 26.1872 48.2076L26.3982 47.3637C27.0311 44.3046 27.453 41.8784 30.6177 41.562L30.5122 41.4565ZM32.5164 42.4059C31.989 42.1949 31.3561 42.0894 30.6177 42.1949C27.9805 42.5113 27.5585 44.6211 27.0311 47.4692L26.8201 48.3131C26.5037 50.0009 26.0817 51.8997 25.2378 54.1149C24.3939 56.3302 23.1281 58.8619 21.0183 61.6045C17.1153 66.7734 13.5287 69.938 10.7861 71.7313C14.3726 70.36 18.2757 68.6722 21.7567 66.6679C27.2421 63.5033 32.0945 59.4948 34.0987 54.2204C34.7317 52.5326 35.2591 49.4735 35.0481 46.9418C34.9426 45.8869 34.7317 44.9375 34.2042 44.0936C33.7823 43.3552 33.2548 42.7223 32.4109 42.4059H32.5164ZM31.0396 30.2748C32.3055 30.2748 33.4658 30.8023 34.3097 31.6462C35.1536 32.4901 35.681 33.6504 35.681 34.9163C35.681 36.1821 35.1536 37.3425 34.3097 38.1864C33.4658 39.0303 32.3055 39.5577 31.0396 39.5577C29.7738 39.5577 28.6134 39.0303 27.7695 38.1864C26.9256 37.3425 26.3982 36.1821 26.3982 34.9163C26.3982 33.6504 26.9256 32.4901 27.7695 31.6462C28.6134 30.8023 29.7738 30.2748 31.0396 30.2748ZM33.7823 32.0681C33.0439 31.3297 32.0945 30.9077 31.0396 30.9077C29.9847 30.9077 29.0354 31.3297 28.2969 32.0681C27.5585 32.8065 27.1366 33.7559 27.1366 34.8108C27.1366 35.8656 27.5585 36.815 28.2969 37.5534C29.0354 38.2919 29.9847 38.7138 31.0396 38.7138C32.0945 38.7138 33.0439 38.2919 33.7823 37.5534C34.5207 36.815 34.9426 35.8656 34.9426 34.8108C34.9426 33.7559 34.5207 32.8065 33.7823 32.0681ZM23.972 46.2034C23.761 48.6296 23.4445 50.3174 22.9171 51.7942C22.3897 53.271 21.7567 54.3259 20.8074 55.3808C19.9635 56.3302 18.4866 57.2795 17.0098 57.807C16.2714 58.018 15.533 58.2289 14.9001 58.2289C14.1617 58.2289 13.6342 57.9125 13.3178 57.4905C13.1068 57.1741 13.0013 56.8576 13.0013 56.4356C12.7903 54.1149 14.5836 53.1655 16.7988 52.1107C17.5372 51.6887 18.4866 51.2668 19.225 50.7393C22.1787 48.7351 23.339 46.2034 23.339 46.2034L23.972 46.4144V46.2034ZM22.2842 51.5832C22.6006 50.5284 22.9171 49.368 23.1281 47.7857C22.3897 48.7351 21.3348 50.1064 19.647 51.1613C18.8031 51.6887 17.9592 52.2162 17.1153 52.6381C15.2165 53.5875 13.6342 54.4314 13.7397 56.3302C13.7397 56.6466 13.8452 56.8576 13.9507 56.9631C14.1617 57.2795 14.5836 57.385 15.0056 57.385C15.533 57.385 16.1659 57.2795 16.7988 57.0686C18.1702 56.6466 19.5415 55.6972 20.2799 54.8533C21.1238 53.904 21.7567 52.8491 22.2842 51.4778V51.5832ZM13.5287 15.9286C13.8452 17.9328 15.533 21.3084 15.533 21.3084L15.111 21.7304C14.2671 21.3084 13.3178 21.0974 12.2629 20.8865C11.208 20.6755 10.1531 20.6755 9.20376 20.781C8.25437 20.8865 7.1995 20.8865 6.3556 20.6755C5.93365 20.57 5.61719 20.359 5.30073 20.1481C4.98427 19.9371 4.7733 19.6206 4.7733 19.1987C4.7733 18.9877 4.7733 18.8822 4.7733 18.6712C4.98427 17.8273 5.61719 17.4054 6.25012 17.2999C5.82817 16.878 5.51171 16.456 5.30073 15.9286C5.08976 15.4011 4.87878 14.7682 4.7733 14.1353C4.66781 13.5024 4.7733 12.8694 4.87878 12.342C5.08976 11.3926 5.72268 10.6542 6.67206 10.2323C9.09827 9.0719 10.3641 11.0762 10.8916 12.2365C11.208 11.8146 11.63 11.4981 12.3684 11.8146C13.3178 12.2365 13.3178 12.9749 13.3178 14.1353C13.3178 14.6627 13.3178 15.1902 13.4232 15.8231L13.5287 15.9286ZM14.4781 20.781C13.9507 19.6206 13.0013 17.5109 12.7903 16.0341C12.6848 15.4011 12.6848 14.7682 12.6848 14.2408C12.6848 13.2914 12.6848 12.764 12.1574 12.553C11.5245 12.2365 11.208 13.2914 11.208 13.2914H10.5751C10.5751 13.2914 9.62571 9.70482 6.98853 10.9707C6.25012 11.2871 5.82817 11.9201 5.61719 12.6585C5.51171 13.1859 5.51171 13.7133 5.51171 14.1353C5.61719 14.6627 5.72268 15.1902 5.93365 15.6121C6.3556 16.456 6.98853 17.0889 7.72694 17.2999L7.51596 17.9328C7.51596 17.9328 5.72268 17.5109 5.40622 18.7767C5.40622 18.8822 5.40622 18.9877 5.40622 19.0932C5.40622 19.3042 5.51171 19.4096 5.72268 19.5151C5.93365 19.6206 6.14463 19.8316 6.46109 19.8316C7.1995 20.0426 8.14889 20.0426 8.99278 19.9371C9.94217 19.8316 11.1025 19.8316 12.1574 20.0426C12.8958 20.1481 13.6342 20.359 14.3726 20.57L14.4781 20.781Z" fill="#FEFEFE"/>
<path fill-rule="evenodd" clip-rule="evenodd" d="M25.9763 46.2033C24.605 46.2033 21.8623 46.0978 21.8623 44.41C21.8623 43.9881 21.9678 43.7771 22.1788 43.5661C22.9172 42.7222 24.1831 43.5661 25.3434 43.5661C27.3477 43.5661 28.6135 43.1442 29.9848 41.7729C30.5123 41.2454 30.7233 40.8235 31.1452 40.0851C31.3562 39.7686 31.4617 39.3467 31.6726 39.1357C32.5165 38.1863 34.0989 38.8192 34.0989 40.0851C34.0989 41.2454 32.4111 43.5661 31.2507 44.3046C29.9848 45.2539 28.2971 46.2033 26.0818 46.2033H25.9763ZM21.5459 37.2369C21.0184 37.2369 20.0691 36.7095 19.1197 37.6589C18.8032 37.9753 18.6977 38.5028 18.3813 38.9247C17.4319 39.7686 15.1112 39.0302 16.588 36.604C16.799 36.182 17.1154 35.8656 17.5374 35.5491C19.3306 33.9668 22.9172 34.1778 22.9172 35.9711C22.9172 36.7095 22.2843 37.3424 21.5459 37.3424V37.2369ZM31.8836 32.3845C31.3562 32.3845 29.9849 31.6461 29.141 33.1229C28.8245 33.6503 28.719 34.2833 27.6641 34.2833C26.9257 34.2833 26.2928 33.6503 26.2928 32.9119C26.2928 32.1735 27.1367 31.0132 27.6641 30.5912C29.4574 28.9034 33.044 29.2199 33.044 30.8022C33.044 31.6461 32.622 32.3845 31.7781 32.3845H31.8836ZM9.20388 31.3296C9.20388 32.5955 10.1533 33.7558 10.7862 35.3381C11.1026 35.9711 11.3136 36.4985 11.6301 37.0259L14.0563 42.3003C14.6892 43.4607 15.1112 44.621 15.7441 45.7814C17.0099 47.7856 18.9087 49.6844 20.913 50.8448C23.9721 52.638 27.5586 53.5874 31.5672 52.9545C32.9385 52.7435 33.4659 52.2161 34.3098 51.3722C35.2592 50.4228 35.4702 50.1064 36.3141 49.0515C36.5251 48.735 36.6305 48.524 36.8415 48.2076C37.0525 47.8911 37.2635 47.5747 37.369 47.2582C39.0567 44.0936 39.5842 39.9796 38.6348 36.393C38.3183 35.3381 38.1074 34.5997 37.6854 33.6503L32.9385 23.5236C32.7275 22.9961 32.5165 22.6797 32.3056 22.2577C31.5672 20.6754 31.4617 20.2535 28.508 20.8864C27.4532 21.0974 26.3983 21.3083 25.4489 21.6248C22.2843 22.5742 20.3855 23.4181 17.5374 24.8949C15.8496 25.7388 14.3727 26.5827 12.8959 27.6376C12.474 27.8486 12.263 28.165 11.8411 28.376C11.1026 28.9034 9.09839 30.4857 9.09839 31.3296H9.20388Z" fill="#FEFEFE"/>
<path fill-rule="evenodd" clip-rule="evenodd" d="M25.9764 46.2032C24.605 46.2032 21.8624 46.0977 21.8624 44.4099C21.8624 43.9879 21.9678 43.7769 22.1788 43.566C22.9172 42.7221 24.1831 43.566 25.3434 43.566C27.3477 43.566 28.6135 43.144 29.9849 41.7727C30.5123 41.2453 30.7233 40.8233 31.1452 40.0849C31.3562 39.7684 31.4617 39.3465 31.6727 39.1355C32.5166 38.1861 34.0989 38.819 34.0989 40.0849C34.0989 41.2453 32.4111 43.566 31.2507 44.3044C29.9849 45.2538 28.2971 46.2032 26.0818 46.2032H25.9764ZM21.5459 37.2367C21.0185 37.2367 20.0691 36.7093 19.1197 37.6587C18.8032 37.9752 18.6977 38.5026 18.3813 38.9245C17.4319 39.7684 15.1112 39.03 16.588 36.6038C16.799 36.1819 17.1154 35.8654 17.5374 35.5489C19.3307 33.9666 22.9172 34.1776 22.9172 35.9709C22.9172 36.7093 22.2843 37.3422 21.5459 37.3422V37.2367ZM31.8836 32.3843C31.3562 32.3843 29.9849 31.6459 29.141 33.1227C28.8245 33.6502 28.719 34.2831 27.6641 34.2831C26.9257 34.2831 26.2928 33.6502 26.2928 32.9118C26.2928 32.1734 27.1367 31.013 27.6641 30.5911C29.4574 28.9033 33.044 29.2197 33.044 30.802C33.044 31.6459 32.622 32.3843 31.7781 32.3843H31.8836ZM9.20389 31.3295C9.20389 32.5953 10.1533 33.7557 10.7862 35.338C11.1027 35.9709 11.3136 36.4983 11.6301 37.0258L14.0563 42.3001C14.6892 43.4605 15.1112 44.6208 15.7441 45.7812C17.0099 47.7855 18.9087 49.6842 20.913 50.8446C23.9721 52.6379 27.5587 53.5873 31.5672 52.9543C32.9385 52.7434 33.4659 52.2159 34.3098 51.372C35.2592 50.4226 35.4702 50.1062 36.3141 49.0513C36.5251 48.7348 36.6306 48.5239 36.8415 48.2074C37.0525 47.891 37.2635 47.5745 37.369 47.258C39.0568 44.0934 39.5842 39.9794 38.6348 36.3928C38.3184 35.338 38.1074 34.5996 37.6854 33.6502L32.9385 23.5234C32.7275 22.996 32.5166 22.6795 32.3056 22.2576C31.5672 20.6753 31.4617 20.2533 28.508 20.8862C27.4532 21.0972 26.3983 21.3082 25.4489 21.6246C22.2843 22.574 20.3855 23.4179 17.5374 24.8947C15.8496 25.7386 14.3728 26.5825 12.8959 27.6374C12.474 27.8484 12.263 28.1648 11.8411 28.3758C11.1027 28.9033 9.0984 30.4856 9.0984 31.3295H9.20389ZM7.51609 35.338C6.88317 34.0721 6.25024 32.9118 6.25024 31.3295C6.25024 30.1691 6.88317 29.1142 7.83255 28.1648C8.67645 27.3209 9.73132 26.3716 10.2588 26.0551L10.4697 25.9496L10.5752 25.8441C10.7862 25.6332 11.1027 25.4222 11.4191 25.2112C12.263 24.6838 13.0014 24.1563 13.8453 23.6289C14.6892 23.1015 15.5331 22.6795 16.4825 22.2576C18.0648 21.5192 19.3307 20.8862 20.491 20.3588C21.7569 19.8314 23.1282 19.3039 24.816 18.7765C25.7654 18.46 26.8203 18.249 27.8751 18.0381H27.9806H28.0861C33.044 16.9832 33.4659 17.7216 34.9428 20.5698C34.9428 20.6753 35.0483 20.6753 35.0483 20.7807L35.1537 20.9917L35.2592 21.3082C35.4702 21.6246 35.5757 21.9411 35.7867 22.363L40.4281 32.2788C40.4281 32.3843 40.5336 32.4898 40.5336 32.4898C40.7446 33.0173 40.9555 33.4392 41.1665 33.9666C41.3775 34.4941 41.483 35.0215 41.6939 35.6544C42.2214 37.7642 42.3269 39.9794 42.1159 42.1946C41.9049 44.3044 41.272 46.4141 40.3226 48.3129C40.3226 48.4184 40.2171 48.5239 40.2171 48.5239C40.2171 48.6294 40.1116 48.8403 39.9007 49.0513C39.7952 49.1568 39.7952 49.2623 39.6897 49.3678C39.6897 49.4733 39.5842 49.4733 39.5842 49.5787L39.4787 49.7897C39.2677 50.0007 39.1623 50.3172 38.9513 50.6336C38.5293 51.2665 38.2129 51.583 37.8964 52.0049C37.5799 52.4269 37.2635 52.7434 36.6306 53.2708C35.9976 53.9037 35.5757 54.3257 34.8373 54.7476C34.0989 55.1696 33.255 55.486 32.2001 55.697C29.8794 56.1189 27.7696 56.0135 25.6599 55.5915C23.4447 55.1696 21.4404 54.3257 19.5416 53.1653C18.2758 52.4269 17.1154 51.4775 16.0606 50.5281C15.0057 49.4733 14.0563 48.3129 13.3179 47.1525C12.7905 46.3086 12.474 45.5702 12.052 44.7263C12.052 44.6208 11.9466 44.6208 11.9466 44.5154C11.7356 44.0934 11.6301 43.7769 11.4191 43.4605C11.4191 43.4605 11.4191 43.4605 11.4191 43.355L8.99291 38.2916C8.99291 38.1861 8.88742 38.0806 8.88742 37.9752C8.78194 37.6587 8.67645 37.4477 8.57096 37.2367C8.35999 36.9203 8.2545 36.6038 8.14901 36.2874C7.93804 35.8654 7.72707 35.5489 7.62158 35.127L7.51609 35.338Z" fill="black"/>
<path fill-rule="evenodd" clip-rule="evenodd" d="M45.4914 24.262C45.4914 23.5236 46.1243 22.8907 46.8627 22.8907C48.1286 22.8907 47.4956 23.8401 49.3944 23.8401C50.2383 23.8401 50.4493 22.8907 51.3987 22.8907C52.559 22.8907 53.7194 24.473 51.6096 25.8443C48.867 27.5321 45.4914 25.8443 45.4914 24.262ZM30.5122 16.7724V17.9328C32.7274 17.9328 33.2549 17.6163 33.9933 19.0931L34.8372 20.9919C34.9427 21.0974 35.6811 22.7852 35.6811 22.7852C35.7866 22.8907 35.9975 22.8907 36.525 23.3126C37.0524 23.7346 37.2634 23.7346 37.8963 23.7346C38.9512 23.7346 39.0567 22.7852 40.0061 22.7852C41.5884 22.7852 42.4323 25.0004 39.4786 26.0553C38.8457 26.2663 38.4237 26.3718 37.4744 26.3718C37.6853 27.1102 40.217 32.1736 40.428 32.8065C41.4829 32.701 40.9554 32.49 43.6981 32.49C46.0188 32.49 49.6054 34.4943 49.6054 35.7601V36.1821C49.6054 36.7095 48.5505 37.9753 47.1792 36.7095C45.7024 35.3382 44.331 35.1272 42.4323 35.1272C41.9048 35.1272 41.7993 35.3382 41.2719 35.3382L41.6938 37.4479C42.1158 39.9796 41.7993 42.3003 41.2719 44.7265C42.0103 44.832 42.0103 45.043 43.3816 45.043C44.6475 45.043 47.1792 43.7771 48.2341 43.1442C52.559 40.507 55.7236 35.4437 55.7236 30.2748V16.5614C55.7236 15.4011 54.7743 15.0846 53.9304 14.8737C53.0865 14.5572 52.0316 14.3462 51.0822 14.1352C47.0737 13.5023 45.9133 13.5023 41.9048 13.5023C39.0567 13.5023 35.0482 14.0298 32.5165 14.8737C31.8835 15.0846 30.5122 15.4011 30.5122 16.5614V16.7724Z" fill="#FEFEFE"/>
<path fill-rule="evenodd" clip-rule="evenodd" d="M51.3989 22.8907C52.5593 22.8907 53.7197 24.473 51.6099 25.8443C48.8672 27.5321 45.4917 25.8443 45.4917 24.262C45.4917 23.5236 46.1246 22.8907 46.863 22.8907C48.1288 22.8907 47.4959 23.8401 49.3947 23.8401C50.2386 23.8401 50.4496 22.8907 51.3989 22.8907ZM40.0063 22.8907C41.5886 22.8907 42.4325 25.1059 39.4789 26.1608C38.846 26.3717 38.424 26.4772 37.4746 26.4772C37.6856 27.2156 40.2173 32.279 40.4283 32.912C41.4831 32.8065 40.9557 32.5955 43.6984 32.5955C46.0191 32.5955 49.6057 34.5997 49.6057 35.8656V36.2875C49.6057 36.815 48.5508 38.0808 47.1795 36.815C45.7026 35.4436 44.3313 35.2327 42.4325 35.2327C41.9051 35.2327 41.7996 35.4436 41.2722 35.4436L41.6941 37.5534C42.1161 40.0851 41.7996 42.4058 41.2722 44.832C42.0106 44.9375 42.0106 45.1485 43.3819 45.1485C44.6478 45.1485 47.1795 43.8826 48.2343 43.2497C52.5593 40.6125 55.7239 35.5491 55.7239 30.3803V16.6669C55.7239 15.5066 54.7745 15.1901 53.9306 14.9791C53.0867 14.6627 52.0319 14.4517 51.0825 14.2407C47.074 13.6078 45.9136 13.6078 41.9051 13.6078C39.0569 13.6078 35.0484 14.1352 32.5167 14.9791C31.8838 15.1901 30.5125 15.5066 30.5125 16.6669V17.8273C32.7277 17.8273 33.2551 17.5108 33.9936 18.9876L34.8375 20.8864C34.9429 20.9919 35.6814 22.6797 35.6814 22.6797C35.7868 22.7852 35.9978 22.7852 36.5253 23.2071C37.0527 23.6291 37.2637 23.6291 37.8966 23.6291C38.9515 23.6291 39.0569 22.6797 40.0063 22.6797V22.8907ZM27.5588 17.9328V16.7724C27.5588 13.6078 29.985 12.8694 31.4619 12.342L31.6728 12.2365C33.0442 11.8145 34.8375 11.3926 36.5253 11.1816C38.424 10.8651 40.3228 10.7596 41.9051 10.7596H42.327C46.2301 10.7596 47.4959 10.7596 51.6099 11.4981C52.1374 11.6035 52.6648 11.709 53.1922 11.8145C53.7197 11.92 54.2471 12.131 54.7745 12.2365H54.88C55.5129 12.4474 56.1459 12.6584 56.9898 13.1858C58.0446 13.9243 58.783 15.0846 58.783 16.7724V30.4857C58.783 33.5449 57.8337 36.604 56.2514 39.2412C54.669 41.9839 52.4538 44.3046 49.8166 45.8869C49.0782 46.3088 47.8124 46.9417 46.5465 47.4692C45.4917 47.8911 44.3313 48.2076 43.4874 48.2076C42.2216 48.2076 41.5886 47.9966 41.0612 47.7856C40.9557 47.7856 40.8502 47.7856 40.7447 47.6802C39.1624 47.2582 38.213 45.6759 38.5295 44.0936C38.7405 43.0387 38.9515 41.9839 39.0569 40.929C39.1624 39.9796 39.1624 38.9247 38.9515 37.8699L38.635 35.8656C38.635 35.7601 38.635 35.5491 38.635 35.3382C38.635 35.2327 38.635 35.0217 38.635 34.9162C38.213 34.4943 37.8966 33.9668 37.7911 33.4394L36.6307 30.9077C35.9978 29.6419 35.3649 28.376 35.0484 27.5321C34.8375 27.2156 34.8375 26.7937 34.8375 26.3717C34.8375 26.0553 34.8375 25.8443 34.9429 25.5279C34.8375 25.5279 34.8375 25.4224 34.8375 25.4224C34.521 25.3169 34.4155 25.2114 34.099 24.8949C33.9936 24.7894 33.9936 24.7894 33.8881 24.684C33.6771 24.473 33.1497 23.5236 32.8332 22.7852C32.7277 22.5742 32.6222 22.3632 32.5167 22.1523C32.5167 22.0468 32.4112 22.0468 32.4112 21.9413L31.7783 20.57H30.9344H30.8289C29.1411 20.57 27.8753 19.1986 27.8753 17.6163L27.5588 17.9328Z" fill="black"/>
</svg>
